<svg width="34" height="56" viewBox="0 0 34 56" fill="none" xmlns="http://www.w3.org/2000/svg">
<path d="M30.136 3.104V53H15.16V24.416H3.496V13.904H4.864C8.512 13.904 11.608 12.944 14.152 11.024C16.744 9.056 18.088 6.416 18.184 3.104H30.136Z" fill="white"/>
<path d="M30.136 3.104H33.136V0.103999H30.136V3.104ZM30.136 53V56H33.136V53H30.136ZM15.16 53H12.16V56H15.16V53ZM15.16 24.416H18.16V21.416H15.16V24.416ZM3.496 24.416H0.496001V27.416H3.496V24.416ZM3.496 13.904V10.904H0.496001V13.904H3.496ZM14.152 11.024L15.9592 13.4186L15.9661 13.4133L14.152 11.024ZM18.184 3.104V0.103999H15.2697L15.1853 3.01708L18.184 3.104ZM27.136 3.104V53H33.136V3.104H27.136ZM30.136 50H15.16V56H30.136V50ZM18.16 53V24.416H12.16V53H18.16ZM15.16 21.416H3.496V27.416H15.16V21.416ZM6.496 24.416V13.904H0.496001V24.416H6.496ZM3.496 16.904H4.864V10.904H3.496V16.904ZM4.864 16.904C9.06575 16.904 12.8212 15.7869 15.9592 13.4186L12.3448 8.62943C10.3948 10.1011 7.95826 10.904 4.864 10.904V16.904ZM15.9661 13.4133C19.296 10.8851 21.061 7.39095 21.1827 3.19092L15.1853 3.01708C15.115 5.44104 14.192 7.22691 12.3379 8.63466L15.9661 13.4133ZM18.184 6.104H30.136V0.103999H18.184V6.104Z" fill="#00BBB4"/>
</svg>
