<svg width="50" height="57" viewBox="0 0 50 57" fill="none" xmlns="http://www.w3.org/2000/svg">
<path d="M46.72 41.832V54H3.52V53.136C3.52 50.88 3.808 48.816 4.384 46.944C5.008 45.024 5.92 43.272 7.12 41.688C8.32 40.104 9.616 38.712 11.008 37.512C12.4 36.312 14.056 35.04 15.976 33.696C17.608 32.544 19.384 31.416 21.304 30.312C23.224 29.16 24.712 28.296 25.768 27.72C26.824 27.096 27.832 26.424 28.792 25.704C29.8 24.936 30.496 24.192 30.88 23.472C31.264 22.704 31.456 21.816 31.456 20.808C31.408 19.272 30.832 18.072 29.728 17.208C28.672 16.296 27.232 15.84 25.408 15.84C22.624 15.84 20.704 16.656 19.648 18.288C18.64 19.92 18.064 22.176 17.92 25.056H4.456V24.336C4.456 17.568 6.28 12.432 9.928 8.928C13.576 5.376 18.928 3.6 25.984 3.6C31.984 3.6 36.784 5.064 40.384 7.992C43.984 10.872 45.784 14.712 45.784 19.512C45.784 21.528 45.52 23.328 44.992 24.912C44.512 26.496 43.672 27.936 42.472 29.232C41.272 30.48 40.144 31.512 39.088 32.328C38.08 33.144 36.616 34.176 34.696 35.424C33.688 36.096 31.816 37.2 29.08 38.736C26.392 40.272 24.376 41.544 23.032 42.552C27.304 42.12 31 41.904 34.12 41.904L46.72 41.832Z" fill="white"/>
<path d="M46.72 41.832H49.72V38.8148L46.7029 38.832L46.72 41.832ZM46.72 54V57H49.72V54H46.72ZM3.52 54H0.52V57H3.52V54ZM4.384 46.944L1.5309 46.0167L1.5236 46.0392L1.51666 46.0617L4.384 46.944ZM7.12 41.688L9.51128 43.4996L7.12 41.688ZM11.008 37.512L9.04918 35.2398H9.04918L11.008 37.512ZM15.976 33.696L17.6964 36.1537L17.7061 36.1469L15.976 33.696ZM21.304 30.312L22.7994 32.9127L22.8236 32.8988L22.8475 32.8845L21.304 30.312ZM25.768 27.72L27.2046 30.3537L27.2498 30.329L27.2942 30.3028L25.768 27.72ZM28.792 25.704L30.592 28.104L30.6011 28.0972L30.6101 28.0903L28.792 25.704ZM30.88 23.472L33.5271 24.8838L33.5456 24.8489L33.5633 24.8136L30.88 23.472ZM31.456 20.808H34.456V20.7611L34.4545 20.7143L31.456 20.808ZM29.728 17.208L27.7671 19.4785L27.822 19.5258L27.8791 19.5705L29.728 17.208ZM19.648 18.288L17.1293 16.6582L17.1122 16.6847L17.0956 16.7115L19.648 18.288ZM17.92 25.056V28.056H20.7737L20.9163 25.2058L17.92 25.056ZM4.456 25.056H1.456V28.056H4.456V25.056ZM9.928 8.928L12.0062 11.0916L12.0135 11.0845L12.0209 11.0774L9.928 8.928ZM40.384 7.992L38.4911 10.3194L38.5005 10.327L38.5099 10.3346L40.384 7.992ZM44.992 24.912L42.146 23.9633L42.1329 24.0025L42.1209 24.042L44.992 24.912ZM42.472 29.232L44.6345 31.3113L44.6541 31.291L44.6733 31.2702L42.472 29.232ZM39.088 32.328L37.2537 29.9541L37.2268 29.9749L37.2004 29.9963L39.088 32.328ZM34.696 35.424L33.061 32.9087L33.0464 32.9182L33.0319 32.9278L34.696 35.424ZM29.08 38.736L27.6114 36.12L27.6015 36.1256L27.5916 36.1313L29.08 38.736ZM23.032 42.552L21.232 40.152L12.6058 46.6216L23.3338 45.5368L23.032 42.552ZM34.12 41.904V44.904H34.1286L34.1371 44.9039L34.12 41.904ZM43.72 41.832V54H49.72V41.832H43.72ZM46.72 51H3.52V57H46.72V51ZM6.52 54V53.136H0.52V54H6.52ZM6.52 53.136C6.52 51.1346 6.77546 49.3729 7.25134 47.8263L1.51666 46.0617C0.84054 48.2591 0.52 50.6254 0.52 53.136H6.52ZM7.2371 47.8713C7.75927 46.2646 8.51674 44.8124 9.51128 43.4996L4.72872 39.8764C3.32326 41.7316 2.25673 43.7834 1.5309 46.0167L7.2371 47.8713ZM9.51128 43.4996C10.594 42.0704 11.7471 40.8357 12.9668 39.7842L9.04918 35.2398C7.48486 36.5883 6.04602 38.1376 4.72872 39.8764L9.51128 43.4996ZM12.9668 39.7842C14.2651 38.665 15.8377 37.4548 17.6964 36.1537L14.2556 31.2383C12.2743 32.6252 10.5349 33.959 9.04918 35.2398L12.9668 39.7842ZM17.7061 36.1469C19.2546 35.0538 20.9514 33.9753 22.7994 32.9127L19.8086 27.7113C17.8166 28.8567 15.9614 30.0342 14.2459 31.2451L17.7061 36.1469ZM22.8475 32.8845C24.7567 31.739 26.2031 30.9 27.2046 30.3537L24.3314 25.0863C23.2209 25.692 21.6913 26.581 19.7605 27.7395L22.8475 32.8845ZM27.2942 30.3028C28.4426 29.6241 29.5422 28.8913 30.592 28.104L26.992 23.304C26.1218 23.9567 25.2054 24.5679 24.2418 25.1372L27.2942 30.3028ZM30.6101 28.0903C31.7909 27.1907 32.8589 26.1366 33.5271 24.8838L28.2329 22.0602C28.1331 22.2474 27.8091 22.6813 26.9739 23.3177L30.6101 28.0903ZM33.5633 24.8136C34.1889 23.5624 34.456 22.201 34.456 20.808H28.456C28.456 21.431 28.3391 21.8456 28.1967 22.1304L33.5633 24.8136ZM34.4545 20.7143C34.3818 18.3859 33.4546 16.315 31.5769 14.8455L27.8791 19.5705C28.2094 19.829 28.4342 20.1581 28.4575 20.9017L34.4545 20.7143ZM31.6889 14.9375C29.9388 13.4261 27.7267 12.84 25.408 12.84V18.84C26.7373 18.84 27.4052 19.1659 27.7671 19.4785L31.6889 14.9375ZM25.408 12.84C22.0834 12.84 18.9551 13.8366 17.1293 16.6582L22.1667 19.9178C22.4529 19.4754 23.1646 18.84 25.408 18.84V12.84ZM17.0956 16.7115C15.7209 18.9372 15.0813 21.7551 14.9237 24.9062L20.9163 25.2058C21.0467 22.5968 21.5591 20.9028 22.2004 19.8645L17.0956 16.7115ZM17.92 22.056H4.456V28.056H17.92V22.056ZM7.456 25.056V24.336H1.456V25.056H7.456ZM7.456 24.336C7.456 18.098 9.12598 13.8581 12.0062 11.0916L7.84981 6.7644C3.43402 11.0059 1.456 17.038 1.456 24.336H7.456ZM12.0209 11.0774C14.9222 8.25239 19.4038 6.6 25.984 6.6V0.599997C18.4522 0.599997 12.2298 2.4996 7.83515 6.77858L12.0209 11.0774ZM25.984 6.6C31.4993 6.6 35.5658 7.9402 38.4911 10.3194L42.277 5.6646C38.0022 2.18779 32.4687 0.599997 25.984 0.599997V6.6ZM38.5099 10.3346C41.365 12.6187 42.784 15.5799 42.784 19.512H48.784C48.784 13.8441 46.603 9.1253 42.2581 5.64939L38.5099 10.3346ZM42.784 19.512C42.784 21.2702 42.5534 22.7411 42.146 23.9633L47.8381 25.8607C48.4866 23.9149 48.784 21.7858 48.784 19.512H42.784ZM42.1209 24.042C41.7815 25.1619 41.183 26.2085 40.2707 27.1938L44.6733 31.2702C46.161 29.6635 47.2425 27.83 47.8631 25.782L42.1209 24.042ZM40.3095 27.1527C39.1833 28.3239 38.1649 29.25 37.2537 29.9541L40.9223 34.7019C42.1231 33.774 43.3607 32.6361 44.6345 31.3113L40.3095 27.1527ZM37.2004 29.9963C36.3121 30.7154 34.9489 31.6816 33.061 32.9087L36.331 37.9393C38.2831 36.6704 39.8479 35.5726 40.9756 34.6597L37.2004 29.9963ZM33.0319 32.9278C32.1314 33.5282 30.3529 34.5809 27.6114 36.12L30.5486 41.352C33.2791 39.8191 35.2446 38.6638 36.3601 37.9202L33.0319 32.9278ZM27.5916 36.1313C24.8693 37.6869 22.7259 39.0316 21.232 40.152L24.832 44.952C26.0261 44.0564 27.9147 42.8571 30.5684 41.3407L27.5916 36.1313ZM23.3338 45.5368C27.5399 45.1114 31.1303 44.904 34.12 44.904V38.904C30.8698 38.904 27.0681 39.1286 22.7302 39.5672L23.3338 45.5368ZM34.1371 44.9039L46.7371 44.832L46.7029 38.832L34.1029 38.904L34.1371 44.9039Z" fill="#00BBB4"/>
</svg>
