<svg width="50" height="58" viewBox="0 0 50 58" fill="none" xmlns="http://www.w3.org/2000/svg">
<path d="M4.888 20.664C5.128 14.952 7.048 10.68 10.648 7.848C14.296 5.016 19.12 3.6 25.12 3.6C31.12 3.6 35.896 4.896 39.448 7.488C43.048 10.032 44.848 13.488 44.848 17.856C44.848 20.352 44.2 22.44 42.904 24.12C41.656 25.752 39.928 26.76 37.72 27.144C40.456 27.768 42.568 29.04 44.056 30.96C45.592 32.88 46.36 35.28 46.36 38.16C46.36 40.464 45.952 42.552 45.136 44.424C44.32 46.296 43.216 47.856 41.824 49.104C40.48 50.352 38.872 51.408 37 52.272C35.176 53.088 33.28 53.688 31.312 54.072C29.344 54.456 27.304 54.648 25.192 54.648C18.808 54.648 13.576 53.136 9.496 50.112C5.464 47.088 3.448 42.552 3.448 36.504C3.448 35.976 3.472 35.52 3.52 35.136H17.056V35.856C17.056 40.512 19.552 42.84 24.544 42.84C26.8 42.84 28.552 42.384 29.8 41.472C31.048 40.56 31.672 39.264 31.672 37.584C31.672 34.08 29.08 32.328 23.896 32.328C23.848 32.328 23.704 32.352 23.464 32.4C23.272 32.4 22.984 32.4 22.6 32.4C22.216 32.4 21.808 32.4 21.376 32.4H20.8V23.112C21.376 23.16 22.168 23.184 23.176 23.184C25 23.184 26.248 23.16 26.92 23.112C28.312 23.016 29.416 22.608 30.232 21.888C31.096 21.12 31.528 20.184 31.528 19.08C31.528 17.736 30.952 16.656 29.8 15.84C28.648 15.024 27.088 14.616 25.12 14.616C20.656 14.616 18.4 16.632 18.352 20.664H4.888Z" fill="white"/>
<path d="M4.888 20.664L1.89064 20.5381L1.7593 23.664H4.888V20.664ZM10.648 7.848L8.80834 5.47826L8.80072 5.48417L8.79315 5.49013L10.648 7.848ZM39.448 7.488L37.6796 9.91137L37.698 9.92482L37.7167 9.938L39.448 7.488ZM42.904 24.12L40.5286 22.2876L40.5209 22.2976L42.904 24.12ZM37.72 27.144L37.206 24.1884L37.0529 30.0689L37.72 27.144ZM44.056 30.96L41.6848 32.7977L41.6989 32.816L41.7134 32.8341L44.056 30.96ZM45.136 44.424L47.8861 45.6228L45.136 44.424ZM41.824 49.104L39.8214 46.8703L39.8019 46.8878L39.7826 46.9056L41.824 49.104ZM37 52.272L38.2251 55.0105L38.2412 55.0033L38.2572 54.9959L37 52.272ZM31.312 54.072L31.8865 57.0165L31.312 54.072ZM9.496 50.112L7.696 52.512L7.70281 52.5171L7.70964 52.5222L9.496 50.112ZM3.52 35.136V32.136H0.871652L0.543166 34.7639L3.52 35.136ZM17.056 35.136H20.056V32.136H17.056V35.136ZM29.8 41.472L28.03 39.0498L28.0299 39.0498L29.8 41.472ZM23.464 32.4V35.4H23.7611L24.0524 35.3417L23.464 32.4ZM20.8 32.4H17.8V35.4H20.8V32.4ZM20.8 23.112L21.0491 20.1224L17.8 19.8516V23.112H20.8ZM26.92 23.112L26.7136 20.1191L26.7063 20.1196L26.92 23.112ZM30.232 21.888L32.2169 24.1375L32.2251 24.1302L30.232 21.888ZM29.8 15.84L28.0659 18.2881H28.0659L29.8 15.84ZM18.352 20.664V23.664H21.3165L21.3518 20.6997L18.352 20.664ZM7.88536 20.7899C8.09848 15.7177 9.75703 12.3659 12.5029 10.2059L8.79315 5.49013C4.33897 8.99408 2.15752 14.1863 1.89064 20.5381L7.88536 20.7899ZM12.4877 10.2177C15.4704 7.90222 19.5856 6.6 25.12 6.6V0.599997C18.6544 0.599997 13.1217 2.12977 8.80834 5.47826L12.4877 10.2177ZM25.12 6.6C30.7118 6.6 34.7986 7.809 37.6796 9.91137L41.2164 5.06463C36.9934 1.983 31.5282 0.599997 25.12 0.599997V6.6ZM37.7167 9.938C40.5298 11.9259 41.848 14.4729 41.848 17.856H47.848C47.848 12.5031 45.5662 8.13805 41.1793 5.038L37.7167 9.938ZM41.848 17.856C41.848 19.8104 41.3513 21.2212 40.5287 22.2876L45.2793 25.9524C47.0487 23.6588 47.848 20.8936 47.848 17.856H41.848ZM40.5209 22.2976C39.7746 23.2736 38.7441 23.9209 37.206 24.1884L38.234 30.0996C41.1119 29.5991 43.5374 28.2304 45.2871 25.9423L40.5209 22.2976ZM37.0529 30.0689C39.2228 30.5638 40.6866 31.5098 41.6848 32.7977L46.4272 29.1223C44.4494 26.5702 41.6892 24.9722 38.3871 24.2191L37.0529 30.0689ZM41.7134 32.8341C42.7535 34.1342 43.36 35.8393 43.36 38.16H49.36C49.36 34.7207 48.4305 31.6258 46.3986 29.0859L41.7134 32.8341ZM43.36 38.16C43.36 40.1044 43.0172 41.777 42.3859 43.2252L47.8861 45.6228C48.8868 43.327 49.36 40.8236 49.36 38.16H43.36ZM42.3859 43.2252C41.7259 44.7395 40.8642 45.9353 39.8214 46.8703L43.8266 51.3377C45.5678 49.7767 46.9141 47.8525 47.8861 45.6228L42.3859 43.2252ZM39.7826 46.9056C38.6975 47.9133 37.3626 48.8005 35.7428 49.5481L38.2572 54.9959C40.3814 54.0155 42.2625 52.7907 43.8654 51.3024L39.7826 46.9056ZM35.7749 49.5335C34.1599 50.256 32.4823 50.7871 30.7375 51.1275L31.8865 57.0165C34.0777 56.5889 36.1921 55.92 38.2251 55.0105L35.7749 49.5335ZM30.7375 51.1275C28.9685 51.4727 27.1214 51.648 25.192 51.648V57.648C27.4866 57.648 29.7195 57.4393 31.8865 57.0165L30.7375 51.1275ZM25.192 51.648C19.284 51.648 14.7256 50.2539 11.2824 47.7018L7.70964 52.5222C12.4264 56.0181 18.332 57.648 25.192 57.648V51.648ZM11.296 47.712C8.17449 45.3709 6.448 41.82 6.448 36.504H0.448C0.448 43.284 2.75351 48.8051 7.696 52.512L11.296 47.712ZM6.448 36.504C6.448 36.059 6.46866 35.7335 6.49683 35.5081L0.543166 34.7639C0.475335 35.3065 0.448 35.893 0.448 36.504H6.448ZM3.52 38.136H17.056V32.136H3.52V38.136ZM14.056 35.136V35.856H20.056V35.136H14.056ZM14.056 35.856C14.056 38.7021 14.8287 41.373 16.8818 43.2879C18.8955 45.166 21.6355 45.84 24.544 45.84V39.84C22.4605 39.84 21.4565 39.35 20.9742 38.9001C20.5313 38.487 20.056 37.6659 20.056 35.856H14.056ZM24.544 45.84C27.1563 45.84 29.6207 45.3187 31.5701 43.8942L28.0299 39.0498C27.4833 39.4493 26.4437 39.84 24.544 39.84V45.84ZM31.57 43.8942C33.666 42.3625 34.672 40.1246 34.672 37.584H28.672C28.672 38.4034 28.43 38.7575 28.03 39.0498L31.57 43.8942ZM34.672 37.584C34.672 34.9757 33.639 32.6645 31.408 31.1565C29.3865 29.7901 26.7319 29.328 23.896 29.328V35.328C26.2441 35.328 27.4775 35.7419 28.048 36.1275C28.409 36.3715 28.672 36.6883 28.672 37.584H34.672ZM23.896 29.328C23.5814 29.328 23.2867 29.3822 23.2588 29.3868C23.1409 29.4065 23.0093 29.4315 22.8756 29.4583L24.0524 35.3417C24.1033 35.3315 24.1452 35.3234 24.1789 35.3171C24.2132 35.3107 24.2345 35.307 24.2452 35.3052C24.259 35.3029 24.2454 35.3054 24.2141 35.3093C24.1979 35.3114 24.1658 35.3152 24.1226 35.3188C24.1004 35.3206 24.0709 35.3228 24.0357 35.3245C24.0013 35.3263 23.9535 35.328 23.896 35.328V29.328ZM23.464 29.4C23.4636 29.4 23.4632 29.4 23.4629 29.4C23.4625 29.4 23.4621 29.4 23.4617 29.4C23.4614 29.4 23.461 29.4 23.4606 29.4C23.4602 29.4 23.4599 29.4 23.4595 29.4C23.4591 29.4 23.4587 29.4 23.4583 29.4C23.458 29.4 23.4576 29.4 23.4572 29.4C23.4568 29.4 23.4565 29.4 23.4561 29.4C23.4557 29.4 23.4553 29.4 23.4549 29.4C23.4545 29.4 23.4542 29.4 23.4538 29.4C23.4534 29.4 23.453 29.4 23.4526 29.4C23.4523 29.4 23.4519 29.4 23.4515 29.4C23.4511 29.4 23.4507 29.4 23.4503 29.4C23.45 29.4 23.4496 29.4 23.4492 29.4C23.4488 29.4 23.4484 29.4 23.448 29.4C23.4477 29.4 23.4473 29.4 23.4469 29.4C23.4465 29.4 23.4461 29.4 23.4457 29.4C23.4453 29.4 23.4449 29.4 23.4446 29.4C23.4442 29.4 23.4438 29.4 23.4434 29.4C23.443 29.4 23.4426 29.4 23.4422 29.4C23.4418 29.4 23.4415 29.4 23.4411 29.4C23.4407 29.4 23.4403 29.4 23.4399 29.4C23.4395 29.4 23.4391 29.4 23.4387 29.4C23.4383 29.4 23.4379 29.4 23.4375 29.4C23.4372 29.4 23.4368 29.4 23.4364 29.4C23.436 29.4 23.4356 29.4 23.4352 29.4C23.4348 29.4 23.4344 29.4 23.434 29.4C23.4336 29.4 23.4332 29.4 23.4328 29.4C23.4324 29.4 23.432 29.4 23.4316 29.4C23.4312 29.4 23.4308 29.4 23.4305 29.4C23.4301 29.4 23.4297 29.4 23.4293 29.4C23.4289 29.4 23.4285 29.4 23.4281 29.4C23.4277 29.4 23.4273 29.4 23.4269 29.4C23.4265 29.4 23.4261 29.4 23.4257 29.4C23.4253 29.4 23.4249 29.4 23.4245 29.4C23.4241 29.4 23.4237 29.4 23.4233 29.4C23.4229 29.4 23.4225 29.4 23.4221 29.4C23.4217 29.4 23.4213 29.4 23.4209 29.4C23.4205 29.4 23.4201 29.4 23.4197 29.4C23.4193 29.4 23.4189 29.4 23.4185 29.4C23.4181 29.4 23.4176 29.4 23.4172 29.4C23.4168 29.4 23.4164 29.4 23.416 29.4C23.4156 29.4 23.4152 29.4 23.4148 29.4C23.4144 29.4 23.414 29.4 23.4136 29.4C23.4132 29.4 23.4128 29.4 23.4124 29.4C23.412 29.4 23.4116 29.4 23.4112 29.4C23.4107 29.4 23.4103 29.4 23.4099 29.4C23.4095 29.4 23.4091 29.4 23.4087 29.4C23.4083 29.4 23.4079 29.4 23.4075 29.4C23.4071 29.4 23.4066 29.4 23.4062 29.4C23.4058 29.4 23.4054 29.4 23.405 29.4C23.4046 29.4 23.4042 29.4 23.4038 29.4C23.4034 29.4 23.4029 29.4 23.4025 29.4C23.4021 29.4 23.4017 29.4 23.4013 29.4C23.4009 29.4 23.4005 29.4 23.4 29.4C23.3996 29.4 23.3992 29.4 23.3988 29.4C23.3984 29.4 23.398 29.4 23.3976 29.4C23.3971 29.4 23.3967 29.4 23.3963 29.4C23.3959 29.4 23.3955 29.4 23.3951 29.4C23.3946 29.4 23.3942 29.4 23.3938 29.4C23.3934 29.4 23.393 29.4 23.3925 29.4C23.3921 29.4 23.3917 29.4 23.3913 29.4C23.3909 29.4 23.3904 29.4 23.39 29.4C23.3896 29.4 23.3892 29.4 23.3888 29.4C23.3883 29.4 23.3879 29.4 23.3875 29.4C23.3871 29.4 23.3867 29.4 23.3862 29.4C23.3858 29.4 23.3854 29.4 23.385 29.4C23.3845 29.4 23.3841 29.4 23.3837 29.4C23.3833 29.4 23.3828 29.4 23.3824 29.4C23.382 29.4 23.3816 29.4 23.3811 29.4C23.3807 29.4 23.3803 29.4 23.3799 29.4C23.3794 29.4 23.379 29.4 23.3786 29.4C23.3782 29.4 23.3777 29.4 23.3773 29.4C23.3769 29.4 23.3764 29.4 23.376 29.4C23.3756 29.4 23.3752 29.4 23.3747 29.4C23.3743 29.4 23.3739 29.4 23.3734 29.4C23.373 29.4 23.3726 29.4 23.3722 29.4C23.3717 29.4 23.3713 29.4 23.3709 29.4C23.3704 29.4 23.37 29.4 23.3696 29.4C23.3691 29.4 23.3687 29.4 23.3683 29.4C23.3678 29.4 23.3674 29.4 23.367 29.4C23.3665 29.4 23.3661 29.4 23.3657 29.4C23.3652 29.4 23.3648 29.4 23.3644 29.4C23.3639 29.4 23.3635 29.4 23.3631 29.4C23.3626 29.4 23.3622 29.4 23.3617 29.4C23.3613 29.4 23.3609 29.4 23.3604 29.4C23.36 29.4 23.3596 29.4 23.3591 29.4C23.3587 29.4 23.3582 29.4 23.3578 29.4C23.3574 29.4 23.3569 29.4 23.3565 29.4C23.3561 29.4 23.3556 29.4 23.3552 29.4C23.3547 29.4 23.3543 29.4 23.3539 29.4C23.3534 29.4 23.353 29.4 23.3525 29.4C23.3521 29.4 23.3516 29.4 23.3512 29.4C23.3508 29.4 23.3503 29.4 23.3499 29.4C23.3494 29.4 23.349 29.4 23.3485 29.4C23.3481 29.4 23.3477 29.4 23.3472 29.4C23.3468 29.4 23.3463 29.4 23.3459 29.4C23.3454 29.4 23.345 29.4 23.3445 29.4C23.3441 29.4 23.3436 29.4 23.3432 29.4C23.3428 29.4 23.3423 29.4 23.3419 29.4C23.3414 29.4 23.341 29.4 23.3405 29.4C23.3401 29.4 23.3396 29.4 23.3392 29.4C23.3387 29.4 23.3383 29.4 23.3378 29.4C23.3374 29.4 23.3369 29.4 23.3365 29.4C23.336 29.4 23.3356 29.4 23.3351 29.4C23.3347 29.4 23.3342 29.4 23.3338 29.4C23.3333 29.4 23.3329 29.4 23.3324 29.4C23.332 29.4 23.3315 29.4 23.331 29.4C23.3306 29.4 23.3301 29.4 23.3297 29.4C23.3292 29.4 23.3288 29.4 23.3283 29.4C23.3279 29.4 23.3274 29.4 23.327 29.4C23.3265 29.4 23.326 29.4 23.3256 29.4C23.3251 29.4 23.3247 29.4 23.3242 29.4C23.3238 29.4 23.3233 29.4 23.3228 29.4C23.3224 29.4 23.3219 29.4 23.3215 29.4C23.321 29.4 23.3206 29.4 23.3201 29.4C23.3196 29.4 23.3192 29.4 23.3187 29.4C23.3183 29.4 23.3178 29.4 23.3173 29.4C23.3169 29.4 23.3164 29.4 23.316 29.4C23.3155 29.4 23.315 29.4 23.3146 29.4C23.3141 29.4 23.3136 29.4 23.3132 29.4C23.3127 29.4 23.3123 29.4 23.3118 29.4C23.3113 29.4 23.3109 29.4 23.3104 29.4C23.3099 29.4 23.3095 29.4 23.309 29.4C23.3085 29.4 23.3081 29.4 23.3076 29.4C23.3071 29.4 23.3067 29.4 23.3062 29.4C23.3057 29.4 23.3053 29.4 23.3048 29.4C23.3043 29.4 23.3039 29.4 23.3034 29.4C23.3029 29.4 23.3025 29.4 23.302 29.4C23.3015 29.4 23.3011 29.4 23.3006 29.4C23.3001 29.4 23.2997 29.4 23.2992 29.4C23.2987 29.4 23.2982 29.4 23.2978 29.4C23.2973 29.4 23.2968 29.4 23.2964 29.4C23.2959 29.4 23.2954 29.4 23.2949 29.4C23.2945 29.4 23.294 29.4 23.2935 29.4C23.2931 29.4 23.2926 29.4 23.2921 29.4C23.2916 29.4 23.2912 29.4 23.2907 29.4C23.2902 29.4 23.2897 29.4 23.2893 29.4C23.2888 29.4 23.2883 29.4 23.2878 29.4C23.2874 29.4 23.2869 29.4 23.2864 29.4C23.2859 29.4 23.2854 29.4 23.285 29.4C23.2845 29.4 23.284 29.4 23.2835 29.4C23.2831 29.4 23.2826 29.4 23.2821 29.4C23.2816 29.4 23.2811 29.4 23.2807 29.4C23.2802 29.4 23.2797 29.4 23.2792 29.4C23.2787 29.4 23.2783 29.4 23.2778 29.4C23.2773 29.4 23.2768 29.4 23.2763 29.4C23.2759 29.4 23.2754 29.4 23.2749 29.4C23.2744 29.4 23.2739 29.4 23.2734 29.4C23.273 29.4 23.2725 29.4 23.272 29.4C23.2715 29.4 23.271 29.4 23.2705 29.4C23.27 29.4 23.2696 29.4 23.2691 29.4C23.2686 29.4 23.2681 29.4 23.2676 29.4C23.2671 29.4 23.2666 29.4 23.2662 29.4C23.2657 29.4 23.2652 29.4 23.2647 29.4C23.2642 29.4 23.2637 29.4 23.2632 29.4C23.2627 29.4 23.2623 29.4 23.2618 29.4C23.2613 29.4 23.2608 29.4 23.2603 29.4C23.2598 29.4 23.2593 29.4 23.2588 29.4C23.2583 29.4 23.2578 29.4 23.2574 29.4C23.2569 29.4 23.2564 29.4 23.2559 29.4C23.2554 29.4 23.2549 29.4 23.2544 29.4C23.2539 29.4 23.2534 29.4 23.2529 29.4C23.2524 29.4 23.2519 29.4 23.2514 29.4C23.2509 29.4 23.2504 29.4 23.25 29.4C23.2495 29.4 23.249 29.4 23.2485 29.4C23.248 29.4 23.2475 29.4 23.247 29.4C23.2465 29.4 23.246 29.4 23.2455 29.4C23.245 29.4 23.2445 29.4 23.244 29.4C23.2435 29.4 23.243 29.4 23.2425 29.4C23.242 29.4 23.2415 29.4 23.241 29.4C23.2405 29.4 23.24 29.4 23.2395 29.4C23.239 29.4 23.2385 29.4 23.238 29.4C23.2375 29.4 23.237 29.4 23.2365 29.4C23.236 29.4 23.2355 29.4 23.235 29.4C23.2345 29.4 23.234 29.4 23.2335 29.4C23.233 29.4 23.2325 29.4 23.232 29.4C23.2315 29.4 23.231 29.4 23.2305 29.4C23.23 29.4 23.2294 29.4 23.2289 29.4C23.2284 29.4 23.2279 29.4 23.2274 29.4C23.2269 29.4 23.2264 29.4 23.2259 29.4C23.2254 29.4 23.2249 29.4 23.2244 29.4C23.2239 29.4 23.2234 29.4 23.2229 29.4C23.2224 29.4 23.2218 29.4 23.2213 29.4C23.2208 29.4 23.2203 29.4 23.2198 29.4C23.2193 29.4 23.2188 29.4 23.2183 29.4C23.2178 29.4 23.2173 29.4 23.2167 29.4C23.2162 29.4 23.2157 29.4 23.2152 29.4C23.2147 29.4 23.2142 29.4 23.2137 29.4C23.2132 29.4 23.2126 29.4 23.2121 29.4C23.2116 29.4 23.2111 29.4 23.2106 29.4C23.2101 29.4 23.2096 29.4 23.209 29.4C23.2085 29.4 23.208 29.4 23.2075 29.4C23.207 29.4 23.2065 29.4 23.206 29.4C23.2054 29.4 23.2049 29.4 23.2044 29.4C23.2039 29.4 23.2034 29.4 23.2029 29.4C23.2023 29.4 23.2018 29.4 23.2013 29.4C23.2008 29.4 23.2003 29.4 23.1997 29.4C23.1992 29.4 23.1987 29.4 23.1982 29.4C23.1977 29.4 23.1971 29.4 23.1966 29.4C23.1961 29.4 23.1956 29.4 23.1951 29.4C23.1945 29.4 23.194 29.4 23.1935 29.4C23.193 29.4 23.1924 29.4 23.1919 29.4C23.1914 29.4 23.1909 29.4 23.1904 29.4C23.1898 29.4 23.1893 29.4 23.1888 29.4C23.1883 29.4 23.1877 29.4 23.1872 29.4C23.1867 29.4 23.1862 29.4 23.1856 29.4C23.1851 29.4 23.1846 29.4 23.1841 29.4C23.1835 29.4 23.183 29.4 23.1825 29.4C23.1819 29.4 23.1814 29.4 23.1809 29.4C23.1804 29.4 23.1798 29.4 23.1793 29.4C23.1788 29.4 23.1782 29.4 23.1777 29.4C23.1772 29.4 23.1767 29.4 23.1761 29.4C23.1756 29.4 23.1751 29.4 23.1745 29.4C23.174 29.4 23.1735 29.4 23.1729 29.4C23.1724 29.4 23.1719 29.4 23.1713 29.4C23.1708 29.4 23.1703 29.4 23.1697 29.4C23.1692 29.4 23.1687 29.4 23.1681 29.4C23.1676 29.4 23.1671 29.4 23.1665 29.4C23.166 29.4 23.1655 29.4 23.1649 29.4C23.1644 29.4 23.1639 29.4 23.1633 29.4C23.1628 29.4 23.1623 29.4 23.1617 29.4C23.1612 29.4 23.1606 29.4 23.1601 29.4C23.1596 29.4 23.159 29.4 23.1585 29.4C23.158 29.4 23.1574 29.4 23.1569 29.4C23.1563 29.4 23.1558 29.4 23.1553 29.4C23.1547 29.4 23.1542 29.4 23.1536 29.4C23.1531 29.4 23.1526 29.4 23.152 29.4C23.1515 29.4 23.1509 29.4 23.1504 29.4C23.1498 29.4 23.1493 29.4 23.1488 29.4C23.1482 29.4 23.1477 29.4 23.1471 29.4C23.1466 29.4 23.146 29.4 23.1455 29.4C23.145 29.4 23.1444 29.4 23.1439 29.4C23.1433 29.4 23.1428 29.4 23.1422 29.4C23.1417 29.4 23.1411 29.4 23.1406 29.4C23.14 29.4 23.1395 29.4 23.139 29.4C23.1384 29.4 23.1379 29.4 23.1373 29.4C23.1368 29.4 23.1362 29.4 23.1357 29.4C23.1351 29.4 23.1346 29.4 23.134 29.4C23.1335 29.4 23.1329 29.4 23.1324 29.4C23.1318 29.4 23.1313 29.4 23.1307 29.4C23.1302 29.4 23.1296 29.4 23.1291 29.4C23.1285 29.4 23.128 29.4 23.1274 29.4C23.1269 29.4 23.1263 29.4 23.1258 29.4C23.1252 29.4 23.1246 29.4 23.1241 29.4C23.1235 29.4 23.123 29.4 23.1224 29.4C23.1219 29.4 23.1213 29.4 23.1208 29.4C23.1202 29.4 23.1197 29.4 23.1191 29.4C23.1185 29.4 23.118 29.4 23.1174 29.4C23.1169 29.4 23.1163 29.4 23.1158 29.4C23.1152 29.4 23.1146 29.4 23.1141 29.4C23.1135 29.4 23.113 29.4 23.1124 29.4C23.1119 29.4 23.1113 29.4 23.1107 29.4C23.1102 29.4 23.1096 29.4 23.1091 29.4C23.1085 29.4 23.1079 29.4 23.1074 29.4C23.1068 29.4 23.1062 29.4 23.1057 29.4C23.1051 29.4 23.1046 29.4 23.104 29.4C23.1034 29.4 23.1029 29.4 23.1023 29.4C23.1017 29.4 23.1012 29.4 23.1006 29.4C23.1001 29.4 23.0995 29.4 23.0989 29.4C23.0984 29.4 23.0978 29.4 23.0972 29.4C23.0967 29.4 23.0961 29.4 23.0955 29.4C23.095 29.4 23.0944 29.4 23.0938 29.4C23.0933 29.4 23.0927 29.4 23.0921 29.4C23.0916 29.4 23.091 29.4 23.0904 29.4C23.0899 29.4 23.0893 29.4 23.0887 29.4C23.0882 29.4 23.0876 29.4 23.087 29.4C23.0864 29.4 23.0859 29.4 23.0853 29.4C23.0847 29.4 23.0842 29.4 23.0836 29.4C23.083 29.4 23.0825 29.4 23.0819 29.4C23.0813 29.4 23.0807 29.4 23.0802 29.4C23.0796 29.4 23.079 29.4 23.0784 29.4C23.0779 29.4 23.0773 29.4 23.0767 29.4C23.0761 29.4 23.0756 29.4 23.075 29.4C23.0744 29.4 23.0738 29.4 23.0733 29.4C23.0727 29.4 23.0721 29.4 23.0715 29.4C23.071 29.4 23.0704 29.4 23.0698 29.4C23.0692 29.4 23.0687 29.4 23.0681 29.4C23.0675 29.4 23.0669 29.4 23.0663 29.4C23.0658 29.4 23.0652 29.4 23.0646 29.4C23.064 29.4 23.0634 29.4 23.0629 29.4C23.0623 29.4 23.0617 29.4 23.0611 29.4C23.0605 29.4 23.06 29.4 23.0594 29.4C23.0588 29.4 23.0582 29.4 23.0576 29.4C23.0571 29.4 23.0565 29.4 23.0559 29.4C23.0553 29.4 23.0547 29.4 23.0541 29.4C23.0536 29.4 23.053 29.4 23.0524 29.4C23.0518 29.4 23.0512 29.4 23.0506 29.4C23.05 29.4 23.0495 29.4 23.0489 29.4C23.0483 29.4 23.0477 29.4 23.0471 29.4C23.0465 29.4 23.0459 29.4 23.0454 29.4C23.0448 29.4 23.0442 29.4 23.0436 29.4C23.043 29.4 23.0424 29.4 23.0418 29.4C23.0412 29.4 23.0406 29.4 23.0401 29.4C23.0395 29.4 23.0389 29.4 23.0383 29.4C23.0377 29.4 23.0371 29.4 23.0365 29.4C23.0359 29.4 23.0353 29.4 23.0347 29.4C23.0342 29.4 23.0336 29.4 23.033 29.4C23.0324 29.4 23.0318 29.4 23.0312 29.4C23.0306 29.4 23.03 29.4 23.0294 29.4C23.0288 29.4 23.0282 29.4 23.0276 29.4C23.027 29.4 23.0264 29.4 23.0258 29.4C23.0252 29.4 23.0246 29.4 23.0241 29.4C23.0235 29.4 23.0229 29.4 23.0223 29.4C23.0217 29.4 23.0211 29.4 23.0205 29.4C23.0199 29.4 23.0193 29.4 23.0187 29.4C23.0181 29.4 23.0175 29.4 23.0169 29.4C23.0163 29.4 23.0157 29.4 23.0151 29.4C23.0145 29.4 23.0139 29.4 23.0133 29.4C23.0127 29.4 23.0121 29.4 23.0115 29.4C23.0109 29.4 23.0103 29.4 23.0097 29.4C23.0091 29.4 23.0085 29.4 23.0079 29.4C23.0073 29.4 23.0067 29.4 23.0061 29.4C23.0055 29.4 23.0048 29.4 23.0042 29.4C23.0036 29.4 23.003 29.4 23.0024 29.4C23.0018 29.4 23.0012 29.4 23.0006 29.4C23 29.4 22.9994 29.4 22.9988 29.4C22.9982 29.4 22.9976 29.4 22.997 29.4C22.9964 29.4 22.9958 29.4 22.9952 29.4C22.9945 29.4 22.9939 29.4 22.9933 29.4C22.9927 29.4 22.9921 29.4 22.9915 29.4C22.9909 29.4 22.9903 29.4 22.9897 29.4C22.9891 29.4 22.9885 29.4 22.9878 29.4C22.9872 29.4 22.9866 29.4 22.986 29.4C22.9854 29.4 22.9848 29.4 22.9842 29.4C22.9836 29.4 22.9829 29.4 22.9823 29.4C22.9817 29.4 22.9811 29.4 22.9805 29.4C22.9799 29.4 22.9793 29.4 22.9787 29.4C22.978 29.4 22.9774 29.4 22.9768 29.4C22.9762 29.4 22.9756 29.4 22.975 29.4C22.9743 29.4 22.9737 29.4 22.9731 29.4C22.9725 29.4 22.9719 29.4 22.9713 29.4C22.9706 29.4 22.97 29.4 22.9694 29.4C22.9688 29.4 22.9682 29.4 22.9676 29.4C22.9669 29.4 22.9663 29.4 22.9657 29.4C22.9651 29.4 22.9645 29.4 22.9638 29.4C22.9632 29.4 22.9626 29.4 22.962 29.4C22.9613 29.4 22.9607 29.4 22.9601 29.4C22.9595 29.4 22.9589 29.4 22.9582 29.4C22.9576 29.4 22.957 29.4 22.9564 29.4C22.9557 29.4 22.9551 29.4 22.9545 29.4C22.9539 29.4 22.9533 29.4 22.9526 29.4C22.952 29.4 22.9514 29.4 22.9508 29.4C22.9501 29.4 22.9495 29.4 22.9489 29.4C22.9482 29.4 22.9476 29.4 22.947 29.4C22.9464 29.4 22.9457 29.4 22.9451 29.4C22.9445 29.4 22.9439 29.4 22.9432 29.4C22.9426 29.4 22.942 29.4 22.9413 29.4C22.9407 29.4 22.9401 29.4 22.9395 29.4C22.9388 29.4 22.9382 29.4 22.9376 29.4C22.9369 29.4 22.9363 29.4 22.9357 29.4C22.935 29.4 22.9344 29.4 22.9338 29.4C22.9331 29.4 22.9325 29.4 22.9319 29.4C22.9312 29.4 22.9306 29.4 22.93 29.4C22.9293 29.4 22.9287 29.4 22.9281 29.4C22.9274 29.4 22.9268 29.4 22.9262 29.4C22.9255 29.4 22.9249 29.4 22.9243 29.4C22.9236 29.4 22.923 29.4 22.9224 29.4C22.9217 29.4 22.9211 29.4 22.9204 29.4C22.9198 29.4 22.9192 29.4 22.9185 29.4C22.9179 29.4 22.9173 29.4 22.9166 29.4C22.916 29.4 22.9153 29.4 22.9147 29.4C22.9141 29.4 22.9134 29.4 22.9128 29.4C22.9121 29.4 22.9115 29.4 22.9109 29.4C22.9102 29.4 22.9096 29.4 22.9089 29.4C22.9083 29.4 22.9077 29.4 22.907 29.4C22.9064 29.4 22.9057 29.4 22.9051 29.4C22.9044 29.4 22.9038 29.4 22.9032 29.4C22.9025 29.4 22.9019 29.4 22.9012 29.4C22.9006 29.4 22.8999 29.4 22.8993 29.4C22.8986 29.4 22.898 29.4 22.8973 29.4C22.8967 29.4 22.8961 29.4 22.8954 29.4C22.8948 29.4 22.8941 29.4 22.8935 29.4C22.8928 29.4 22.8922 29.4 22.8915 29.4C22.8909 29.4 22.8902 29.4 22.8896 29.4C22.8889 29.4 22.8883 29.4 22.8876 29.4C22.887 29.4 22.8863 29.4 22.8857 29.4C22.885 29.4 22.8844 29.4 22.8837 29.4C22.8831 29.4 22.8824 29.4 22.8818 29.4C22.8811 29.4 22.8805 29.4 22.8798 29.4C22.8792 29.4 22.8785 29.4 22.8779 29.4C22.8772 29.4 22.8766 29.4 22.8759 29.4C22.8752 29.4 22.8746 29.4 22.8739 29.4C22.8733 29.4 22.8726 29.4 22.872 29.4C22.8713 29.4 22.8707 29.4 22.87 29.4C22.8693 29.4 22.8687 29.4 22.868 29.4C22.8674 29.4 22.8667 29.4 22.8661 29.4C22.8654 29.4 22.8647 29.4 22.8641 29.4C22.8634 29.4 22.8628 29.4 22.8621 29.4C22.8615 29.4 22.8608 29.4 22.8601 29.4C22.8595 29.4 22.8588 29.4 22.8581 29.4C22.8575 29.4 22.8568 29.4 22.8562 29.4C22.8555 29.4 22.8548 29.4 22.8542 29.4C22.8535 29.4 22.8529 29.4 22.8522 29.4C22.8515 29.4 22.8509 29.4 22.8502 29.4C22.8495 29.4 22.8489 29.4 22.8482 29.4C22.8475 29.4 22.8469 29.4 22.8462 29.4C22.8456 29.4 22.8449 29.4 22.8442 29.4C22.8436 29.4 22.8429 29.4 22.8422 29.4C22.8416 29.4 22.8409 29.4 22.8402 29.4C22.8396 29.4 22.8389 29.4 22.8382 29.4C22.8376 29.4 22.8369 29.4 22.8362 29.4C22.8355 29.4 22.8349 29.4 22.8342 29.4C22.8335 29.4 22.8329 29.4 22.8322 29.4C22.8315 29.4 22.8309 29.4 22.8302 29.4C22.8295 29.4 22.8288 29.4 22.8282 29.4C22.8275 29.4 22.8268 29.4 22.8262 29.4C22.8255 29.4 22.8248 29.4 22.8241 29.4C22.8235 29.4 22.8228 29.4 22.8221 29.4C22.8214 29.4 22.8208 29.4 22.8201 29.4C22.8194 29.4 22.8187 29.4 22.8181 29.4C22.8174 29.4 22.8167 29.4 22.816 29.4C22.8154 29.4 22.8147 29.4 22.814 29.4C22.8133 29.4 22.8127 29.4 22.812 29.4C22.8113 29.4 22.8106 29.4 22.8099 29.4C22.8093 29.4 22.8086 29.4 22.8079 29.4C22.8072 29.4 22.8066 29.4 22.8059 29.4C22.8052 29.4 22.8045 29.4 22.8038 29.4C22.8032 29.4 22.8025 29.4 22.8018 29.4C22.8011 29.4 22.8004 29.4 22.7997 29.4C22.7991 29.4 22.7984 29.4 22.7977 29.4C22.797 29.4 22.7963 29.4 22.7957 29.4C22.795 29.4 22.7943 29.4 22.7936 29.4C22.7929 29.4 22.7922 29.4 22.7915 29.4C22.7909 29.4 22.7902 29.4 22.7895 29.4C22.7888 29.4 22.7881 29.4 22.7874 29.4C22.7867 29.4 22.7861 29.4 22.7854 29.4C22.7847 29.4 22.784 29.4 22.7833 29.4C22.7826 29.4 22.7819 29.4 22.7812 29.4C22.7806 29.4 22.7799 29.4 22.7792 29.4C22.7785 29.4 22.7778 29.4 22.7771 29.4C22.7764 29.4 22.7757 29.4 22.775 29.4C22.7744 29.4 22.7737 29.4 22.773 29.4C22.7723 29.4 22.7716 29.4 22.7709 29.4C22.7702 29.4 22.7695 29.4 22.7688 29.4C22.7681 29.4 22.7674 29.4 22.7667 29.4C22.766 29.4 22.7654 29.4 22.7647 29.4C22.764 29.4 22.7633 29.4 22.7626 29.4C22.7619 29.4 22.7612 29.4 22.7605 29.4C22.7598 29.4 22.7591 29.4 22.7584 29.4C22.7577 29.4 22.757 29.4 22.7563 29.4C22.7556 29.4 22.7549 29.4 22.7542 29.4C22.7535 29.4 22.7528 29.4 22.7521 29.4C22.7514 29.4 22.7507 29.4 22.75 29.4C22.7493 29.4 22.7486 29.4 22.7479 29.4C22.7472 29.4 22.7465 29.4 22.7458 29.4C22.7451 29.4 22.7444 29.4 22.7437 29.4C22.743 29.4 22.7423 29.4 22.7416 29.4C22.7409 29.4 22.7402 29.4 22.7395 29.4C22.7388 29.4 22.7381 29.4 22.7374 29.4C22.7367 29.4 22.736 29.4 22.7353 29.4C22.7346 29.4 22.7339 29.4 22.7332 29.4C22.7325 29.4 22.7318 29.4 22.731 29.4C22.7303 29.4 22.7296 29.4 22.7289 29.4C22.7282 29.4 22.7275 29.4 22.7268 29.4C22.7261 29.4 22.7254 29.4 22.7247 29.4C22.724 29.4 22.7233 29.4 22.7226 29.4C22.7218 29.4 22.7211 29.4 22.7204 29.4C22.7197 29.4 22.719 29.4 22.7183 29.4C22.7176 29.4 22.7169 29.4 22.7162 29.4C22.7155 29.4 22.7147 29.4 22.714 29.4C22.7133 29.4 22.7126 29.4 22.7119 29.4C22.7112 29.4 22.7105 29.4 22.7098 29.4C22.709 29.4 22.7083 29.4 22.7076 29.4C22.7069 29.4 22.7062 29.4 22.7055 29.4C22.7048 29.4 22.704 29.4 22.7033 29.4C22.7026 29.4 22.7019 29.4 22.7012 29.4C22.7005 29.4 22.6997 29.4 22.699 29.4C22.6983 29.4 22.6976 29.4 22.6969 29.4C22.6962 29.4 22.6954 29.4 22.6947 29.4C22.694 29.4 22.6933 29.4 22.6926 29.4C22.6918 29.4 22.6911 29.4 22.6904 29.4C22.6897 29.4 22.689 29.4 22.6882 29.4C22.6875 29.4 22.6868 29.4 22.6861 29.4C22.6854 29.4 22.6846 29.4 22.6839 29.4C22.6832 29.4 22.6825 29.4 22.6817 29.4C22.681 29.4 22.6803 29.4 22.6796 29.4C22.6789 29.4 22.6781 29.4 22.6774 29.4C22.6767 29.4 22.676 29.4 22.6752 29.4C22.6745 29.4 22.6738 29.4 22.6731 29.4C22.6723 29.4 22.6716 29.4 22.6709 29.4C22.6701 29.4 22.6694 29.4 22.6687 29.4C22.668 29.4 22.6672 29.4 22.6665 29.4C22.6658 29.4 22.6651 29.4 22.6643 29.4C22.6636 29.4 22.6629 29.4 22.6621 29.4C22.6614 29.4 22.6607 29.4 22.66 29.4C22.6592 29.4 22.6585 29.4 22.6578 29.4C22.657 29.4 22.6563 29.4 22.6556 29.4C22.6548 29.4 22.6541 29.4 22.6534 29.4C22.6526 29.4 22.6519 29.4 22.6512 29.4C22.6504 29.4 22.6497 29.4 22.649 29.4C22.6482 29.4 22.6475 29.4 22.6468 29.4C22.646 29.4 22.6453 29.4 22.6446 29.4C22.6438 29.4 22.6431 29.4 22.6424 29.4C22.6416 29.4 22.6409 29.4 22.6401 29.4C22.6394 29.4 22.6387 29.4 22.6379 29.4C22.6372 29.4 22.6365 29.4 22.6357 29.4C22.635 29.4 22.6342 29.4 22.6335 29.4C22.6328 29.4 22.632 29.4 22.6313 29.4C22.6305 29.4 22.6298 29.4 22.6291 29.4C22.6283 29.4 22.6276 29.4 22.6268 29.4C22.6261 29.4 22.6254 29.4 22.6246 29.4C22.6239 29.4 22.6231 29.4 22.6224 29.4C22.6216 29.4 22.6209 29.4 22.6202 29.4C22.6194 29.4 22.6187 29.4 22.6179 29.4C22.6172 29.4 22.6164 29.4 22.6157 29.4C22.615 29.4 22.6142 29.4 22.6135 29.4C22.6127 29.4 22.612 29.4 22.6112 29.4C22.6105 29.4 22.6097 29.4 22.609 29.4C22.6082 29.4 22.6075 29.4 22.6067 29.4C22.606 29.4 22.6052 29.4 22.6045 29.4C22.6037 29.4 22.603 29.4 22.6022 29.4C22.6015 29.4 22.6007 29.4 22.6 29.4V35.4C22.6007 35.4 22.6015 35.4 22.6022 35.4C22.603 35.4 22.6037 35.4 22.6045 35.4C22.6052 35.4 22.606 35.4 22.6067 35.4C22.6075 35.4 22.6082 35.4 22.609 35.4C22.6097 35.4 22.6105 35.4 22.6112 35.4C22.612 35.4 22.6127 35.4 22.6135 35.4C22.6142 35.4 22.615 35.4 22.6157 35.4C22.6164 35.4 22.6172 35.4 22.6179 35.4C22.6187 35.4 22.6194 35.4 22.6202 35.4C22.6209 35.4 22.6216 35.4 22.6224 35.4C22.6231 35.4 22.6239 35.4 22.6246 35.4C22.6254 35.4 22.6261 35.4 22.6268 35.4C22.6276 35.4 22.6283 35.4 22.6291 35.4C22.6298 35.4 22.6305 35.4 22.6313 35.4C22.632 35.4 22.6328 35.4 22.6335 35.4C22.6342 35.4 22.635 35.4 22.6357 35.4C22.6365 35.4 22.6372 35.4 22.6379 35.4C22.6387 35.4 22.6394 35.4 22.6401 35.4C22.6409 35.4 22.6416 35.4 22.6424 35.4C22.6431 35.4 22.6438 35.4 22.6446 35.4C22.6453 35.4 22.646 35.4 22.6468 35.4C22.6475 35.4 22.6482 35.4 22.649 35.4C22.6497 35.4 22.6504 35.4 22.6512 35.4C22.6519 35.4 22.6526 35.4 22.6534 35.4C22.6541 35.4 22.6548 35.4 22.6556 35.4C22.6563 35.4 22.657 35.4 22.6578 35.4C22.6585 35.4 22.6592 35.4 22.66 35.4C22.6607 35.4 22.6614 35.4 22.6621 35.4C22.6629 35.4 22.6636 35.4 22.6643 35.4C22.6651 35.4 22.6658 35.4 22.6665 35.4C22.6672 35.4 22.668 35.4 22.6687 35.4C22.6694 35.4 22.6701 35.4 22.6709 35.4C22.6716 35.4 22.6723 35.4 22.6731 35.4C22.6738 35.4 22.6745 35.4 22.6752 35.4C22.676 35.4 22.6767 35.4 22.6774 35.4C22.6781 35.4 22.6789 35.4 22.6796 35.4C22.6803 35.4 22.681 35.4 22.6817 35.4C22.6825 35.4 22.6832 35.4 22.6839 35.4C22.6846 35.4 22.6854 35.4 22.6861 35.4C22.6868 35.4 22.6875 35.4 22.6882 35.4C22.689 35.4 22.6897 35.4 22.6904 35.4C22.6911 35.4 22.6918 35.4 22.6926 35.4C22.6933 35.4 22.694 35.4 22.6947 35.4C22.6954 35.4 22.6962 35.4 22.6969 35.4C22.6976 35.4 22.6983 35.4 22.699 35.4C22.6997 35.4 22.7005 35.4 22.7012 35.4C22.7019 35.4 22.7026 35.4 22.7033 35.4C22.704 35.4 22.7048 35.4 22.7055 35.4C22.7062 35.4 22.7069 35.4 22.7076 35.4C22.7083 35.4 22.709 35.4 22.7098 35.4C22.7105 35.4 22.7112 35.4 22.7119 35.4C22.7126 35.4 22.7133 35.4 22.714 35.4C22.7147 35.4 22.7155 35.4 22.7162 35.4C22.7169 35.4 22.7176 35.4 22.7183 35.4C22.719 35.4 22.7197 35.4 22.7204 35.4C22.7211 35.4 22.7218 35.4 22.7226 35.4C22.7233 35.4 22.724 35.4 22.7247 35.4C22.7254 35.4 22.7261 35.4 22.7268 35.4C22.7275 35.4 22.7282 35.4 22.7289 35.4C22.7296 35.4 22.7303 35.4 22.731 35.4C22.7318 35.4 22.7325 35.4 22.7332 35.4C22.7339 35.4 22.7346 35.4 22.7353 35.4C22.736 35.4 22.7367 35.4 22.7374 35.4C22.7381 35.4 22.7388 35.4 22.7395 35.4C22.7402 35.4 22.7409 35.4 22.7416 35.4C22.7423 35.4 22.743 35.4 22.7437 35.4C22.7444 35.4 22.7451 35.4 22.7458 35.4C22.7465 35.4 22.7472 35.4 22.7479 35.4C22.7486 35.4 22.7493 35.4 22.75 35.4C22.7507 35.4 22.7514 35.4 22.7521 35.4C22.7528 35.4 22.7535 35.4 22.7542 35.4C22.7549 35.4 22.7556 35.4 22.7563 35.4C22.757 35.4 22.7577 35.4 22.7584 35.4C22.7591 35.4 22.7598 35.4 22.7605 35.4C22.7612 35.4 22.7619 35.4 22.7626 35.4C22.7633 35.4 22.764 35.4 22.7647 35.4C22.7654 35.4 22.766 35.4 22.7667 35.4C22.7674 35.4 22.7681 35.4 22.7688 35.4C22.7695 35.4 22.7702 35.4 22.7709 35.4C22.7716 35.4 22.7723 35.4 22.773 35.4C22.7737 35.4 22.7744 35.4 22.775 35.4C22.7757 35.4 22.7764 35.4 22.7771 35.4C22.7778 35.4 22.7785 35.4 22.7792 35.4C22.7799 35.4 22.7806 35.4 22.7812 35.4C22.7819 35.4 22.7826 35.4 22.7833 35.4C22.784 35.4 22.7847 35.4 22.7854 35.4C22.7861 35.4 22.7867 35.4 22.7874 35.4C22.7881 35.4 22.7888 35.4 22.7895 35.4C22.7902 35.4 22.7909 35.4 22.7915 35.4C22.7922 35.4 22.7929 35.4 22.7936 35.4C22.7943 35.4 22.795 35.4 22.7957 35.4C22.7963 35.4 22.797 35.4 22.7977 35.4C22.7984 35.4 22.7991 35.4 22.7997 35.4C22.8004 35.4 22.8011 35.4 22.8018 35.4C22.8025 35.4 22.8032 35.4 22.8038 35.4C22.8045 35.4 22.8052 35.4 22.8059 35.4C22.8066 35.4 22.8072 35.4 22.8079 35.4C22.8086 35.4 22.8093 35.4 22.8099 35.4C22.8106 35.4 22.8113 35.4 22.812 35.4C22.8127 35.4 22.8133 35.4 22.814 35.4C22.8147 35.4 22.8154 35.4 22.816 35.4C22.8167 35.4 22.8174 35.4 22.8181 35.4C22.8187 35.4 22.8194 35.4 22.8201 35.4C22.8208 35.4 22.8214 35.4 22.8221 35.4C22.8228 35.4 22.8235 35.4 22.8241 35.4C22.8248 35.4 22.8255 35.4 22.8262 35.4C22.8268 35.4 22.8275 35.4 22.8282 35.4C22.8288 35.4 22.8295 35.4 22.8302 35.4C22.8309 35.4 22.8315 35.4 22.8322 35.4C22.8329 35.4 22.8335 35.4 22.8342 35.4C22.8349 35.4 22.8355 35.4 22.8362 35.4C22.8369 35.4 22.8376 35.4 22.8382 35.4C22.8389 35.4 22.8396 35.4 22.8402 35.4C22.8409 35.4 22.8416 35.4 22.8422 35.4C22.8429 35.4 22.8436 35.4 22.8442 35.4C22.8449 35.4 22.8456 35.4 22.8462 35.4C22.8469 35.4 22.8475 35.4 22.8482 35.4C22.8489 35.4 22.8495 35.4 22.8502 35.4C22.8509 35.4 22.8515 35.4 22.8522 35.4C22.8529 35.4 22.8535 35.4 22.8542 35.4C22.8548 35.4 22.8555 35.4 22.8562 35.4C22.8568 35.4 22.8575 35.4 22.8581 35.4C22.8588 35.4 22.8595 35.4 22.8601 35.4C22.8608 35.4 22.8615 35.4 22.8621 35.4C22.8628 35.4 22.8634 35.4 22.8641 35.4C22.8647 35.4 22.8654 35.4 22.8661 35.4C22.8667 35.4 22.8674 35.4 22.868 35.4C22.8687 35.4 22.8693 35.4 22.87 35.4C22.8707 35.4 22.8713 35.4 22.872 35.4C22.8726 35.4 22.8733 35.4 22.8739 35.4C22.8746 35.4 22.8752 35.4 22.8759 35.4C22.8766 35.4 22.8772 35.4 22.8779 35.4C22.8785 35.4 22.8792 35.4 22.8798 35.4C22.8805 35.4 22.8811 35.4 22.8818 35.4C22.8824 35.4 22.8831 35.4 22.8837 35.4C22.8844 35.4 22.885 35.4 22.8857 35.4C22.8863 35.4 22.887 35.4 22.8876 35.4C22.8883 35.4 22.8889 35.4 22.8896 35.4C22.8902 35.4 22.8909 35.4 22.8915 35.4C22.8922 35.4 22.8928 35.4 22.8935 35.4C22.8941 35.4 22.8948 35.4 22.8954 35.4C22.8961 35.4 22.8967 35.4 22.8973 35.4C22.898 35.4 22.8986 35.4 22.8993 35.4C22.8999 35.4 22.9006 35.4 22.9012 35.4C22.9019 35.4 22.9025 35.4 22.9032 35.4C22.9038 35.4 22.9044 35.4 22.9051 35.4C22.9057 35.4 22.9064 35.4 22.907 35.4C22.9077 35.4 22.9083 35.4 22.9089 35.4C22.9096 35.4 22.9102 35.4 22.9109 35.4C22.9115 35.4 22.9121 35.4 22.9128 35.4C22.9134 35.4 22.9141 35.4 22.9147 35.4C22.9153 35.4 22.916 35.4 22.9166 35.4C22.9173 35.4 22.9179 35.4 22.9185 35.4C22.9192 35.4 22.9198 35.4 22.9204 35.4C22.9211 35.4 22.9217 35.4 22.9224 35.4C22.923 35.4 22.9236 35.4 22.9243 35.4C22.9249 35.4 22.9255 35.4 22.9262 35.4C22.9268 35.4 22.9274 35.4 22.9281 35.4C22.9287 35.4 22.9293 35.4 22.93 35.4C22.9306 35.4 22.9312 35.4 22.9319 35.4C22.9325 35.4 22.9331 35.4 22.9338 35.4C22.9344 35.4 22.935 35.4 22.9357 35.4C22.9363 35.4 22.9369 35.4 22.9376 35.4C22.9382 35.4 22.9388 35.4 22.9395 35.4C22.9401 35.4 22.9407 35.4 22.9413 35.4C22.942 35.4 22.9426 35.4 22.9432 35.4C22.9439 35.4 22.9445 35.4 22.9451 35.4C22.9457 35.4 22.9464 35.4 22.947 35.4C22.9476 35.4 22.9482 35.4 22.9489 35.4C22.9495 35.4 22.9501 35.4 22.9508 35.4C22.9514 35.4 22.952 35.4 22.9526 35.4C22.9533 35.4 22.9539 35.4 22.9545 35.4C22.9551 35.4 22.9557 35.4 22.9564 35.4C22.957 35.4 22.9576 35.4 22.9582 35.4C22.9589 35.4 22.9595 35.4 22.9601 35.4C22.9607 35.4 22.9613 35.4 22.962 35.4C22.9626 35.4 22.9632 35.4 22.9638 35.4C22.9645 35.4 22.9651 35.4 22.9657 35.4C22.9663 35.4 22.9669 35.4 22.9676 35.4C22.9682 35.4 22.9688 35.4 22.9694 35.4C22.97 35.4 22.9706 35.4 22.9713 35.4C22.9719 35.4 22.9725 35.4 22.9731 35.4C22.9737 35.4 22.9743 35.4 22.975 35.4C22.9756 35.4 22.9762 35.4 22.9768 35.4C22.9774 35.4 22.978 35.4 22.9787 35.4C22.9793 35.4 22.9799 35.4 22.9805 35.4C22.9811 35.4 22.9817 35.4 22.9823 35.4C22.9829 35.4 22.9836 35.4 22.9842 35.4C22.9848 35.4 22.9854 35.4 22.986 35.4C22.9866 35.4 22.9872 35.4 22.9878 35.4C22.9885 35.4 22.9891 35.4 22.9897 35.4C22.9903 35.4 22.9909 35.4 22.9915 35.4C22.9921 35.4 22.9927 35.4 22.9933 35.4C22.9939 35.4 22.9945 35.4 22.9952 35.4C22.9958 35.4 22.9964 35.4 22.997 35.4C22.9976 35.4 22.9982 35.4 22.9988 35.4C22.9994 35.4 23 35.4 23.0006 35.4C23.0012 35.4 23.0018 35.4 23.0024 35.4C23.003 35.4 23.0036 35.4 23.0042 35.4C23.0048 35.4 23.0055 35.4 23.0061 35.4C23.0067 35.4 23.0073 35.4 23.0079 35.4C23.0085 35.4 23.0091 35.4 23.0097 35.4C23.0103 35.4 23.0109 35.4 23.0115 35.4C23.0121 35.4 23.0127 35.4 23.0133 35.4C23.0139 35.4 23.0145 35.4 23.0151 35.4C23.0157 35.4 23.0163 35.4 23.0169 35.4C23.0175 35.4 23.0181 35.4 23.0187 35.4C23.0193 35.4 23.0199 35.4 23.0205 35.4C23.0211 35.4 23.0217 35.4 23.0223 35.4C23.0229 35.4 23.0235 35.4 23.0241 35.4C23.0246 35.4 23.0252 35.4 23.0258 35.4C23.0264 35.4 23.027 35.4 23.0276 35.4C23.0282 35.4 23.0288 35.4 23.0294 35.4C23.03 35.4 23.0306 35.4 23.0312 35.4C23.0318 35.4 23.0324 35.4 23.033 35.4C23.0336 35.4 23.0342 35.4 23.0347 35.4C23.0353 35.4 23.0359 35.4 23.0365 35.4C23.0371 35.4 23.0377 35.4 23.0383 35.4C23.0389 35.4 23.0395 35.4 23.0401 35.4C23.0406 35.4 23.0412 35.4 23.0418 35.4C23.0424 35.4 23.043 35.4 23.0436 35.4C23.0442 35.4 23.0448 35.4 23.0454 35.4C23.0459 35.4 23.0465 35.4 23.0471 35.4C23.0477 35.4 23.0483 35.4 23.0489 35.4C23.0495 35.4 23.05 35.4 23.0506 35.4C23.0512 35.4 23.0518 35.4 23.0524 35.4C23.053 35.4 23.0536 35.4 23.0541 35.4C23.0547 35.4 23.0553 35.4 23.0559 35.4C23.0565 35.4 23.0571 35.4 23.0576 35.4C23.0582 35.4 23.0588 35.4 23.0594 35.4C23.06 35.4 23.0605 35.4 23.0611 35.4C23.0617 35.4 23.0623 35.4 23.0629 35.4C23.0634 35.4 23.064 35.4 23.0646 35.4C23.0652 35.4 23.0658 35.4 23.0663 35.4C23.0669 35.4 23.0675 35.4 23.0681 35.4C23.0687 35.4 23.0692 35.4 23.0698 35.4C23.0704 35.4 23.071 35.4 23.0715 35.4C23.0721 35.4 23.0727 35.4 23.0733 35.4C23.0738 35.4 23.0744 35.4 23.075 35.4C23.0756 35.4 23.0761 35.4 23.0767 35.4C23.0773 35.4 23.0779 35.4 23.0784 35.4C23.079 35.4 23.0796 35.4 23.0802 35.4C23.0807 35.4 23.0813 35.4 23.0819 35.4C23.0825 35.4 23.083 35.4 23.0836 35.4C23.0842 35.4 23.0847 35.4 23.0853 35.4C23.0859 35.4 23.0864 35.4 23.087 35.4C23.0876 35.4 23.0882 35.4 23.0887 35.4C23.0893 35.4 23.0899 35.4 23.0904 35.4C23.091 35.4 23.0916 35.4 23.0921 35.4C23.0927 35.4 23.0933 35.4 23.0938 35.4C23.0944 35.4 23.095 35.4 23.0955 35.4C23.0961 35.4 23.0967 35.4 23.0972 35.4C23.0978 35.4 23.0984 35.4 23.0989 35.4C23.0995 35.4 23.1001 35.4 23.1006 35.4C23.1012 35.4 23.1017 35.4 23.1023 35.4C23.1029 35.4 23.1034 35.4 23.104 35.4C23.1046 35.4 23.1051 35.4 23.1057 35.4C23.1062 35.4 23.1068 35.4 23.1074 35.4C23.1079 35.4 23.1085 35.4 23.1091 35.4C23.1096 35.4 23.1102 35.4 23.1107 35.4C23.1113 35.4 23.1119 35.4 23.1124 35.4C23.113 35.4 23.1135 35.4 23.1141 35.4C23.1146 35.4 23.1152 35.4 23.1158 35.4C23.1163 35.4 23.1169 35.4 23.1174 35.4C23.118 35.4 23.1185 35.4 23.1191 35.4C23.1197 35.4 23.1202 35.4 23.1208 35.4C23.1213 35.4 23.1219 35.4 23.1224 35.4C23.123 35.4 23.1235 35.4 23.1241 35.4C23.1246 35.4 23.1252 35.4 23.1258 35.4C23.1263 35.4 23.1269 35.4 23.1274 35.4C23.128 35.4 23.1285 35.4 23.1291 35.4C23.1296 35.4 23.1302 35.4 23.1307 35.4C23.1313 35.4 23.1318 35.4 23.1324 35.4C23.1329 35.4 23.1335 35.4 23.134 35.4C23.1346 35.4 23.1351 35.4 23.1357 35.4C23.1362 35.4 23.1368 35.4 23.1373 35.4C23.1379 35.4 23.1384 35.4 23.139 35.4C23.1395 35.4 23.14 35.4 23.1406 35.4C23.1411 35.4 23.1417 35.4 23.1422 35.4C23.1428 35.4 23.1433 35.4 23.1439 35.4C23.1444 35.4 23.145 35.4 23.1455 35.4C23.146 35.4 23.1466 35.4 23.1471 35.4C23.1477 35.4 23.1482 35.4 23.1488 35.4C23.1493 35.4 23.1498 35.4 23.1504 35.4C23.1509 35.4 23.1515 35.4 23.152 35.4C23.1526 35.4 23.1531 35.4 23.1536 35.4C23.1542 35.4 23.1547 35.4 23.1553 35.4C23.1558 35.4 23.1563 35.4 23.1569 35.4C23.1574 35.4 23.158 35.4 23.1585 35.4C23.159 35.4 23.1596 35.4 23.1601 35.4C23.1606 35.4 23.1612 35.4 23.1617 35.4C23.1623 35.4 23.1628 35.4 23.1633 35.4C23.1639 35.4 23.1644 35.4 23.1649 35.4C23.1655 35.4 23.166 35.4 23.1665 35.4C23.1671 35.4 23.1676 35.4 23.1681 35.4C23.1687 35.4 23.1692 35.4 23.1697 35.4C23.1703 35.4 23.1708 35.4 23.1713 35.4C23.1719 35.4 23.1724 35.4 23.1729 35.4C23.1735 35.4 23.174 35.4 23.1745 35.4C23.1751 35.4 23.1756 35.4 23.1761 35.4C23.1767 35.4 23.1772 35.4 23.1777 35.4C23.1782 35.4 23.1788 35.4 23.1793 35.4C23.1798 35.4 23.1804 35.4 23.1809 35.4C23.1814 35.4 23.1819 35.4 23.1825 35.4C23.183 35.4 23.1835 35.4 23.1841 35.4C23.1846 35.4 23.1851 35.4 23.1856 35.4C23.1862 35.4 23.1867 35.4 23.1872 35.4C23.1877 35.4 23.1883 35.4 23.1888 35.4C23.1893 35.4 23.1898 35.4 23.1904 35.4C23.1909 35.4 23.1914 35.4 23.1919 35.4C23.1924 35.4 23.193 35.4 23.1935 35.4C23.194 35.4 23.1945 35.4 23.1951 35.4C23.1956 35.4 23.1961 35.4 23.1966 35.4C23.1971 35.4 23.1977 35.4 23.1982 35.4C23.1987 35.4 23.1992 35.4 23.1997 35.4C23.2003 35.4 23.2008 35.4 23.2013 35.4C23.2018 35.4 23.2023 35.4 23.2029 35.4C23.2034 35.4 23.2039 35.4 23.2044 35.4C23.2049 35.4 23.2054 35.4 23.206 35.4C23.2065 35.4 23.207 35.4 23.2075 35.4C23.208 35.4 23.2085 35.4 23.209 35.4C23.2096 35.4 23.2101 35.4 23.2106 35.4C23.2111 35.4 23.2116 35.4 23.2121 35.4C23.2126 35.4 23.2132 35.4 23.2137 35.4C23.2142 35.4 23.2147 35.4 23.2152 35.4C23.2157 35.4 23.2162 35.4 23.2167 35.4C23.2173 35.4 23.2178 35.4 23.2183 35.4C23.2188 35.4 23.2193 35.4 23.2198 35.4C23.2203 35.4 23.2208 35.4 23.2213 35.4C23.2218 35.4 23.2224 35.4 23.2229 35.4C23.2234 35.4 23.2239 35.4 23.2244 35.4C23.2249 35.4 23.2254 35.4 23.2259 35.4C23.2264 35.4 23.2269 35.4 23.2274 35.4C23.2279 35.4 23.2284 35.4 23.2289 35.4C23.2294 35.4 23.23 35.4 23.2305 35.4C23.231 35.4 23.2315 35.4 23.232 35.4C23.2325 35.4 23.233 35.4 23.2335 35.4C23.234 35.4 23.2345 35.4 23.235 35.4C23.2355 35.4 23.236 35.4 23.2365 35.4C23.237 35.4 23.2375 35.4 23.238 35.4C23.2385 35.4 23.239 35.4 23.2395 35.4C23.24 35.4 23.2405 35.4 23.241 35.4C23.2415 35.4 23.242 35.4 23.2425 35.4C23.243 35.4 23.2435 35.4 23.244 35.4C23.2445 35.4 23.245 35.4 23.2455 35.4C23.246 35.4 23.2465 35.4 23.247 35.4C23.2475 35.4 23.248 35.4 23.2485 35.4C23.249 35.4 23.2495 35.4 23.25 35.4C23.2504 35.4 23.2509 35.4 23.2514 35.4C23.2519 35.4 23.2524 35.4 23.2529 35.4C23.2534 35.4 23.2539 35.4 23.2544 35.4C23.2549 35.4 23.2554 35.4 23.2559 35.4C23.2564 35.4 23.2569 35.4 23.2574 35.4C23.2578 35.4 23.2583 35.4 23.2588 35.4C23.2593 35.4 23.2598 35.4 23.2603 35.4C23.2608 35.4 23.2613 35.4 23.2618 35.4C23.2623 35.4 23.2627 35.4 23.2632 35.4C23.2637 35.4 23.2642 35.4 23.2647 35.4C23.2652 35.4 23.2657 35.4 23.2662 35.4C23.2666 35.4 23.2671 35.4 23.2676 35.4C23.2681 35.4 23.2686 35.4 23.2691 35.4C23.2696 35.4 23.27 35.4 23.2705 35.4C23.271 35.4 23.2715 35.4 23.272 35.4C23.2725 35.4 23.273 35.4 23.2734 35.4C23.2739 35.4 23.2744 35.4 23.2749 35.4C23.2754 35.4 23.2759 35.4 23.2763 35.4C23.2768 35.4 23.2773 35.4 23.2778 35.4C23.2783 35.4 23.2787 35.4 23.2792 35.4C23.2797 35.4 23.2802 35.4 23.2807 35.4C23.2811 35.4 23.2816 35.4 23.2821 35.4C23.2826 35.4 23.2831 35.4 23.2835 35.4C23.284 35.4 23.2845 35.4 23.285 35.4C23.2854 35.4 23.2859 35.4 23.2864 35.4C23.2869 35.4 23.2874 35.4 23.2878 35.4C23.2883 35.4 23.2888 35.4 23.2893 35.4C23.2897 35.4 23.2902 35.4 23.2907 35.4C23.2912 35.4 23.2916 35.4 23.2921 35.4C23.2926 35.4 23.2931 35.4 23.2935 35.4C23.294 35.4 23.2945 35.4 23.2949 35.4C23.2954 35.4 23.2959 35.4 23.2964 35.4C23.2968 35.4 23.2973 35.4 23.2978 35.4C23.2982 35.4 23.2987 35.4 23.2992 35.4C23.2997 35.4 23.3001 35.4 23.3006 35.4C23.3011 35.4 23.3015 35.4 23.302 35.4C23.3025 35.4 23.3029 35.4 23.3034 35.4C23.3039 35.4 23.3043 35.4 23.3048 35.4C23.3053 35.4 23.3057 35.4 23.3062 35.4C23.3067 35.4 23.3071 35.4 23.3076 35.4C23.3081 35.4 23.3085 35.4 23.309 35.4C23.3095 35.4 23.3099 35.4 23.3104 35.4C23.3109 35.4 23.3113 35.4 23.3118 35.4C23.3123 35.4 23.3127 35.4 23.3132 35.4C23.3136 35.4 23.3141 35.4 23.3146 35.4C23.315 35.4 23.3155 35.4 23.316 35.4C23.3164 35.4 23.3169 35.4 23.3173 35.4C23.3178 35.4 23.3183 35.4 23.3187 35.4C23.3192 35.4 23.3196 35.4 23.3201 35.4C23.3206 35.4 23.321 35.4 23.3215 35.4C23.3219 35.4 23.3224 35.4 23.3228 35.4C23.3233 35.4 23.3238 35.4 23.3242 35.4C23.3247 35.4 23.3251 35.4 23.3256 35.4C23.326 35.4 23.3265 35.4 23.327 35.4C23.3274 35.4 23.3279 35.4 23.3283 35.4C23.3288 35.4 23.3292 35.4 23.3297 35.4C23.3301 35.4 23.3306 35.4 23.331 35.4C23.3315 35.4 23.332 35.4 23.3324 35.4C23.3329 35.4 23.3333 35.4 23.3338 35.4C23.3342 35.4 23.3347 35.4 23.3351 35.4C23.3356 35.4 23.336 35.4 23.3365 35.4C23.3369 35.4 23.3374 35.4 23.3378 35.4C23.3383 35.4 23.3387 35.4 23.3392 35.4C23.3396 35.4 23.3401 35.4 23.3405 35.4C23.341 35.4 23.3414 35.4 23.3419 35.4C23.3423 35.4 23.3428 35.4 23.3432 35.4C23.3436 35.4 23.3441 35.4 23.3445 35.4C23.345 35.4 23.3454 35.4 23.3459 35.4C23.3463 35.4 23.3468 35.4 23.3472 35.4C23.3477 35.4 23.3481 35.4 23.3485 35.4C23.349 35.4 23.3494 35.4 23.3499 35.4C23.3503 35.4 23.3508 35.4 23.3512 35.4C23.3516 35.4 23.3521 35.4 23.3525 35.4C23.353 35.4 23.3534 35.4 23.3539 35.4C23.3543 35.4 23.3547 35.4 23.3552 35.4C23.3556 35.4 23.3561 35.4 23.3565 35.4C23.3569 35.4 23.3574 35.4 23.3578 35.4C23.3582 35.4 23.3587 35.4 23.3591 35.4C23.3596 35.4 23.36 35.4 23.3604 35.4C23.3609 35.4 23.3613 35.4 23.3617 35.4C23.3622 35.4 23.3626 35.4 23.3631 35.4C23.3635 35.4 23.3639 35.4 23.3644 35.4C23.3648 35.4 23.3652 35.4 23.3657 35.4C23.3661 35.4 23.3665 35.4 23.367 35.4C23.3674 35.4 23.3678 35.4 23.3683 35.4C23.3687 35.4 23.3691 35.4 23.3696 35.4C23.37 35.4 23.3704 35.4 23.3709 35.4C23.3713 35.4 23.3717 35.4 23.3722 35.4C23.3726 35.4 23.373 35.4 23.3734 35.4C23.3739 35.4 23.3743 35.4 23.3747 35.4C23.3752 35.4 23.3756 35.4 23.376 35.4C23.3764 35.4 23.3769 35.4 23.3773 35.4C23.3777 35.4 23.3782 35.4 23.3786 35.4C23.379 35.4 23.3794 35.4 23.3799 35.4C23.3803 35.4 23.3807 35.4 23.3811 35.4C23.3816 35.4 23.382 35.4 23.3824 35.4C23.3828 35.4 23.3833 35.4 23.3837 35.4C23.3841 35.4 23.3845 35.4 23.385 35.4C23.3854 35.4 23.3858 35.4 23.3862 35.4C23.3867 35.4 23.3871 35.4 23.3875 35.4C23.3879 35.4 23.3883 35.4 23.3888 35.4C23.3892 35.4 23.3896 35.4 23.39 35.4C23.3904 35.4 23.3909 35.4 23.3913 35.4C23.3917 35.4 23.3921 35.4 23.3925 35.4C23.393 35.4 23.3934 35.4 23.3938 35.4C23.3942 35.4 23.3946 35.4 23.3951 35.4C23.3955 35.4 23.3959 35.4 23.3963 35.4C23.3967 35.4 23.3971 35.4 23.3976 35.4C23.398 35.4 23.3984 35.4 23.3988 35.4C23.3992 35.4 23.3996 35.4 23.4 35.4C23.4005 35.4 23.4009 35.4 23.4013 35.4C23.4017 35.4 23.4021 35.4 23.4025 35.4C23.4029 35.4 23.4034 35.4 23.4038 35.4C23.4042 35.4 23.4046 35.4 23.405 35.4C23.4054 35.4 23.4058 35.4 23.4062 35.4C23.4066 35.4 23.4071 35.4 23.4075 35.4C23.4079 35.4 23.4083 35.4 23.4087 35.4C23.4091 35.4 23.4095 35.4 23.4099 35.4C23.4103 35.4 23.4107 35.4 23.4112 35.4C23.4116 35.4 23.412 35.4 23.4124 35.4C23.4128 35.4 23.4132 35.4 23.4136 35.4C23.414 35.4 23.4144 35.4 23.4148 35.4C23.4152 35.4 23.4156 35.4 23.416 35.4C23.4164 35.4 23.4168 35.4 23.4172 35.4C23.4176 35.4 23.4181 35.4 23.4185 35.4C23.4189 35.4 23.4193 35.4 23.4197 35.4C23.4201 35.4 23.4205 35.4 23.4209 35.4C23.4213 35.4 23.4217 35.4 23.4221 35.4C23.4225 35.4 23.4229 35.4 23.4233 35.4C23.4237 35.4 23.4241 35.4 23.4245 35.4C23.4249 35.4 23.4253 35.4 23.4257 35.4C23.4261 35.4 23.4265 35.4 23.4269 35.4C23.4273 35.4 23.4277 35.4 23.4281 35.4C23.4285 35.4 23.4289 35.4 23.4293 35.4C23.4297 35.4 23.4301 35.4 23.4305 35.4C23.4308 35.4 23.4312 35.4 23.4316 35.4C23.432 35.4 23.4324 35.4 23.4328 35.4C23.4332 35.4 23.4336 35.4 23.434 35.4C23.4344 35.4 23.4348 35.4 23.4352 35.4C23.4356 35.4 23.436 35.4 23.4364 35.4C23.4368 35.4 23.4372 35.4 23.4375 35.4C23.4379 35.4 23.4383 35.4 23.4387 35.4C23.4391 35.4 23.4395 35.4 23.4399 35.4C23.4403 35.4 23.4407 35.4 23.4411 35.4C23.4415 35.4 23.4418 35.4 23.4422 35.4C23.4426 35.4 23.443 35.4 23.4434 35.4C23.4438 35.4 23.4442 35.4 23.4446 35.4C23.4449 35.4 23.4453 35.4 23.4457 35.4C23.4461 35.4 23.4465 35.4 23.4469 35.4C23.4473 35.4 23.4477 35.4 23.448 35.4C23.4484 35.4 23.4488 35.4 23.4492 35.4C23.4496 35.4 23.45 35.4 23.4503 35.4C23.4507 35.4 23.4511 35.4 23.4515 35.4C23.4519 35.4 23.4523 35.4 23.4526 35.4C23.453 35.4 23.4534 35.4 23.4538 35.4C23.4542 35.4 23.4545 35.4 23.4549 35.4C23.4553 35.4 23.4557 35.4 23.4561 35.4C23.4565 35.4 23.4568 35.4 23.4572 35.4C23.4576 35.4 23.458 35.4 23.4583 35.4C23.4587 35.4 23.4591 35.4 23.4595 35.4C23.4599 35.4 23.4602 35.4 23.4606 35.4C23.461 35.4 23.4614 35.4 23.4617 35.4C23.4621 35.4 23.4625 35.4 23.4629 35.4C23.4632 35.4 23.4636 35.4 23.464 35.4V29.4ZM22.6 29.4C22.5993 29.4 22.5985 29.4 22.5977 29.4C22.597 29.4 22.5963 29.4 22.5955 29.4C22.5947 29.4 22.594 29.4 22.5932 29.4C22.5925 29.4 22.5917 29.4 22.591 29.4C22.5902 29.4 22.5895 29.4 22.5887 29.4C22.588 29.4 22.5872 29.4 22.5865 29.4C22.5857 29.4 22.585 29.4 22.5842 29.4C22.5835 29.4 22.5827 29.4 22.582 29.4C22.5812 29.4 22.5805 29.4 22.5797 29.4C22.579 29.4 22.5782 29.4 22.5775 29.4C22.5767 29.4 22.576 29.4 22.5752 29.4C22.5745 29.4 22.5737 29.4 22.573 29.4C22.5722 29.4 22.5715 29.4 22.5707 29.4C22.57 29.4 22.5692 29.4 22.5684 29.4C22.5677 29.4 22.5669 29.4 22.5662 29.4C22.5654 29.4 22.5647 29.4 22.5639 29.4C22.5632 29.4 22.5624 29.4 22.5617 29.4C22.5609 29.4 22.5602 29.4 22.5594 29.4C22.5587 29.4 22.5579 29.4 22.5572 29.4C22.5564 29.4 22.5556 29.4 22.5549 29.4C22.5541 29.4 22.5534 29.4 22.5526 29.4C22.5519 29.4 22.5511 29.4 22.5504 29.4C22.5496 29.4 22.5489 29.4 22.5481 29.4C22.5474 29.4 22.5466 29.4 22.5458 29.4C22.5451 29.4 22.5443 29.4 22.5436 29.4C22.5428 29.4 22.5421 29.4 22.5413 29.4C22.5406 29.4 22.5398 29.4 22.5391 29.4C22.5383 29.4 22.5375 29.4 22.5368 29.4C22.536 29.4 22.5353 29.4 22.5345 29.4C22.5338 29.4 22.533 29.4 22.5323 29.4C22.5315 29.4 22.5307 29.4 22.53 29.4C22.5292 29.4 22.5285 29.4 22.5277 29.4C22.527 29.4 22.5262 29.4 22.5255 29.4C22.5247 29.4 22.5239 29.4 22.5232 29.4C22.5224 29.4 22.5217 29.4 22.5209 29.4C22.5202 29.4 22.5194 29.4 22.5186 29.4C22.5179 29.4 22.5171 29.4 22.5164 29.4C22.5156 29.4 22.5149 29.4 22.5141 29.4C22.5133 29.4 22.5126 29.4 22.5118 29.4C22.5111 29.4 22.5103 29.4 22.5096 29.4C22.5088 29.4 22.508 29.4 22.5073 29.4C22.5065 29.4 22.5058 29.4 22.505 29.4C22.5043 29.4 22.5035 29.4 22.5027 29.4C22.502 29.4 22.5012 29.4 22.5005 29.4C22.4997 29.4 22.499 29.4 22.4982 29.4C22.4974 29.4 22.4967 29.4 22.4959 29.4C22.4952 29.4 22.4944 29.4 22.4936 29.4C22.4929 29.4 22.4921 29.4 22.4914 29.4C22.4906 29.4 22.4899 29.4 22.4891 29.4C22.4883 29.4 22.4876 29.4 22.4868 29.4C22.4861 29.4 22.4853 29.4 22.4845 29.4C22.4838 29.4 22.483 29.4 22.4823 29.4C22.4815 29.4 22.4807 29.4 22.48 29.4C22.4792 29.4 22.4785 29.4 22.4777 29.4C22.4769 29.4 22.4762 29.4 22.4754 29.4C22.4747 29.4 22.4739 29.4 22.4731 29.4C22.4724 29.4 22.4716 29.4 22.4709 29.4C22.4701 29.4 22.4693 29.4 22.4686 29.4C22.4678 29.4 22.4671 29.4 22.4663 29.4C22.4655 29.4 22.4648 29.4 22.464 29.4C22.4633 29.4 22.4625 29.4 22.4617 29.4C22.461 29.4 22.4602 29.4 22.4594 29.4C22.4587 29.4 22.4579 29.4 22.4572 29.4C22.4564 29.4 22.4556 29.4 22.4549 29.4C22.4541 29.4 22.4534 29.4 22.4526 29.4C22.4518 29.4 22.4511 29.4 22.4503 29.4C22.4495 29.4 22.4488 29.4 22.448 29.4C22.4473 29.4 22.4465 29.4 22.4457 29.4C22.445 29.4 22.4442 29.4 22.4434 29.4C22.4427 29.4 22.4419 29.4 22.4412 29.4C22.4404 29.4 22.4396 29.4 22.4389 29.4C22.4381 29.4 22.4373 29.4 22.4366 29.4C22.4358 29.4 22.4351 29.4 22.4343 29.4C22.4335 29.4 22.4328 29.4 22.432 29.4C22.4312 29.4 22.4305 29.4 22.4297 29.4C22.4289 29.4 22.4282 29.4 22.4274 29.4C22.4267 29.4 22.4259 29.4 22.4251 29.4C22.4244 29.4 22.4236 29.4 22.4228 29.4C22.4221 29.4 22.4213 29.4 22.4205 29.4C22.4198 29.4 22.419 29.4 22.4182 29.4C22.4175 29.4 22.4167 29.4 22.4159 29.4C22.4152 29.4 22.4144 29.4 22.4137 29.4C22.4129 29.4 22.4121 29.4 22.4114 29.4C22.4106 29.4 22.4098 29.4 22.4091 29.4C22.4083 29.4 22.4075 29.4 22.4068 29.4C22.406 29.4 22.4052 29.4 22.4045 29.4C22.4037 29.4 22.4029 29.4 22.4022 29.4C22.4014 29.4 22.4006 29.4 22.3999 29.4C22.3991 29.4 22.3983 29.4 22.3976 29.4C22.3968 29.4 22.396 29.4 22.3953 29.4C22.3945 29.4 22.3937 29.4 22.393 29.4C22.3922 29.4 22.3914 29.4 22.3907 29.4C22.3899 29.4 22.3891 29.4 22.3884 29.4C22.3876 29.4 22.3868 29.4 22.3861 29.4C22.3853 29.4 22.3845 29.4 22.3838 29.4C22.383 29.4 22.3822 29.4 22.3815 29.4C22.3807 29.4 22.3799 29.4 22.3792 29.4C22.3784 29.4 22.3776 29.4 22.3769 29.4C22.3761 29.4 22.3753 29.4 22.3746 29.4C22.3738 29.4 22.373 29.4 22.3723 29.4C22.3715 29.4 22.3707 29.4 22.3699 29.4C22.3692 29.4 22.3684 29.4 22.3676 29.4C22.3669 29.4 22.3661 29.4 22.3653 29.4C22.3646 29.4 22.3638 29.4 22.363 29.4C22.3623 29.4 22.3615 29.4 22.3607 29.4C22.36 29.4 22.3592 29.4 22.3584 29.4C22.3576 29.4 22.3569 29.4 22.3561 29.4C22.3553 29.4 22.3546 29.4 22.3538 29.4C22.353 29.4 22.3523 29.4 22.3515 29.4C22.3507 29.4 22.3499 29.4 22.3492 29.4C22.3484 29.4 22.3476 29.4 22.3469 29.4C22.3461 29.4 22.3453 29.4 22.3446 29.4C22.3438 29.4 22.343 29.4 22.3422 29.4C22.3415 29.4 22.3407 29.4 22.3399 29.4C22.3392 29.4 22.3384 29.4 22.3376 29.4C22.3368 29.4 22.3361 29.4 22.3353 29.4C22.3345 29.4 22.3338 29.4 22.333 29.4C22.3322 29.4 22.3314 29.4 22.3307 29.4C22.3299 29.4 22.3291 29.4 22.3284 29.4C22.3276 29.4 22.3268 29.4 22.326 29.4C22.3253 29.4 22.3245 29.4 22.3237 29.4C22.323 29.4 22.3222 29.4 22.3214 29.4C22.3206 29.4 22.3199 29.4 22.3191 29.4C22.3183 29.4 22.3176 29.4 22.3168 29.4C22.316 29.4 22.3152 29.4 22.3145 29.4C22.3137 29.4 22.3129 29.4 22.3121 29.4C22.3114 29.4 22.3106 29.4 22.3098 29.4C22.309 29.4 22.3083 29.4 22.3075 29.4C22.3067 29.4 22.306 29.4 22.3052 29.4C22.3044 29.4 22.3036 29.4 22.3029 29.4C22.3021 29.4 22.3013 29.4 22.3005 29.4C22.2998 29.4 22.299 29.4 22.2982 29.4C22.2974 29.4 22.2967 29.4 22.2959 29.4C22.2951 29.4 22.2943 29.4 22.2936 29.4C22.2928 29.4 22.292 29.4 22.2912 29.4C22.2905 29.4 22.2897 29.4 22.2889 29.4C22.2881 29.4 22.2874 29.4 22.2866 29.4C22.2858 29.4 22.285 29.4 22.2843 29.4C22.2835 29.4 22.2827 29.4 22.2819 29.4C22.2812 29.4 22.2804 29.4 22.2796 29.4C22.2788 29.4 22.2781 29.4 22.2773 29.4C22.2765 29.4 22.2757 29.4 22.275 29.4C22.2742 29.4 22.2734 29.4 22.2726 29.4C22.2719 29.4 22.2711 29.4 22.2703 29.4C22.2695 29.4 22.2688 29.4 22.268 29.4C22.2672 29.4 22.2664 29.4 22.2656 29.4C22.2649 29.4 22.2641 29.4 22.2633 29.4C22.2625 29.4 22.2618 29.4 22.261 29.4C22.2602 29.4 22.2594 29.4 22.2587 29.4C22.2579 29.4 22.2571 29.4 22.2563 29.4C22.2555 29.4 22.2548 29.4 22.254 29.4C22.2532 29.4 22.2524 29.4 22.2517 29.4C22.2509 29.4 22.2501 29.4 22.2493 29.4C22.2485 29.4 22.2478 29.4 22.247 29.4C22.2462 29.4 22.2454 29.4 22.2447 29.4C22.2439 29.4 22.2431 29.4 22.2423 29.4C22.2415 29.4 22.2408 29.4 22.24 29.4C22.2392 29.4 22.2384 29.4 22.2376 29.4C22.2369 29.4 22.2361 29.4 22.2353 29.4C22.2345 29.4 22.2337 29.4 22.233 29.4C22.2322 29.4 22.2314 29.4 22.2306 29.4C22.2299 29.4 22.2291 29.4 22.2283 29.4C22.2275 29.4 22.2267 29.4 22.226 29.4C22.2252 29.4 22.2244 29.4 22.2236 29.4C22.2228 29.4 22.2221 29.4 22.2213 29.4C22.2205 29.4 22.2197 29.4 22.2189 29.4C22.2182 29.4 22.2174 29.4 22.2166 29.4C22.2158 29.4 22.215 29.4 22.2142 29.4C22.2135 29.4 22.2127 29.4 22.2119 29.4C22.2111 29.4 22.2103 29.4 22.2096 29.4C22.2088 29.4 22.208 29.4 22.2072 29.4C22.2064 29.4 22.2057 29.4 22.2049 29.4C22.2041 29.4 22.2033 29.4 22.2025 29.4C22.2017 29.4 22.201 29.4 22.2002 29.4C22.1994 29.4 22.1986 29.4 22.1978 29.4C22.1971 29.4 22.1963 29.4 22.1955 29.4C22.1947 29.4 22.1939 29.4 22.1931 29.4C22.1924 29.4 22.1916 29.4 22.1908 29.4C22.19 29.4 22.1892 29.4 22.1885 29.4C22.1877 29.4 22.1869 29.4 22.1861 29.4C22.1853 29.4 22.1845 29.4 22.1838 29.4C22.183 29.4 22.1822 29.4 22.1814 29.4C22.1806 29.4 22.1798 29.4 22.1791 29.4C22.1783 29.4 22.1775 29.4 22.1767 29.4C22.1759 29.4 22.1751 29.4 22.1744 29.4C22.1736 29.4 22.1728 29.4 22.172 29.4C22.1712 29.4 22.1704 29.4 22.1696 29.4C22.1689 29.4 22.1681 29.4 22.1673 29.4C22.1665 29.4 22.1657 29.4 22.1649 29.4C22.1642 29.4 22.1634 29.4 22.1626 29.4C22.1618 29.4 22.161 29.4 22.1602 29.4C22.1594 29.4 22.1587 29.4 22.1579 29.4C22.1571 29.4 22.1563 29.4 22.1555 29.4C22.1547 29.4 22.1539 29.4 22.1532 29.4C22.1524 29.4 22.1516 29.4 22.1508 29.4C22.15 29.4 22.1492 29.4 22.1485 29.4C22.1477 29.4 22.1469 29.4 22.1461 29.4C22.1453 29.4 22.1445 29.4 22.1437 29.4C22.1429 29.4 22.1422 29.4 22.1414 29.4C22.1406 29.4 22.1398 29.4 22.139 29.4C22.1382 29.4 22.1374 29.4 22.1367 29.4C22.1359 29.4 22.1351 29.4 22.1343 29.4C22.1335 29.4 22.1327 29.4 22.1319 29.4C22.1311 29.4 22.1304 29.4 22.1296 29.4C22.1288 29.4 22.128 29.4 22.1272 29.4C22.1264 29.4 22.1256 29.4 22.1248 29.4C22.1241 29.4 22.1233 29.4 22.1225 29.4C22.1217 29.4 22.1209 29.4 22.1201 29.4C22.1193 29.4 22.1185 29.4 22.1178 29.4C22.117 29.4 22.1162 29.4 22.1154 29.4C22.1146 29.4 22.1138 29.4 22.113 29.4C22.1122 29.4 22.1114 29.4 22.1107 29.4C22.1099 29.4 22.1091 29.4 22.1083 29.4C22.1075 29.4 22.1067 29.4 22.1059 29.4C22.1051 29.4 22.1043 29.4 22.1036 29.4C22.1028 29.4 22.102 29.4 22.1012 29.4C22.1004 29.4 22.0996 29.4 22.0988 29.4C22.098 29.4 22.0972 29.4 22.0964 29.4C22.0957 29.4 22.0949 29.4 22.0941 29.4C22.0933 29.4 22.0925 29.4 22.0917 29.4C22.0909 29.4 22.0901 29.4 22.0893 29.4C22.0885 29.4 22.0878 29.4 22.087 29.4C22.0862 29.4 22.0854 29.4 22.0846 29.4C22.0838 29.4 22.083 29.4 22.0822 29.4C22.0814 29.4 22.0806 29.4 22.0798 29.4C22.0791 29.4 22.0783 29.4 22.0775 29.4C22.0767 29.4 22.0759 29.4 22.0751 29.4C22.0743 29.4 22.0735 29.4 22.0727 29.4C22.0719 29.4 22.0711 29.4 22.0703 29.4C22.0696 29.4 22.0688 29.4 22.068 29.4C22.0672 29.4 22.0664 29.4 22.0656 29.4C22.0648 29.4 22.064 29.4 22.0632 29.4C22.0624 29.4 22.0616 29.4 22.0608 29.4C22.06 29.4 22.0593 29.4 22.0585 29.4C22.0577 29.4 22.0569 29.4 22.0561 29.4C22.0553 29.4 22.0545 29.4 22.0537 29.4C22.0529 29.4 22.0521 29.4 22.0513 29.4C22.0505 29.4 22.0497 29.4 22.0489 29.4C22.0482 29.4 22.0474 29.4 22.0466 29.4C22.0458 29.4 22.045 29.4 22.0442 29.4C22.0434 29.4 22.0426 29.4 22.0418 29.4C22.041 29.4 22.0402 29.4 22.0394 29.4C22.0386 29.4 22.0378 29.4 22.037 29.4C22.0362 29.4 22.0354 29.4 22.0346 29.4C22.0339 29.4 22.0331 29.4 22.0323 29.4C22.0315 29.4 22.0307 29.4 22.0299 29.4C22.0291 29.4 22.0283 29.4 22.0275 29.4C22.0267 29.4 22.0259 29.4 22.0251 29.4C22.0243 29.4 22.0235 29.4 22.0227 29.4C22.0219 29.4 22.0211 29.4 22.0203 29.4C22.0195 29.4 22.0187 29.4 22.0179 29.4C22.0172 29.4 22.0164 29.4 22.0156 29.4C22.0148 29.4 22.014 29.4 22.0132 29.4C22.0124 29.4 22.0116 29.4 22.0108 29.4C22.01 29.4 22.0092 29.4 22.0084 29.4C22.0076 29.4 22.0068 29.4 22.006 29.4C22.0052 29.4 22.0044 29.4 22.0036 29.4C22.0028 29.4 22.002 29.4 22.0012 29.4C22.0004 29.4 21.9996 29.4 21.9988 29.4C21.998 29.4 21.9972 29.4 21.9964 29.4C21.9956 29.4 21.9948 29.4 21.994 29.4C21.9932 29.4 21.9924 29.4 21.9916 29.4C21.9909 29.4 21.9901 29.4 21.9893 29.4C21.9885 29.4 21.9877 29.4 21.9869 29.4C21.9861 29.4 21.9853 29.4 21.9845 29.4C21.9837 29.4 21.9829 29.4 21.9821 29.4C21.9813 29.4 21.9805 29.4 21.9797 29.4C21.9789 29.4 21.9781 29.4 21.9773 29.4C21.9765 29.4 21.9757 29.4 21.9749 29.4C21.9741 29.4 21.9733 29.4 21.9725 29.4C21.9717 29.4 21.9709 29.4 21.9701 29.4C21.9693 29.4 21.9685 29.4 21.9677 29.4C21.9669 29.4 21.9661 29.4 21.9653 29.4C21.9645 29.4 21.9637 29.4 21.9629 29.4C21.9621 29.4 21.9613 29.4 21.9605 29.4C21.9597 29.4 21.9589 29.4 21.9581 29.4C21.9573 29.4 21.9565 29.4 21.9557 29.4C21.9549 29.4 21.9541 29.4 21.9533 29.4C21.9525 29.4 21.9517 29.4 21.9509 29.4C21.9501 29.4 21.9493 29.4 21.9485 29.4C21.9477 29.4 21.9469 29.4 21.9461 29.4C21.9453 29.4 21.9445 29.4 21.9437 29.4C21.9429 29.4 21.9421 29.4 21.9413 29.4C21.9405 29.4 21.9397 29.4 21.9388 29.4C21.938 29.4 21.9372 29.4 21.9364 29.4C21.9356 29.4 21.9348 29.4 21.934 29.4C21.9332 29.4 21.9324 29.4 21.9316 29.4C21.9308 29.4 21.93 29.4 21.9292 29.4C21.9284 29.4 21.9276 29.4 21.9268 29.4C21.926 29.4 21.9252 29.4 21.9244 29.4C21.9236 29.4 21.9228 29.4 21.922 29.4C21.9212 29.4 21.9204 29.4 21.9196 29.4C21.9188 29.4 21.918 29.4 21.9172 29.4C21.9164 29.4 21.9156 29.4 21.9148 29.4C21.914 29.4 21.9132 29.4 21.9123 29.4C21.9115 29.4 21.9107 29.4 21.9099 29.4C21.9091 29.4 21.9083 29.4 21.9075 29.4C21.9067 29.4 21.9059 29.4 21.9051 29.4C21.9043 29.4 21.9035 29.4 21.9027 29.4C21.9019 29.4 21.9011 29.4 21.9003 29.4C21.8995 29.4 21.8987 29.4 21.8979 29.4C21.8971 29.4 21.8963 29.4 21.8955 29.4C21.8946 29.4 21.8938 29.4 21.893 29.4C21.8922 29.4 21.8914 29.4 21.8906 29.4C21.8898 29.4 21.889 29.4 21.8882 29.4C21.8874 29.4 21.8866 29.4 21.8858 29.4C21.885 29.4 21.8842 29.4 21.8834 29.4C21.8826 29.4 21.8818 29.4 21.8809 29.4C21.8801 29.4 21.8793 29.4 21.8785 29.4C21.8777 29.4 21.8769 29.4 21.8761 29.4C21.8753 29.4 21.8745 29.4 21.8737 29.4C21.8729 29.4 21.8721 29.4 21.8713 29.4C21.8705 29.4 21.8697 29.4 21.8688 29.4C21.868 29.4 21.8672 29.4 21.8664 29.4C21.8656 29.4 21.8648 29.4 21.864 29.4C21.8632 29.4 21.8624 29.4 21.8616 29.4C21.8608 29.4 21.86 29.4 21.8592 29.4C21.8583 29.4 21.8575 29.4 21.8567 29.4C21.8559 29.4 21.8551 29.4 21.8543 29.4C21.8535 29.4 21.8527 29.4 21.8519 29.4C21.8511 29.4 21.8503 29.4 21.8495 29.4C21.8486 29.4 21.8478 29.4 21.847 29.4C21.8462 29.4 21.8454 29.4 21.8446 29.4C21.8438 29.4 21.843 29.4 21.8422 29.4C21.8414 29.4 21.8405 29.4 21.8397 29.4C21.8389 29.4 21.8381 29.4 21.8373 29.4C21.8365 29.4 21.8357 29.4 21.8349 29.4C21.8341 29.4 21.8333 29.4 21.8325 29.4C21.8316 29.4 21.8308 29.4 21.83 29.4C21.8292 29.4 21.8284 29.4 21.8276 29.4C21.8268 29.4 21.826 29.4 21.8252 29.4C21.8243 29.4 21.8235 29.4 21.8227 29.4C21.8219 29.4 21.8211 29.4 21.8203 29.4C21.8195 29.4 21.8187 29.4 21.8179 29.4C21.8171 29.4 21.8162 29.4 21.8154 29.4C21.8146 29.4 21.8138 29.4 21.813 29.4C21.8122 29.4 21.8114 29.4 21.8106 29.4C21.8097 29.4 21.8089 29.4 21.8081 29.4C21.8073 29.4 21.8065 29.4 21.8057 29.4C21.8049 29.4 21.8041 29.4 21.8033 29.4C21.8024 29.4 21.8016 29.4 21.8008 29.4C21.8 29.4 21.7992 29.4 21.7984 29.4C21.7976 29.4 21.7968 29.4 21.7959 29.4C21.7951 29.4 21.7943 29.4 21.7935 29.4C21.7927 29.4 21.7919 29.4 21.7911 29.4C21.7902 29.4 21.7894 29.4 21.7886 29.4C21.7878 29.4 21.787 29.4 21.7862 29.4C21.7854 29.4 21.7846 29.4 21.7837 29.4C21.7829 29.4 21.7821 29.4 21.7813 29.4C21.7805 29.4 21.7797 29.4 21.7789 29.4C21.778 29.4 21.7772 29.4 21.7764 29.4C21.7756 29.4 21.7748 29.4 21.774 29.4C21.7732 29.4 21.7723 29.4 21.7715 29.4C21.7707 29.4 21.7699 29.4 21.7691 29.4C21.7683 29.4 21.7675 29.4 21.7666 29.4C21.7658 29.4 21.765 29.4 21.7642 29.4C21.7634 29.4 21.7626 29.4 21.7617 29.4C21.7609 29.4 21.7601 29.4 21.7593 29.4C21.7585 29.4 21.7577 29.4 21.7569 29.4C21.756 29.4 21.7552 29.4 21.7544 29.4C21.7536 29.4 21.7528 29.4 21.752 29.4C21.7511 29.4 21.7503 29.4 21.7495 29.4C21.7487 29.4 21.7479 29.4 21.7471 29.4C21.7462 29.4 21.7454 29.4 21.7446 29.4C21.7438 29.4 21.743 29.4 21.7422 29.4C21.7413 29.4 21.7405 29.4 21.7397 29.4C21.7389 29.4 21.7381 29.4 21.7373 29.4C21.7364 29.4 21.7356 29.4 21.7348 29.4C21.734 29.4 21.7332 29.4 21.7324 29.4C21.7315 29.4 21.7307 29.4 21.7299 29.4C21.7291 29.4 21.7283 29.4 21.7274 29.4C21.7266 29.4 21.7258 29.4 21.725 29.4C21.7242 29.4 21.7234 29.4 21.7225 29.4C21.7217 29.4 21.7209 29.4 21.7201 29.4C21.7193 29.4 21.7184 29.4 21.7176 29.4C21.7168 29.4 21.716 29.4 21.7152 29.4C21.7144 29.4 21.7135 29.4 21.7127 29.4C21.7119 29.4 21.7111 29.4 21.7103 29.4C21.7094 29.4 21.7086 29.4 21.7078 29.4C21.707 29.4 21.7062 29.4 21.7053 29.4C21.7045 29.4 21.7037 29.4 21.7029 29.4C21.7021 29.4 21.7012 29.4 21.7004 29.4C21.6996 29.4 21.6988 29.4 21.698 29.4C21.6971 29.4 21.6963 29.4 21.6955 29.4C21.6947 29.4 21.6939 29.4 21.693 29.4C21.6922 29.4 21.6914 29.4 21.6906 29.4C21.6898 29.4 21.6889 29.4 21.6881 29.4C21.6873 29.4 21.6865 29.4 21.6857 29.4C21.6848 29.4 21.684 29.4 21.6832 29.4C21.6824 29.4 21.6815 29.4 21.6807 29.4C21.6799 29.4 21.6791 29.4 21.6783 29.4C21.6774 29.4 21.6766 29.4 21.6758 29.4C21.675 29.4 21.6742 29.4 21.6733 29.4C21.6725 29.4 21.6717 29.4 21.6709 29.4C21.67 29.4 21.6692 29.4 21.6684 29.4C21.6676 29.4 21.6668 29.4 21.6659 29.4C21.6651 29.4 21.6643 29.4 21.6635 29.4C21.6626 29.4 21.6618 29.4 21.661 29.4C21.6602 29.4 21.6593 29.4 21.6585 29.4C21.6577 29.4 21.6569 29.4 21.6561 29.4C21.6552 29.4 21.6544 29.4 21.6536 29.4C21.6528 29.4 21.6519 29.4 21.6511 29.4C21.6503 29.4 21.6495 29.4 21.6486 29.4C21.6478 29.4 21.647 29.4 21.6462 29.4C21.6453 29.4 21.6445 29.4 21.6437 29.4C21.6429 29.4 21.6421 29.4 21.6412 29.4C21.6404 29.4 21.6396 29.4 21.6388 29.4C21.6379 29.4 21.6371 29.4 21.6363 29.4C21.6355 29.4 21.6346 29.4 21.6338 29.4C21.633 29.4 21.6322 29.4 21.6313 29.4C21.6305 29.4 21.6297 29.4 21.6289 29.4C21.628 29.4 21.6272 29.4 21.6264 29.4C21.6256 29.4 21.6247 29.4 21.6239 29.4C21.6231 29.4 21.6223 29.4 21.6214 29.4C21.6206 29.4 21.6198 29.4 21.6189 29.4C21.6181 29.4 21.6173 29.4 21.6165 29.4C21.6156 29.4 21.6148 29.4 21.614 29.4C21.6132 29.4 21.6123 29.4 21.6115 29.4C21.6107 29.4 21.6099 29.4 21.609 29.4C21.6082 29.4 21.6074 29.4 21.6066 29.4C21.6057 29.4 21.6049 29.4 21.6041 29.4C21.6032 29.4 21.6024 29.4 21.6016 29.4C21.6008 29.4 21.5999 29.4 21.5991 29.4C21.5983 29.4 21.5975 29.4 21.5966 29.4C21.5958 29.4 21.595 29.4 21.5941 29.4C21.5933 29.4 21.5925 29.4 21.5917 29.4C21.5908 29.4 21.59 29.4 21.5892 29.4C21.5883 29.4 21.5875 29.4 21.5867 29.4C21.5859 29.4 21.585 29.4 21.5842 29.4C21.5834 29.4 21.5825 29.4 21.5817 29.4C21.5809 29.4 21.5801 29.4 21.5792 29.4C21.5784 29.4 21.5776 29.4 21.5767 29.4C21.5759 29.4 21.5751 29.4 21.5743 29.4C21.5734 29.4 21.5726 29.4 21.5718 29.4C21.5709 29.4 21.5701 29.4 21.5693 29.4C21.5684 29.4 21.5676 29.4 21.5668 29.4C21.566 29.4 21.5651 29.4 21.5643 29.4C21.5635 29.4 21.5626 29.4 21.5618 29.4C21.561 29.4 21.5602 29.4 21.5593 29.4C21.5585 29.4 21.5577 29.4 21.5568 29.4C21.556 29.4 21.5552 29.4 21.5543 29.4C21.5535 29.4 21.5527 29.4 21.5518 29.4C21.551 29.4 21.5502 29.4 21.5494 29.4C21.5485 29.4 21.5477 29.4 21.5469 29.4C21.546 29.4 21.5452 29.4 21.5444 29.4C21.5435 29.4 21.5427 29.4 21.5419 29.4C21.541 29.4 21.5402 29.4 21.5394 29.4C21.5385 29.4 21.5377 29.4 21.5369 29.4C21.536 29.4 21.5352 29.4 21.5344 29.4C21.5335 29.4 21.5327 29.4 21.5319 29.4C21.5311 29.4 21.5302 29.4 21.5294 29.4C21.5286 29.4 21.5277 29.4 21.5269 29.4C21.5261 29.4 21.5252 29.4 21.5244 29.4C21.5236 29.4 21.5227 29.4 21.5219 29.4C21.5211 29.4 21.5202 29.4 21.5194 29.4C21.5186 29.4 21.5177 29.4 21.5169 29.4C21.5161 29.4 21.5152 29.4 21.5144 29.4C21.5136 29.4 21.5127 29.4 21.5119 29.4C21.5111 29.4 21.5102 29.4 21.5094 29.4C21.5086 29.4 21.5077 29.4 21.5069 29.4C21.5061 29.4 21.5052 29.4 21.5044 29.4C21.5035 29.4 21.5027 29.4 21.5019 29.4C21.501 29.4 21.5002 29.4 21.4994 29.4C21.4985 29.4 21.4977 29.4 21.4969 29.4C21.496 29.4 21.4952 29.4 21.4944 29.4C21.4935 29.4 21.4927 29.4 21.4919 29.4C21.491 29.4 21.4902 29.4 21.4894 29.4C21.4885 29.4 21.4877 29.4 21.4868 29.4C21.486 29.4 21.4852 29.4 21.4843 29.4C21.4835 29.4 21.4827 29.4 21.4818 29.4C21.481 29.4 21.4802 29.4 21.4793 29.4C21.4785 29.4 21.4776 29.4 21.4768 29.4C21.476 29.4 21.4751 29.4 21.4743 29.4C21.4735 29.4 21.4726 29.4 21.4718 29.4C21.471 29.4 21.4701 29.4 21.4693 29.4C21.4684 29.4 21.4676 29.4 21.4668 29.4C21.4659 29.4 21.4651 29.4 21.4643 29.4C21.4634 29.4 21.4626 29.4 21.4617 29.4C21.4609 29.4 21.4601 29.4 21.4592 29.4C21.4584 29.4 21.4576 29.4 21.4567 29.4C21.4559 29.4 21.455 29.4 21.4542 29.4C21.4534 29.4 21.4525 29.4 21.4517 29.4C21.4509 29.4 21.45 29.4 21.4492 29.4C21.4483 29.4 21.4475 29.4 21.4467 29.4C21.4458 29.4 21.445 29.4 21.4441 29.4C21.4433 29.4 21.4425 29.4 21.4416 29.4C21.4408 29.4 21.44 29.4 21.4391 29.4C21.4383 29.4 21.4374 29.4 21.4366 29.4C21.4358 29.4 21.4349 29.4 21.4341 29.4C21.4332 29.4 21.4324 29.4 21.4316 29.4C21.4307 29.4 21.4299 29.4 21.429 29.4C21.4282 29.4 21.4274 29.4 21.4265 29.4C21.4257 29.4 21.4248 29.4 21.424 29.4C21.4232 29.4 21.4223 29.4 21.4215 29.4C21.4206 29.4 21.4198 29.4 21.419 29.4C21.4181 29.4 21.4173 29.4 21.4164 29.4C21.4156 29.4 21.4147 29.4 21.4139 29.4C21.4131 29.4 21.4122 29.4 21.4114 29.4C21.4105 29.4 21.4097 29.4 21.4089 29.4C21.408 29.4 21.4072 29.4 21.4063 29.4C21.4055 29.4 21.4047 29.4 21.4038 29.4C21.403 29.4 21.4021 29.4 21.4013 29.4C21.4004 29.4 21.3996 29.4 21.3988 29.4C21.3979 29.4 21.3971 29.4 21.3962 29.4C21.3954 29.4 21.3945 29.4 21.3937 29.4C21.3929 29.4 21.392 29.4 21.3912 29.4C21.3903 29.4 21.3895 29.4 21.3887 29.4C21.3878 29.4 21.387 29.4 21.3861 29.4C21.3853 29.4 21.3844 29.4 21.3836 29.4C21.3827 29.4 21.3819 29.4 21.3811 29.4C21.3802 29.4 21.3794 29.4 21.3785 29.4C21.3777 29.4 21.3768 29.4 21.376 29.4V35.4C21.3768 35.4 21.3777 35.4 21.3785 35.4C21.3794 35.4 21.3802 35.4 21.3811 35.4C21.3819 35.4 21.3827 35.4 21.3836 35.4C21.3844 35.4 21.3853 35.4 21.3861 35.4C21.387 35.4 21.3878 35.4 21.3887 35.4C21.3895 35.4 21.3903 35.4 21.3912 35.4C21.392 35.4 21.3929 35.4 21.3937 35.4C21.3945 35.4 21.3954 35.4 21.3962 35.4C21.3971 35.4 21.3979 35.4 21.3988 35.4C21.3996 35.4 21.4004 35.4 21.4013 35.4C21.4021 35.4 21.403 35.4 21.4038 35.4C21.4047 35.4 21.4055 35.4 21.4063 35.4C21.4072 35.4 21.408 35.4 21.4089 35.4C21.4097 35.4 21.4105 35.4 21.4114 35.4C21.4122 35.4 21.4131 35.4 21.4139 35.4C21.4147 35.4 21.4156 35.4 21.4164 35.4C21.4173 35.4 21.4181 35.4 21.419 35.4C21.4198 35.4 21.4206 35.4 21.4215 35.4C21.4223 35.4 21.4232 35.4 21.424 35.4C21.4248 35.4 21.4257 35.4 21.4265 35.4C21.4274 35.4 21.4282 35.4 21.429 35.4C21.4299 35.4 21.4307 35.4 21.4316 35.4C21.4324 35.4 21.4332 35.4 21.4341 35.4C21.4349 35.4 21.4358 35.4 21.4366 35.4C21.4374 35.4 21.4383 35.4 21.4391 35.4C21.44 35.4 21.4408 35.4 21.4416 35.4C21.4425 35.4 21.4433 35.4 21.4441 35.4C21.445 35.4 21.4458 35.4 21.4467 35.4C21.4475 35.4 21.4483 35.4 21.4492 35.4C21.45 35.4 21.4509 35.4 21.4517 35.4C21.4525 35.4 21.4534 35.4 21.4542 35.4C21.455 35.4 21.4559 35.4 21.4567 35.4C21.4576 35.4 21.4584 35.4 21.4592 35.4C21.4601 35.4 21.4609 35.4 21.4617 35.4C21.4626 35.4 21.4634 35.4 21.4643 35.4C21.4651 35.4 21.4659 35.4 21.4668 35.4C21.4676 35.4 21.4684 35.4 21.4693 35.4C21.4701 35.4 21.471 35.4 21.4718 35.4C21.4726 35.4 21.4735 35.4 21.4743 35.4C21.4751 35.4 21.476 35.4 21.4768 35.4C21.4776 35.4 21.4785 35.4 21.4793 35.4C21.4802 35.4 21.481 35.4 21.4818 35.4C21.4827 35.4 21.4835 35.4 21.4843 35.4C21.4852 35.4 21.486 35.4 21.4868 35.4C21.4877 35.4 21.4885 35.4 21.4894 35.4C21.4902 35.4 21.491 35.4 21.4919 35.4C21.4927 35.4 21.4935 35.4 21.4944 35.4C21.4952 35.4 21.496 35.4 21.4969 35.4C21.4977 35.4 21.4985 35.4 21.4994 35.4C21.5002 35.4 21.501 35.4 21.5019 35.4C21.5027 35.4 21.5035 35.4 21.5044 35.4C21.5052 35.4 21.5061 35.4 21.5069 35.4C21.5077 35.4 21.5086 35.4 21.5094 35.4C21.5102 35.4 21.5111 35.4 21.5119 35.4C21.5127 35.4 21.5136 35.4 21.5144 35.4C21.5152 35.4 21.5161 35.4 21.5169 35.4C21.5177 35.4 21.5186 35.4 21.5194 35.4C21.5202 35.4 21.5211 35.4 21.5219 35.4C21.5227 35.4 21.5236 35.4 21.5244 35.4C21.5252 35.4 21.5261 35.4 21.5269 35.4C21.5277 35.4 21.5286 35.4 21.5294 35.4C21.5302 35.4 21.5311 35.4 21.5319 35.4C21.5327 35.4 21.5335 35.4 21.5344 35.4C21.5352 35.4 21.536 35.4 21.5369 35.4C21.5377 35.4 21.5385 35.4 21.5394 35.4C21.5402 35.4 21.541 35.4 21.5419 35.4C21.5427 35.4 21.5435 35.4 21.5444 35.4C21.5452 35.4 21.546 35.4 21.5469 35.4C21.5477 35.4 21.5485 35.4 21.5494 35.4C21.5502 35.4 21.551 35.4 21.5518 35.4C21.5527 35.4 21.5535 35.4 21.5543 35.4C21.5552 35.4 21.556 35.4 21.5568 35.4C21.5577 35.4 21.5585 35.4 21.5593 35.4C21.5602 35.4 21.561 35.4 21.5618 35.4C21.5626 35.4 21.5635 35.4 21.5643 35.4C21.5651 35.4 21.566 35.4 21.5668 35.4C21.5676 35.4 21.5684 35.4 21.5693 35.4C21.5701 35.4 21.5709 35.4 21.5718 35.4C21.5726 35.4 21.5734 35.4 21.5743 35.4C21.5751 35.4 21.5759 35.4 21.5767 35.4C21.5776 35.4 21.5784 35.4 21.5792 35.4C21.5801 35.4 21.5809 35.4 21.5817 35.4C21.5825 35.4 21.5834 35.4 21.5842 35.4C21.585 35.4 21.5859 35.4 21.5867 35.4C21.5875 35.4 21.5883 35.4 21.5892 35.4C21.59 35.4 21.5908 35.4 21.5917 35.4C21.5925 35.4 21.5933 35.4 21.5941 35.4C21.595 35.4 21.5958 35.4 21.5966 35.4C21.5975 35.4 21.5983 35.4 21.5991 35.4C21.5999 35.4 21.6008 35.4 21.6016 35.4C21.6024 35.4 21.6032 35.4 21.6041 35.4C21.6049 35.4 21.6057 35.4 21.6066 35.4C21.6074 35.4 21.6082 35.4 21.609 35.4C21.6099 35.4 21.6107 35.4 21.6115 35.4C21.6123 35.4 21.6132 35.4 21.614 35.4C21.6148 35.4 21.6156 35.4 21.6165 35.4C21.6173 35.4 21.6181 35.4 21.6189 35.4C21.6198 35.4 21.6206 35.4 21.6214 35.4C21.6223 35.4 21.6231 35.4 21.6239 35.4C21.6247 35.4 21.6256 35.4 21.6264 35.4C21.6272 35.4 21.628 35.4 21.6289 35.4C21.6297 35.4 21.6305 35.4 21.6313 35.4C21.6322 35.4 21.633 35.4 21.6338 35.4C21.6346 35.4 21.6355 35.4 21.6363 35.4C21.6371 35.4 21.6379 35.4 21.6388 35.4C21.6396 35.4 21.6404 35.4 21.6412 35.4C21.6421 35.4 21.6429 35.4 21.6437 35.4C21.6445 35.4 21.6453 35.4 21.6462 35.4C21.647 35.4 21.6478 35.4 21.6486 35.4C21.6495 35.4 21.6503 35.4 21.6511 35.4C21.6519 35.4 21.6528 35.4 21.6536 35.4C21.6544 35.4 21.6552 35.4 21.6561 35.4C21.6569 35.4 21.6577 35.4 21.6585 35.4C21.6593 35.4 21.6602 35.4 21.661 35.4C21.6618 35.4 21.6626 35.4 21.6635 35.4C21.6643 35.4 21.6651 35.4 21.6659 35.4C21.6668 35.4 21.6676 35.4 21.6684 35.4C21.6692 35.4 21.67 35.4 21.6709 35.4C21.6717 35.4 21.6725 35.4 21.6733 35.4C21.6742 35.4 21.675 35.4 21.6758 35.4C21.6766 35.4 21.6774 35.4 21.6783 35.4C21.6791 35.4 21.6799 35.4 21.6807 35.4C21.6815 35.4 21.6824 35.4 21.6832 35.4C21.684 35.4 21.6848 35.4 21.6857 35.4C21.6865 35.4 21.6873 35.4 21.6881 35.4C21.6889 35.4 21.6898 35.4 21.6906 35.4C21.6914 35.4 21.6922 35.4 21.693 35.4C21.6939 35.4 21.6947 35.4 21.6955 35.4C21.6963 35.4 21.6971 35.4 21.698 35.4C21.6988 35.4 21.6996 35.4 21.7004 35.4C21.7012 35.4 21.7021 35.4 21.7029 35.4C21.7037 35.4 21.7045 35.4 21.7053 35.4C21.7062 35.4 21.707 35.4 21.7078 35.4C21.7086 35.4 21.7094 35.4 21.7103 35.4C21.7111 35.4 21.7119 35.4 21.7127 35.4C21.7135 35.4 21.7144 35.4 21.7152 35.4C21.716 35.4 21.7168 35.4 21.7176 35.4C21.7184 35.4 21.7193 35.4 21.7201 35.4C21.7209 35.4 21.7217 35.4 21.7225 35.4C21.7234 35.4 21.7242 35.4 21.725 35.4C21.7258 35.4 21.7266 35.4 21.7274 35.4C21.7283 35.4 21.7291 35.4 21.7299 35.4C21.7307 35.4 21.7315 35.4 21.7324 35.4C21.7332 35.4 21.734 35.4 21.7348 35.4C21.7356 35.4 21.7364 35.4 21.7373 35.4C21.7381 35.4 21.7389 35.4 21.7397 35.4C21.7405 35.4 21.7413 35.4 21.7422 35.4C21.743 35.4 21.7438 35.4 21.7446 35.4C21.7454 35.4 21.7462 35.4 21.7471 35.4C21.7479 35.4 21.7487 35.4 21.7495 35.4C21.7503 35.4 21.7511 35.4 21.752 35.4C21.7528 35.4 21.7536 35.4 21.7544 35.4C21.7552 35.4 21.756 35.4 21.7569 35.4C21.7577 35.4 21.7585 35.4 21.7593 35.4C21.7601 35.4 21.7609 35.4 21.7617 35.4C21.7626 35.4 21.7634 35.4 21.7642 35.4C21.765 35.4 21.7658 35.4 21.7666 35.4C21.7675 35.4 21.7683 35.4 21.7691 35.4C21.7699 35.4 21.7707 35.4 21.7715 35.4C21.7723 35.4 21.7732 35.4 21.774 35.4C21.7748 35.4 21.7756 35.4 21.7764 35.4C21.7772 35.4 21.778 35.4 21.7789 35.4C21.7797 35.4 21.7805 35.4 21.7813 35.4C21.7821 35.4 21.7829 35.4 21.7837 35.4C21.7846 35.4 21.7854 35.4 21.7862 35.4C21.787 35.4 21.7878 35.4 21.7886 35.4C21.7894 35.4 21.7902 35.4 21.7911 35.4C21.7919 35.4 21.7927 35.4 21.7935 35.4C21.7943 35.4 21.7951 35.4 21.7959 35.4C21.7968 35.4 21.7976 35.4 21.7984 35.4C21.7992 35.4 21.8 35.4 21.8008 35.4C21.8016 35.4 21.8024 35.4 21.8033 35.4C21.8041 35.4 21.8049 35.4 21.8057 35.4C21.8065 35.4 21.8073 35.4 21.8081 35.4C21.8089 35.4 21.8097 35.4 21.8106 35.4C21.8114 35.4 21.8122 35.4 21.813 35.4C21.8138 35.4 21.8146 35.4 21.8154 35.4C21.8162 35.4 21.8171 35.4 21.8179 35.4C21.8187 35.4 21.8195 35.4 21.8203 35.4C21.8211 35.4 21.8219 35.4 21.8227 35.4C21.8235 35.4 21.8243 35.4 21.8252 35.4C21.826 35.4 21.8268 35.4 21.8276 35.4C21.8284 35.4 21.8292 35.4 21.83 35.4C21.8308 35.4 21.8316 35.4 21.8325 35.4C21.8333 35.4 21.8341 35.4 21.8349 35.4C21.8357 35.4 21.8365 35.4 21.8373 35.4C21.8381 35.4 21.8389 35.4 21.8397 35.4C21.8405 35.4 21.8414 35.4 21.8422 35.4C21.843 35.4 21.8438 35.4 21.8446 35.4C21.8454 35.4 21.8462 35.4 21.847 35.4C21.8478 35.4 21.8486 35.4 21.8495 35.4C21.8503 35.4 21.8511 35.4 21.8519 35.4C21.8527 35.4 21.8535 35.4 21.8543 35.4C21.8551 35.4 21.8559 35.4 21.8567 35.4C21.8575 35.4 21.8583 35.4 21.8592 35.4C21.86 35.4 21.8608 35.4 21.8616 35.4C21.8624 35.4 21.8632 35.4 21.864 35.4C21.8648 35.4 21.8656 35.4 21.8664 35.4C21.8672 35.4 21.868 35.4 21.8688 35.4C21.8697 35.4 21.8705 35.4 21.8713 35.4C21.8721 35.4 21.8729 35.4 21.8737 35.4C21.8745 35.4 21.8753 35.4 21.8761 35.4C21.8769 35.4 21.8777 35.4 21.8785 35.4C21.8793 35.4 21.8801 35.4 21.8809 35.4C21.8818 35.4 21.8826 35.4 21.8834 35.4C21.8842 35.4 21.885 35.4 21.8858 35.4C21.8866 35.4 21.8874 35.4 21.8882 35.4C21.889 35.4 21.8898 35.4 21.8906 35.4C21.8914 35.4 21.8922 35.4 21.893 35.4C21.8938 35.4 21.8946 35.4 21.8955 35.4C21.8963 35.4 21.8971 35.4 21.8979 35.4C21.8987 35.4 21.8995 35.4 21.9003 35.4C21.9011 35.4 21.9019 35.4 21.9027 35.4C21.9035 35.4 21.9043 35.4 21.9051 35.4C21.9059 35.4 21.9067 35.4 21.9075 35.4C21.9083 35.4 21.9091 35.4 21.9099 35.4C21.9107 35.4 21.9115 35.4 21.9123 35.4C21.9132 35.4 21.914 35.4 21.9148 35.4C21.9156 35.4 21.9164 35.4 21.9172 35.4C21.918 35.4 21.9188 35.4 21.9196 35.4C21.9204 35.4 21.9212 35.4 21.922 35.4C21.9228 35.4 21.9236 35.4 21.9244 35.4C21.9252 35.4 21.926 35.4 21.9268 35.4C21.9276 35.4 21.9284 35.4 21.9292 35.4C21.93 35.4 21.9308 35.4 21.9316 35.4C21.9324 35.4 21.9332 35.4 21.934 35.4C21.9348 35.4 21.9356 35.4 21.9364 35.4C21.9372 35.4 21.938 35.4 21.9388 35.4C21.9397 35.4 21.9405 35.4 21.9413 35.4C21.9421 35.4 21.9429 35.4 21.9437 35.4C21.9445 35.4 21.9453 35.4 21.9461 35.4C21.9469 35.4 21.9477 35.4 21.9485 35.4C21.9493 35.4 21.9501 35.4 21.9509 35.4C21.9517 35.4 21.9525 35.4 21.9533 35.4C21.9541 35.4 21.9549 35.4 21.9557 35.4C21.9565 35.4 21.9573 35.4 21.9581 35.4C21.9589 35.4 21.9597 35.4 21.9605 35.4C21.9613 35.4 21.9621 35.4 21.9629 35.4C21.9637 35.4 21.9645 35.4 21.9653 35.4C21.9661 35.4 21.9669 35.4 21.9677 35.4C21.9685 35.4 21.9693 35.4 21.9701 35.4C21.9709 35.4 21.9717 35.4 21.9725 35.4C21.9733 35.4 21.9741 35.4 21.9749 35.4C21.9757 35.4 21.9765 35.4 21.9773 35.4C21.9781 35.4 21.9789 35.4 21.9797 35.4C21.9805 35.4 21.9813 35.4 21.9821 35.4C21.9829 35.4 21.9837 35.4 21.9845 35.4C21.9853 35.4 21.9861 35.4 21.9869 35.4C21.9877 35.4 21.9885 35.4 21.9893 35.4C21.9901 35.4 21.9909 35.4 21.9916 35.4C21.9924 35.4 21.9932 35.4 21.994 35.4C21.9948 35.4 21.9956 35.4 21.9964 35.4C21.9972 35.4 21.998 35.4 21.9988 35.4C21.9996 35.4 22.0004 35.4 22.0012 35.4C22.002 35.4 22.0028 35.4 22.0036 35.4C22.0044 35.4 22.0052 35.4 22.006 35.4C22.0068 35.4 22.0076 35.4 22.0084 35.4C22.0092 35.4 22.01 35.4 22.0108 35.4C22.0116 35.4 22.0124 35.4 22.0132 35.4C22.014 35.4 22.0148 35.4 22.0156 35.4C22.0164 35.4 22.0172 35.4 22.0179 35.4C22.0187 35.4 22.0195 35.4 22.0203 35.4C22.0211 35.4 22.0219 35.4 22.0227 35.4C22.0235 35.4 22.0243 35.4 22.0251 35.4C22.0259 35.4 22.0267 35.4 22.0275 35.4C22.0283 35.4 22.0291 35.4 22.0299 35.4C22.0307 35.4 22.0315 35.4 22.0323 35.4C22.0331 35.4 22.0339 35.4 22.0346 35.4C22.0354 35.4 22.0362 35.4 22.037 35.4C22.0378 35.4 22.0386 35.4 22.0394 35.4C22.0402 35.4 22.041 35.4 22.0418 35.4C22.0426 35.4 22.0434 35.4 22.0442 35.4C22.045 35.4 22.0458 35.4 22.0466 35.4C22.0474 35.4 22.0482 35.4 22.0489 35.4C22.0497 35.4 22.0505 35.4 22.0513 35.4C22.0521 35.4 22.0529 35.4 22.0537 35.4C22.0545 35.4 22.0553 35.4 22.0561 35.4C22.0569 35.4 22.0577 35.4 22.0585 35.4C22.0593 35.4 22.06 35.4 22.0608 35.4C22.0616 35.4 22.0624 35.4 22.0632 35.4C22.064 35.4 22.0648 35.4 22.0656 35.4C22.0664 35.4 22.0672 35.4 22.068 35.4C22.0688 35.4 22.0696 35.4 22.0703 35.4C22.0711 35.4 22.0719 35.4 22.0727 35.4C22.0735 35.4 22.0743 35.4 22.0751 35.4C22.0759 35.4 22.0767 35.4 22.0775 35.4C22.0783 35.4 22.0791 35.4 22.0798 35.4C22.0806 35.4 22.0814 35.4 22.0822 35.4C22.083 35.4 22.0838 35.4 22.0846 35.4C22.0854 35.4 22.0862 35.4 22.087 35.4C22.0878 35.4 22.0885 35.4 22.0893 35.4C22.0901 35.4 22.0909 35.4 22.0917 35.4C22.0925 35.4 22.0933 35.4 22.0941 35.4C22.0949 35.4 22.0957 35.4 22.0964 35.4C22.0972 35.4 22.098 35.4 22.0988 35.4C22.0996 35.4 22.1004 35.4 22.1012 35.4C22.102 35.4 22.1028 35.4 22.1036 35.4C22.1043 35.4 22.1051 35.4 22.1059 35.4C22.1067 35.4 22.1075 35.4 22.1083 35.4C22.1091 35.4 22.1099 35.4 22.1107 35.4C22.1114 35.4 22.1122 35.4 22.113 35.4C22.1138 35.4 22.1146 35.4 22.1154 35.4C22.1162 35.4 22.117 35.4 22.1178 35.4C22.1185 35.4 22.1193 35.4 22.1201 35.4C22.1209 35.4 22.1217 35.4 22.1225 35.4C22.1233 35.4 22.1241 35.4 22.1248 35.4C22.1256 35.4 22.1264 35.4 22.1272 35.4C22.128 35.4 22.1288 35.4 22.1296 35.4C22.1304 35.4 22.1311 35.4 22.1319 35.4C22.1327 35.4 22.1335 35.4 22.1343 35.4C22.1351 35.4 22.1359 35.4 22.1367 35.4C22.1374 35.4 22.1382 35.4 22.139 35.4C22.1398 35.4 22.1406 35.4 22.1414 35.4C22.1422 35.4 22.1429 35.4 22.1437 35.4C22.1445 35.4 22.1453 35.4 22.1461 35.4C22.1469 35.4 22.1477 35.4 22.1485 35.4C22.1492 35.4 22.15 35.4 22.1508 35.4C22.1516 35.4 22.1524 35.4 22.1532 35.4C22.1539 35.4 22.1547 35.4 22.1555 35.4C22.1563 35.4 22.1571 35.4 22.1579 35.4C22.1587 35.4 22.1594 35.4 22.1602 35.4C22.161 35.4 22.1618 35.4 22.1626 35.4C22.1634 35.4 22.1642 35.4 22.1649 35.4C22.1657 35.4 22.1665 35.4 22.1673 35.4C22.1681 35.4 22.1689 35.4 22.1696 35.4C22.1704 35.4 22.1712 35.4 22.172 35.4C22.1728 35.4 22.1736 35.4 22.1744 35.4C22.1751 35.4 22.1759 35.4 22.1767 35.4C22.1775 35.4 22.1783 35.4 22.1791 35.4C22.1798 35.4 22.1806 35.4 22.1814 35.4C22.1822 35.4 22.183 35.4 22.1838 35.4C22.1845 35.4 22.1853 35.4 22.1861 35.4C22.1869 35.4 22.1877 35.4 22.1885 35.4C22.1892 35.4 22.19 35.4 22.1908 35.4C22.1916 35.4 22.1924 35.4 22.1931 35.4C22.1939 35.4 22.1947 35.4 22.1955 35.4C22.1963 35.4 22.1971 35.4 22.1978 35.4C22.1986 35.4 22.1994 35.4 22.2002 35.4C22.201 35.4 22.2017 35.4 22.2025 35.4C22.2033 35.4 22.2041 35.4 22.2049 35.4C22.2057 35.4 22.2064 35.4 22.2072 35.4C22.208 35.4 22.2088 35.4 22.2096 35.4C22.2103 35.4 22.2111 35.4 22.2119 35.4C22.2127 35.4 22.2135 35.4 22.2142 35.4C22.215 35.4 22.2158 35.4 22.2166 35.4C22.2174 35.4 22.2182 35.4 22.2189 35.4C22.2197 35.4 22.2205 35.4 22.2213 35.4C22.2221 35.4 22.2228 35.4 22.2236 35.4C22.2244 35.4 22.2252 35.4 22.226 35.4C22.2267 35.4 22.2275 35.4 22.2283 35.4C22.2291 35.4 22.2299 35.4 22.2306 35.4C22.2314 35.4 22.2322 35.4 22.233 35.4C22.2337 35.4 22.2345 35.4 22.2353 35.4C22.2361 35.4 22.2369 35.4 22.2376 35.4C22.2384 35.4 22.2392 35.4 22.24 35.4C22.2408 35.4 22.2415 35.4 22.2423 35.4C22.2431 35.4 22.2439 35.4 22.2447 35.4C22.2454 35.4 22.2462 35.4 22.247 35.4C22.2478 35.4 22.2485 35.4 22.2493 35.4C22.2501 35.4 22.2509 35.4 22.2517 35.4C22.2524 35.4 22.2532 35.4 22.254 35.4C22.2548 35.4 22.2555 35.4 22.2563 35.4C22.2571 35.4 22.2579 35.4 22.2587 35.4C22.2594 35.4 22.2602 35.4 22.261 35.4C22.2618 35.4 22.2625 35.4 22.2633 35.4C22.2641 35.4 22.2649 35.4 22.2656 35.4C22.2664 35.4 22.2672 35.4 22.268 35.4C22.2688 35.4 22.2695 35.4 22.2703 35.4C22.2711 35.4 22.2719 35.4 22.2726 35.4C22.2734 35.4 22.2742 35.4 22.275 35.4C22.2757 35.4 22.2765 35.4 22.2773 35.4C22.2781 35.4 22.2788 35.4 22.2796 35.4C22.2804 35.4 22.2812 35.4 22.2819 35.4C22.2827 35.4 22.2835 35.4 22.2843 35.4C22.285 35.4 22.2858 35.4 22.2866 35.4C22.2874 35.4 22.2881 35.4 22.2889 35.4C22.2897 35.4 22.2905 35.4 22.2912 35.4C22.292 35.4 22.2928 35.4 22.2936 35.4C22.2943 35.4 22.2951 35.4 22.2959 35.4C22.2967 35.4 22.2974 35.4 22.2982 35.4C22.299 35.4 22.2998 35.4 22.3005 35.4C22.3013 35.4 22.3021 35.4 22.3029 35.4C22.3036 35.4 22.3044 35.4 22.3052 35.4C22.306 35.4 22.3067 35.4 22.3075 35.4C22.3083 35.4 22.309 35.4 22.3098 35.4C22.3106 35.4 22.3114 35.4 22.3121 35.4C22.3129 35.4 22.3137 35.4 22.3145 35.4C22.3152 35.4 22.316 35.4 22.3168 35.4C22.3176 35.4 22.3183 35.4 22.3191 35.4C22.3199 35.4 22.3206 35.4 22.3214 35.4C22.3222 35.4 22.323 35.4 22.3237 35.4C22.3245 35.4 22.3253 35.4 22.326 35.4C22.3268 35.4 22.3276 35.4 22.3284 35.4C22.3291 35.4 22.3299 35.4 22.3307 35.4C22.3314 35.4 22.3322 35.4 22.333 35.4C22.3338 35.4 22.3345 35.4 22.3353 35.4C22.3361 35.4 22.3368 35.4 22.3376 35.4C22.3384 35.4 22.3392 35.4 22.3399 35.4C22.3407 35.4 22.3415 35.4 22.3422 35.4C22.343 35.4 22.3438 35.4 22.3446 35.4C22.3453 35.4 22.3461 35.4 22.3469 35.4C22.3476 35.4 22.3484 35.4 22.3492 35.4C22.3499 35.4 22.3507 35.4 22.3515 35.4C22.3523 35.4 22.353 35.4 22.3538 35.4C22.3546 35.4 22.3553 35.4 22.3561 35.4C22.3569 35.4 22.3576 35.4 22.3584 35.4C22.3592 35.4 22.36 35.4 22.3607 35.4C22.3615 35.4 22.3623 35.4 22.363 35.4C22.3638 35.4 22.3646 35.4 22.3653 35.4C22.3661 35.4 22.3669 35.4 22.3676 35.4C22.3684 35.4 22.3692 35.4 22.3699 35.4C22.3707 35.4 22.3715 35.4 22.3723 35.4C22.373 35.4 22.3738 35.4 22.3746 35.4C22.3753 35.4 22.3761 35.4 22.3769 35.4C22.3776 35.4 22.3784 35.4 22.3792 35.4C22.3799 35.4 22.3807 35.4 22.3815 35.4C22.3822 35.4 22.383 35.4 22.3838 35.4C22.3845 35.4 22.3853 35.4 22.3861 35.4C22.3868 35.4 22.3876 35.4 22.3884 35.4C22.3891 35.4 22.3899 35.4 22.3907 35.4C22.3914 35.4 22.3922 35.4 22.393 35.4C22.3937 35.4 22.3945 35.4 22.3953 35.4C22.396 35.4 22.3968 35.4 22.3976 35.4C22.3983 35.4 22.3991 35.4 22.3999 35.4C22.4006 35.4 22.4014 35.4 22.4022 35.4C22.4029 35.4 22.4037 35.4 22.4045 35.4C22.4052 35.4 22.406 35.4 22.4068 35.4C22.4075 35.4 22.4083 35.4 22.4091 35.4C22.4098 35.4 22.4106 35.4 22.4114 35.4C22.4121 35.4 22.4129 35.4 22.4137 35.4C22.4144 35.4 22.4152 35.4 22.4159 35.4C22.4167 35.4 22.4175 35.4 22.4182 35.4C22.419 35.4 22.4198 35.4 22.4205 35.4C22.4213 35.4 22.4221 35.4 22.4228 35.4C22.4236 35.4 22.4244 35.4 22.4251 35.4C22.4259 35.4 22.4267 35.4 22.4274 35.4C22.4282 35.4 22.4289 35.4 22.4297 35.4C22.4305 35.4 22.4312 35.4 22.432 35.4C22.4328 35.4 22.4335 35.4 22.4343 35.4C22.4351 35.4 22.4358 35.4 22.4366 35.4C22.4373 35.4 22.4381 35.4 22.4389 35.4C22.4396 35.4 22.4404 35.4 22.4412 35.4C22.4419 35.4 22.4427 35.4 22.4434 35.4C22.4442 35.4 22.445 35.4 22.4457 35.4C22.4465 35.4 22.4473 35.4 22.448 35.4C22.4488 35.4 22.4495 35.4 22.4503 35.4C22.4511 35.4 22.4518 35.4 22.4526 35.4C22.4534 35.4 22.4541 35.4 22.4549 35.4C22.4556 35.4 22.4564 35.4 22.4572 35.4C22.4579 35.4 22.4587 35.4 22.4594 35.4C22.4602 35.4 22.461 35.4 22.4617 35.4C22.4625 35.4 22.4633 35.4 22.464 35.4C22.4648 35.4 22.4655 35.4 22.4663 35.4C22.4671 35.4 22.4678 35.4 22.4686 35.4C22.4693 35.4 22.4701 35.4 22.4709 35.4C22.4716 35.4 22.4724 35.4 22.4731 35.4C22.4739 35.4 22.4747 35.4 22.4754 35.4C22.4762 35.4 22.4769 35.4 22.4777 35.4C22.4785 35.4 22.4792 35.4 22.48 35.4C22.4807 35.4 22.4815 35.4 22.4823 35.4C22.483 35.4 22.4838 35.4 22.4845 35.4C22.4853 35.4 22.4861 35.4 22.4868 35.4C22.4876 35.4 22.4883 35.4 22.4891 35.4C22.4899 35.4 22.4906 35.4 22.4914 35.4C22.4921 35.4 22.4929 35.4 22.4936 35.4C22.4944 35.4 22.4952 35.4 22.4959 35.4C22.4967 35.4 22.4974 35.4 22.4982 35.4C22.499 35.4 22.4997 35.4 22.5005 35.4C22.5012 35.4 22.502 35.4 22.5027 35.4C22.5035 35.4 22.5043 35.4 22.505 35.4C22.5058 35.4 22.5065 35.4 22.5073 35.4C22.508 35.4 22.5088 35.4 22.5096 35.4C22.5103 35.4 22.5111 35.4 22.5118 35.4C22.5126 35.4 22.5133 35.4 22.5141 35.4C22.5149 35.4 22.5156 35.4 22.5164 35.4C22.5171 35.4 22.5179 35.4 22.5186 35.4C22.5194 35.4 22.5202 35.4 22.5209 35.4C22.5217 35.4 22.5224 35.4 22.5232 35.4C22.5239 35.4 22.5247 35.4 22.5255 35.4C22.5262 35.4 22.527 35.4 22.5277 35.4C22.5285 35.4 22.5292 35.4 22.53 35.4C22.5307 35.4 22.5315 35.4 22.5323 35.4C22.533 35.4 22.5338 35.4 22.5345 35.4C22.5353 35.4 22.536 35.4 22.5368 35.4C22.5375 35.4 22.5383 35.4 22.5391 35.4C22.5398 35.4 22.5406 35.4 22.5413 35.4C22.5421 35.4 22.5428 35.4 22.5436 35.4C22.5443 35.4 22.5451 35.4 22.5458 35.4C22.5466 35.4 22.5474 35.4 22.5481 35.4C22.5489 35.4 22.5496 35.4 22.5504 35.4C22.5511 35.4 22.5519 35.4 22.5526 35.4C22.5534 35.4 22.5541 35.4 22.5549 35.4C22.5556 35.4 22.5564 35.4 22.5572 35.4C22.5579 35.4 22.5587 35.4 22.5594 35.4C22.5602 35.4 22.5609 35.4 22.5617 35.4C22.5624 35.4 22.5632 35.4 22.5639 35.4C22.5647 35.4 22.5654 35.4 22.5662 35.4C22.5669 35.4 22.5677 35.4 22.5684 35.4C22.5692 35.4 22.57 35.4 22.5707 35.4C22.5715 35.4 22.5722 35.4 22.573 35.4C22.5737 35.4 22.5745 35.4 22.5752 35.4C22.576 35.4 22.5767 35.4 22.5775 35.4C22.5782 35.4 22.579 35.4 22.5797 35.4C22.5805 35.4 22.5812 35.4 22.582 35.4C22.5827 35.4 22.5835 35.4 22.5842 35.4C22.585 35.4 22.5857 35.4 22.5865 35.4C22.5872 35.4 22.588 35.4 22.5887 35.4C22.5895 35.4 22.5902 35.4 22.591 35.4C22.5917 35.4 22.5925 35.4 22.5932 35.4C22.594 35.4 22.5947 35.4 22.5955 35.4C22.5963 35.4 22.597 35.4 22.5977 35.4C22.5985 35.4 22.5993 35.4 22.6 35.4V29.4ZM21.376 29.4H20.8V35.4H21.376V29.4ZM23.8 32.4V23.112H17.8V32.4H23.8ZM20.5509 26.1016C21.2486 26.1598 22.1361 26.184 23.176 26.184V20.184C22.1999 20.184 21.5034 20.1602 21.0491 20.1224L20.5509 26.1016ZM23.176 26.184C24.9904 26.184 26.3401 26.1611 27.1337 26.1044L26.7063 20.1196C26.1559 20.1589 25.0096 20.184 23.176 20.184V26.184ZM27.1264 26.1049C28.9894 25.9764 30.7814 25.4041 32.2169 24.1375L28.2471 19.6385C28.0506 19.8119 27.6347 20.0556 26.7136 20.1191L27.1264 26.1049ZM32.2251 24.1302C33.6953 22.8234 34.528 21.0857 34.528 19.08H28.528C28.528 19.2823 28.4967 19.4166 28.2389 19.6458L32.2251 24.1302ZM34.528 19.08C34.528 16.7064 33.4328 14.7369 31.5341 13.3919L28.0659 18.2881C28.4712 18.5751 28.528 18.7656 28.528 19.08H34.528ZM31.5341 13.3919C29.7107 12.1003 27.4716 11.616 25.12 11.616V17.616C26.7044 17.616 27.5853 17.9476 28.0659 18.2881L31.5341 13.3919ZM25.12 11.616C22.4936 11.616 19.9699 12.203 18.081 13.891C16.1356 15.6295 15.3827 18.0641 15.3522 20.6283L21.3518 20.6997C21.3693 19.2319 21.7684 18.6425 22.079 18.365C22.4461 18.037 23.2824 17.616 25.12 17.616V11.616ZM18.352 17.664H4.888V23.664H18.352V17.664Z" fill="#00BBB4"/>
</svg>
