<svg width="479" height="280" viewBox="0 0 479 280" fill="none" xmlns="http://www.w3.org/2000/svg">
<path fill-rule="evenodd" clip-rule="evenodd" d="M3 6L169.218 134.268L3 273.898V199.925L78.9296 136.14L3 77.5459V6ZM327.609 134.268L161.391 6V77.5459L237.321 136.14L161.391 199.925V273.898L327.609 134.268ZM486 134.268L319.781 6V77.5459L395.711 136.14L319.781 199.925V273.898L486 134.268Z" fill="#00B0AD" fill-opacity="0.01"/>
<path d="M169.218 134.268L170.827 136.183L173.204 134.186L170.746 132.289L169.218 134.268ZM3 6L4.52733 4.02079L0.5 0.912962V6H3ZM3 273.898H0.5V279.263L4.60802 275.812L3 273.898ZM3 199.925L1.39196 198.011L0.5 198.76V199.925H3ZM78.9296 136.14L80.5376 138.055L82.9146 136.058L80.4569 134.161L78.9296 136.14ZM3 77.5459H0.5V78.7745L1.47266 79.5251L3 77.5459ZM161.391 6L162.918 4.02079L158.891 0.912952V6H161.391ZM327.609 134.268L329.217 136.183L331.594 134.186L329.136 132.289L327.609 134.268ZM161.391 77.5459H158.891V78.7745L159.864 79.5251L161.391 77.5459ZM237.321 136.14L238.929 138.055L241.306 136.058L238.848 134.161L237.321 136.14ZM161.391 199.925L159.783 198.011L158.891 198.76V199.925H161.391ZM161.391 273.898H158.891V279.263L162.999 275.812L161.391 273.898ZM319.781 6L321.309 4.02079L317.281 0.912962V6H319.781ZM486 134.268L487.608 136.183L489.985 134.186L487.527 132.289L486 134.268ZM319.781 77.5459H317.281V78.7745L318.254 79.5251L319.781 77.5459ZM395.711 136.14L397.319 138.055L399.696 136.058L397.238 134.161L395.711 136.14ZM319.781 199.925L318.173 198.011L317.281 198.76V199.925H319.781ZM319.781 273.898H317.281V279.263L321.389 275.812L319.781 273.898ZM170.746 132.289L4.52733 4.02079L1.47267 7.97921L167.691 136.248L170.746 132.289ZM4.60802 275.812L170.827 136.183L167.61 132.354L1.39198 271.983L4.60802 275.812ZM0.5 199.925V273.898H5.5V199.925H0.5ZM77.3216 134.226L1.39196 198.011L4.60804 201.839L80.5376 138.055L77.3216 134.226ZM1.47266 79.5251L77.4023 138.12L80.4569 134.161L4.52734 75.5667L1.47266 79.5251ZM0.5 6V77.5459H5.5V6H0.5ZM159.864 7.97921L326.082 136.248L329.136 132.289L162.918 4.02079L159.864 7.97921ZM163.891 77.5459V6H158.891V77.5459H163.891ZM238.848 134.161L162.918 75.5667L159.864 79.5251L235.793 138.12L238.848 134.161ZM162.999 201.839L238.929 138.055L235.713 134.226L159.783 198.011L162.999 201.839ZM163.891 273.898V199.925H158.891V273.898H163.891ZM326.001 132.354L159.783 271.983L162.999 275.812L329.217 136.183L326.001 132.354ZM318.254 7.97921L484.473 136.248L487.527 132.289L321.309 4.02079L318.254 7.97921ZM322.281 77.5459V6H317.281V77.5459H322.281ZM397.238 134.161L321.309 75.5667L318.254 79.5251L394.184 138.12L397.238 134.161ZM321.389 201.839L397.319 138.055L394.103 134.226L318.173 198.011L321.389 201.839ZM322.281 273.898V199.925H317.281V273.898H322.281ZM484.392 132.354L318.173 271.983L321.389 275.812L487.608 136.183L484.392 132.354Z" fill="#E2F4FE"/>
</svg>
