<svg width="1440" height="1194" viewBox="0 0 1440 1194" fill="none" xmlns="http://www.w3.org/2000/svg">
<path fill-rule="evenodd" clip-rule="evenodd" d="M230.203 847.996L308.327 695.703L983.825 808L1151.12 1153.35L690.268 1038.75L255.455 1191.04L230.203 847.996Z" fill="black" fill-opacity="0.01" stroke="#00B0AD" stroke-opacity="0.2" stroke-width="4"/>
<path fill-rule="evenodd" clip-rule="evenodd" d="M979.09 785.463C995.652 785.463 1009.08 798.549 1009.08 814.69C1009.08 830.831 995.652 843.917 979.09 843.917C962.529 843.917 949.103 830.831 949.103 814.69C949.103 798.549 962.529 785.463 979.09 785.463Z" fill="#E2F4FE"/>
<path fill-rule="evenodd" clip-rule="evenodd" d="M232.57 823.152C249.132 823.152 262.557 836.238 262.557 852.379C262.557 868.52 249.132 881.605 232.57 881.605C216.009 881.605 202.583 868.52 202.583 852.379C202.583 836.238 216.009 823.152 232.57 823.152Z" fill="#E2F4FE"/>
<path fill-rule="evenodd" clip-rule="evenodd" d="M1492.5 38.8437L1535.12 358.043L1034.02 481.877L1560.37 550.332L1206.84 694.165L702.581 667.244L308.803 195.751L724.676 465.725" fill="black" fill-opacity="0.01"/>
<path d="M1492.5 38.8437L1535.12 358.043L1034.02 481.877L1560.37 550.332L1206.84 694.165L702.581 667.244L308.803 195.751L724.676 465.725" stroke="#00B0AD" stroke-opacity="0.2" stroke-width="4"/>
<path fill-rule="evenodd" clip-rule="evenodd" d="M294.599 192.675L375.879 527.257L316.694 694.933L704.158 668.013L723.098 463.418L1206.84 688.012L1033.23 481.108L882.503 335.738L994.559 113.452L678.906 206.519L294.599 192.675Z" fill="black" fill-opacity="0.01" stroke="#00B0AD" stroke-opacity="0.2" stroke-width="4"/>
<path fill-rule="evenodd" clip-rule="evenodd" d="M1034.02 481.877L1515.39 171.138L985.88 110.375" fill="black" fill-opacity="0.01"/>
<path d="M1034.02 481.877L1515.39 171.138L985.88 110.375" stroke="#00B0AD" stroke-opacity="0.2" stroke-width="4"/>
<path fill-rule="evenodd" clip-rule="evenodd" d="M316.695 698.011L-148.105 554.948Z" fill="black" fill-opacity="0.01"/>
<path d="M316.695 698.011L-148.105 554.948" stroke="#00B0AD" stroke-opacity="0.2" stroke-width="4"/>
<path fill-rule="evenodd" clip-rule="evenodd" d="M375.88 532.643L-114.961 392.655L305.647 196.521L-125.22 91.9154" fill="black" fill-opacity="0.01"/>
<path d="M375.88 532.643L-114.961 392.655L305.647 196.521L-125.22 91.9154" stroke="#00B0AD" stroke-opacity="0.2" stroke-width="4"/>
<path fill-rule="evenodd" clip-rule="evenodd" d="M680.091 83.6146C760.065 83.6146 824.897 146.803 824.897 224.748C824.897 302.695 760.065 365.882 680.091 365.882C600.117 365.882 535.285 302.695 535.285 224.748C535.285 146.803 600.117 83.6146 680.091 83.6146Z" fill="#E2F4FE"/>
<path fill-rule="evenodd" clip-rule="evenodd" d="M1033.23 451.651C1049.79 451.651 1063.21 464.737 1063.21 480.877C1063.21 497.019 1049.79 510.104 1033.23 510.104C1016.67 510.104 1003.24 497.019 1003.24 480.877C1003.24 464.737 1016.67 451.651 1033.23 451.651Z" fill="#E2F4FE"/>
<path fill-rule="evenodd" clip-rule="evenodd" d="M720.73 438.582C737.292 438.582 750.717 451.667 750.717 467.808C750.717 483.949 737.292 497.035 720.73 497.035C704.169 497.035 690.743 483.949 690.743 467.808C690.743 451.667 704.169 438.582 720.73 438.582Z" fill="#E2F4FE"/>
<path fill-rule="evenodd" clip-rule="evenodd" d="M882.502 303.97C899.064 303.97 912.49 317.057 912.49 333.197C912.49 349.339 899.064 362.424 882.502 362.424C865.941 362.424 852.515 349.339 852.515 333.197C852.515 317.057 865.941 303.97 882.502 303.97Z" fill="#E2F4FE"/>
<path fill-rule="evenodd" clip-rule="evenodd" d="M702.58 638.554C719.141 638.554 732.567 651.64 732.567 667.78C732.567 683.922 719.141 697.007 702.58 697.007C686.019 697.007 672.593 683.922 672.593 667.78C672.593 651.64 686.019 638.554 702.58 638.554Z" fill="#E2F4FE"/>
<path fill-rule="evenodd" clip-rule="evenodd" d="M315.905 665.466C332.466 665.466 345.892 678.551 345.892 694.693C345.892 710.834 332.466 723.918 315.905 723.918C299.343 723.918 285.918 710.834 285.918 694.693C285.918 678.551 299.343 665.466 315.905 665.466Z" fill="#E2F4FE"/>
<path fill-rule="evenodd" clip-rule="evenodd" d="M991.403 83.9856C1007.96 83.9856 1021.39 97.0708 1021.39 113.212C1021.39 129.354 1007.96 142.439 991.403 142.439C974.841 142.439 961.416 129.354 961.416 113.212C961.416 97.0708 974.841 83.9856 991.403 83.9856Z" fill="#E2F4FE"/>
<path fill-rule="evenodd" clip-rule="evenodd" d="M1208.42 643.921C1235.44 643.921 1257.34 665.269 1257.34 691.606C1257.34 717.942 1235.44 739.291 1208.42 739.291C1181.39 739.291 1159.49 717.942 1159.49 691.606C1159.49 665.269 1181.39 643.921 1208.42 643.921Z" fill="#E2F4FE"/>
<path fill-rule="evenodd" clip-rule="evenodd" d="M298.705 123.458C343.704 123.458 380.183 159.011 380.183 202.87C380.183 246.728 343.704 282.281 298.705 282.281C253.706 282.281 217.227 246.728 217.227 202.87C217.227 159.011 253.706 123.458 298.705 123.458Z" fill="#E2F4FE"/>
</svg>
