<svg width="52" height="82" viewBox="0 0 52 82" fill="none" xmlns="http://www.w3.org/2000/svg">
<path fill-rule="evenodd" clip-rule="evenodd" d="M2.74823 5.0215C4.0274 5.0215 5.06438 3.98818 5.06438 2.71506C5.06438 1.44152 4.0274 0.408203 2.74823 0.408203C1.46906 0.408203 0.432129 1.44152 0.432129 2.71506C0.432129 3.98818 1.46906 5.0215 2.74823 5.0215ZM14.4424 5.0215C15.7215 5.0215 16.7585 3.98818 16.7585 2.71506C16.7585 1.44152 15.7215 0.408203 14.4424 0.408203C13.1632 0.408203 12.1261 1.44152 12.1261 2.71506C12.1261 3.98818 13.1632 5.0215 14.4424 5.0215ZM28.4525 2.71506C28.4525 3.98818 27.4155 5.0215 26.1364 5.0215C24.8572 5.0215 23.8203 3.98818 23.8203 2.71506C23.8203 1.44152 24.8572 0.408203 26.1364 0.408203C27.4155 0.408203 28.4525 1.44152 28.4525 2.71506ZM37.8304 5.0215C39.1097 5.0215 40.1466 3.98818 40.1466 2.71506C40.1466 1.44152 39.1097 0.408203 37.8304 0.408203C36.5512 0.408203 35.5143 1.44152 35.5143 2.71506C35.5143 3.98818 36.5512 5.0215 37.8304 5.0215ZM51.8406 2.71506C51.8406 3.98818 50.8037 5.0215 49.5245 5.0215C48.2454 5.0215 47.2083 3.98818 47.2083 2.71506C47.2083 1.44152 48.2454 0.408203 49.5245 0.408203C50.8037 0.408203 51.8406 1.44152 51.8406 2.71506ZM2.74823 15.9192C4.0274 15.9192 5.06438 14.8859 5.06438 13.6127C5.06438 12.3382 4.0274 11.3062 2.74823 11.3062C1.46906 11.3062 0.432129 12.3382 0.432129 13.6127C0.432129 14.8859 1.46906 15.9192 2.74823 15.9192ZM16.7585 13.6127C16.7585 14.8859 15.7215 15.9192 14.4424 15.9192C13.1632 15.9192 12.1261 14.8859 12.1261 13.6127C12.1261 12.3382 13.1632 11.3062 14.4424 11.3062C15.7215 11.3062 16.7585 12.3382 16.7585 13.6127ZM26.1364 15.9192C27.4155 15.9192 28.4525 14.8859 28.4525 13.6127C28.4525 12.3382 27.4155 11.3062 26.1364 11.3062C24.8572 11.3062 23.8203 12.3382 23.8203 13.6127C23.8203 14.8859 24.8572 15.9192 26.1364 15.9192ZM40.1466 13.6127C40.1466 14.8859 39.1097 15.9192 37.8304 15.9192C36.5512 15.9192 35.5143 14.8859 35.5143 13.6127C35.5143 12.3382 36.5512 11.3062 37.8304 11.3062C39.1097 11.3062 40.1466 12.3382 40.1466 13.6127ZM49.5245 15.9192C50.8037 15.9192 51.8406 14.8859 51.8406 13.6127C51.8406 12.3382 50.8037 11.3062 49.5245 11.3062C48.2454 11.3062 47.2083 12.3382 47.2083 13.6127C47.2083 14.8859 48.2454 15.9192 49.5245 15.9192ZM5.06438 24.51C5.06438 25.7842 4.0274 26.8162 2.74823 26.8162C1.46906 26.8162 0.432129 25.7842 0.432129 24.51C0.432129 23.2362 1.46906 22.2039 2.74823 22.2039C4.0274 22.2039 5.06438 23.2362 5.06438 24.51ZM14.4424 26.8162C15.7215 26.8162 16.7585 25.7842 16.7585 24.51C16.7585 23.2362 15.7215 22.2039 14.4424 22.2039C13.1632 22.2039 12.1261 23.2362 12.1261 24.51C12.1261 25.7842 13.1632 26.8162 14.4424 26.8162ZM28.4525 24.51C28.4525 25.7842 27.4155 26.8162 26.1364 26.8162C24.8572 26.8162 23.8203 25.7842 23.8203 24.51C23.8203 23.2362 24.8572 22.2039 26.1364 22.2039C27.4155 22.2039 28.4525 23.2362 28.4525 24.51ZM37.8304 26.8162C39.1097 26.8162 40.1466 25.7842 40.1466 24.51C40.1466 23.2362 39.1097 22.2039 37.8304 22.2039C36.5512 22.2039 35.5143 23.2362 35.5143 24.51C35.5143 25.7842 36.5512 26.8162 37.8304 26.8162ZM51.8406 24.51C51.8406 25.7842 50.8037 26.8162 49.5245 26.8162C48.2454 26.8162 47.2083 25.7842 47.2083 24.51C47.2083 23.2362 48.2454 22.2039 49.5245 22.2039C50.8037 22.2039 51.8406 23.2362 51.8406 24.51ZM2.74823 37.7145C4.0274 37.7145 5.06438 36.6812 5.06438 35.4077C5.06438 34.1339 4.0274 33.1012 2.74823 33.1012C1.46906 33.1012 0.432129 34.1339 0.432129 35.4077C0.432129 36.6812 1.46906 37.7145 2.74823 37.7145ZM16.7585 35.4077C16.7585 36.6812 15.7215 37.7145 14.4424 37.7145C13.1632 37.7145 12.1261 36.6812 12.1261 35.4077C12.1261 34.1339 13.1632 33.1012 14.4424 33.1012C15.7215 33.1012 16.7585 34.1339 16.7585 35.4077ZM26.1364 37.7145C27.4155 37.7145 28.4525 36.6812 28.4525 35.4077C28.4525 34.1339 27.4155 33.1012 26.1364 33.1012C24.8572 33.1012 23.8203 34.1339 23.8203 35.4077C23.8203 36.6812 24.8572 37.7145 26.1364 37.7145ZM40.1466 35.4077C40.1466 36.6812 39.1097 37.7145 37.8304 37.7145C36.5512 37.7145 35.5143 36.6812 35.5143 35.4077C35.5143 34.1339 36.5512 33.1012 37.8304 33.1012C39.1097 33.1012 40.1466 34.1339 40.1466 35.4077ZM49.5245 37.7145C50.8037 37.7145 51.8406 36.6812 51.8406 35.4077C51.8406 34.1339 50.8037 33.1012 49.5245 33.1012C48.2454 33.1012 47.2083 34.1339 47.2083 35.4077C47.2083 36.6812 48.2454 37.7145 49.5245 37.7145ZM5.06438 46.3057C5.06438 47.5789 4.0274 48.6122 2.74823 48.6122C1.46906 48.6122 0.432129 47.5789 0.432129 46.3057C0.432129 45.0319 1.46906 43.9989 2.74823 43.9989C4.0274 43.9989 5.06438 45.0319 5.06438 46.3057ZM14.4424 48.6122C15.7215 48.6122 16.7585 47.5789 16.7585 46.3057C16.7585 45.0319 15.7215 43.9989 14.4424 43.9989C13.1632 43.9989 12.1261 45.0319 12.1261 46.3057C12.1261 47.5789 13.1632 48.6122 14.4424 48.6122ZM28.4525 46.3057C28.4525 47.5789 27.4155 48.6122 26.1364 48.6122C24.8572 48.6122 23.8203 47.5789 23.8203 46.3057C23.8203 45.0319 24.8572 43.9989 26.1364 43.9989C27.4155 43.9989 28.4525 45.0319 28.4525 46.3057ZM37.8304 48.6122C39.1097 48.6122 40.1466 47.5789 40.1466 46.3057C40.1466 45.0319 39.1097 43.9989 37.8304 43.9989C36.5512 43.9989 35.5143 45.0319 35.5143 46.3057C35.5143 47.5789 36.5512 48.6122 37.8304 48.6122ZM51.8406 46.3057C51.8406 47.5789 50.8037 48.6122 49.5245 48.6122C48.2454 48.6122 47.2083 47.5789 47.2083 46.3057C47.2083 45.0319 48.2454 43.9989 49.5245 43.9989C50.8037 43.9989 51.8406 45.0319 51.8406 46.3057ZM2.74823 59.5102C4.0274 59.5102 5.06438 58.4772 5.06438 57.2034C5.06438 55.9303 4.0274 54.8969 2.74823 54.8969C1.46906 54.8969 0.432129 55.9303 0.432129 57.2034C0.432129 58.4772 1.46906 59.5102 2.74823 59.5102ZM16.7585 57.2034C16.7585 58.4772 15.7215 59.5102 14.4424 59.5102C13.1632 59.5102 12.1261 58.4772 12.1261 57.2034C12.1261 55.9303 13.1632 54.8969 14.4424 54.8969C15.7215 54.8969 16.7585 55.9303 16.7585 57.2034ZM26.1364 59.5102C27.4155 59.5102 28.4525 58.4772 28.4525 57.2034C28.4525 55.9303 27.4155 54.8969 26.1364 54.8969C24.8572 54.8969 23.8203 55.9303 23.8203 57.2034C23.8203 58.4772 24.8572 59.5102 26.1364 59.5102ZM40.1466 57.2034C40.1466 58.4772 39.1097 59.5102 37.8304 59.5102C36.5512 59.5102 35.5143 58.4772 35.5143 57.2034C35.5143 55.9303 36.5512 54.8969 37.8304 54.8969C39.1097 54.8969 40.1466 55.9303 40.1466 57.2034ZM49.5245 59.5102C50.8037 59.5102 51.8406 58.4772 51.8406 57.2034C51.8406 55.9303 50.8037 54.8969 49.5245 54.8969C48.2454 54.8969 47.2083 55.9303 47.2083 57.2034C47.2083 58.4772 48.2454 59.5102 49.5245 59.5102ZM5.06438 68.1014C5.06438 69.3753 4.0274 70.4079 2.74823 70.4079C1.46906 70.4079 0.432129 69.3753 0.432129 68.1014C0.432129 66.8279 1.46906 65.7946 2.74823 65.7946C4.0274 65.7946 5.06438 66.8279 5.06438 68.1014ZM14.4424 70.4079C15.7215 70.4079 16.7585 69.3753 16.7585 68.1014C16.7585 66.8279 15.7215 65.7946 14.4424 65.7946C13.1632 65.7946 12.1261 66.8279 12.1261 68.1014C12.1261 69.3753 13.1632 70.4079 14.4424 70.4079ZM28.4525 68.1014C28.4525 69.3753 27.4155 70.4079 26.1364 70.4079C24.8572 70.4079 23.8203 69.3753 23.8203 68.1014C23.8203 66.8279 24.8572 65.7946 26.1364 65.7946C27.4155 65.7946 28.4525 66.8279 28.4525 68.1014ZM37.8304 70.4079C39.1097 70.4079 40.1466 69.3753 40.1466 68.1014C40.1466 66.8279 39.1097 65.7946 37.8304 65.7946C36.5512 65.7946 35.5143 66.8279 35.5143 68.1014C35.5143 69.3753 36.5512 70.4079 37.8304 70.4079ZM51.8406 68.1014C51.8406 69.3753 50.8037 70.4079 49.5245 70.4079C48.2454 70.4079 47.2083 69.3753 47.2083 68.1014C47.2083 66.8279 48.2454 65.7946 49.5245 65.7946C50.8037 65.7946 51.8406 66.8279 51.8406 68.1014ZM2.74823 81.3052C4.0274 81.3052 5.06438 80.2729 5.06438 78.998C5.06438 77.7249 4.0274 76.6929 2.74823 76.6929C1.46906 76.6929 0.432129 77.7249 0.432129 78.998C0.432129 80.2729 1.46906 81.3052 2.74823 81.3052ZM16.7585 78.998C16.7585 80.2729 15.7215 81.3052 14.4424 81.3052C13.1632 81.3052 12.1261 80.2729 12.1261 78.998C12.1261 77.7249 13.1632 76.6929 14.4424 76.6929C15.7215 76.6929 16.7585 77.7249 16.7585 78.998ZM26.1364 81.3052C27.4155 81.3052 28.4525 80.2729 28.4525 78.998C28.4525 77.7249 27.4155 76.6929 26.1364 76.6929C24.8572 76.6929 23.8203 77.7249 23.8203 78.998C23.8203 80.2729 24.8572 81.3052 26.1364 81.3052ZM40.1466 78.998C40.1466 80.2729 39.1097 81.3052 37.8304 81.3052C36.5512 81.3052 35.5143 80.2729 35.5143 78.998C35.5143 77.7249 36.5512 76.6929 37.8304 76.6929C39.1097 76.6929 40.1466 77.7249 40.1466 78.998ZM49.5245 81.3052C50.8037 81.3052 51.8406 80.2729 51.8406 78.998C51.8406 77.7249 50.8037 76.6929 49.5245 76.6929C48.2454 76.6929 47.2083 77.7249 47.2083 78.998C47.2083 80.2729 48.2454 81.3052 49.5245 81.3052Z" fill="#0C4DA2"/>
</svg>
