<svg id="svg" xmlns="http://www.w3.org/2000/svg" xmlns:xlink="http://www.w3.org/1999/xlink" width="400" height="184.56883509833585" viewBox="0, 0, 400,184.56883509833585"><g id="svgg"><path id="path0" d="M191.225 8.768 C 116.838 13.517,53.736 17.714,50.999 18.096 C 28.204 21.274,9.474 34.560,2.495 52.501 L 0.908 56.581 0.729 85.113 C 0.527 117.338,0.623 118.296,4.854 126.429 C 12.304 140.749,28.492 151.709,47.337 155.193 C 56.716 156.926,330.318 183.964,338.484 183.964 C 365.862 183.964,389.309 170.079,397.505 149.012 L 399.092 144.932 399.092 91.982 L 399.092 39.032 397.505 34.952 C 390.718 17.506,373.371 4.847,350.810 0.876 C 342.008 -0.673,329.220 -0.040,191.225 8.768 " stroke="none" fill="#000000" fill-rule="evenodd"></path></g></svg>