<svg width="476" height="111" viewBox="0 0 476 111" fill="none" xmlns="http://www.w3.org/2000/svg">
<path fill-rule="evenodd" clip-rule="evenodd" d="M110.416 55.2051C110.416 24.7162 85.6985 0 55.2076 0C24.7179 0 0 24.7162 0 55.2051C0 85.6943 24.7179 110.41 55.2076 110.41C85.6985 110.41 110.416 85.6943 110.416 55.2051ZM188.176 110.412C166.223 110.412 148.429 92.6164 148.429 70.6644V39.7506C148.429 17.7982 166.223 0.00244241 188.176 0.00244241H562V110.412H188.176Z" fill="#B6BBBA"/>
<path fill-rule="evenodd" clip-rule="evenodd" d="M110.416 55.2051C110.416 24.7162 85.6985 0 55.2076 0C24.7179 0 0 24.7162 0 55.2051C0 85.6943 24.7179 110.41 55.2076 110.41C85.6985 110.41 110.416 85.6943 110.416 55.2051ZM188.176 110.412C166.223 110.412 148.429 92.6164 148.429 70.6644V39.7506C148.429 17.7982 166.223 0.00244241 188.176 0.00244241H562V110.412H188.176Z" fill="url(#paint0_linear_12:340)"/>
<defs>
<linearGradient id="paint0_linear_12:340" x1="0" y1="110.412" x2="562" y2="110.412" gradientUnits="userSpaceOnUse">
<stop stop-color="#00BAB3"/>
<stop offset="1" stop-color="#0364C7"/>
</linearGradient>
</defs>
</svg>
