<svg width="750" height="400" xmlns="http://www.w3.org/2000/svg">

 <g>
  <title>background</title>
  <rect fill="none" id="canvas_background" height="402" width="752" y="-1" x="-1"/>
 </g>
 <g>
  <title>Layer 1</title>
  <svg y="3.437523" x="16.437523" id="svg_uz" viewBox="0 0 520 369" height="369" width="520">
   <path id="map_uz" fill="#00B0AD" d="m519.73,241.467l-0.269,-1.056c0,0 -0.906,-0.005 -1.151,-0.029c-0.245,-0.023 -1.564,-0.027 -1.564,-0.027c0,0 -0.642,0.679 -0.862,0.823c-0.221,0.143 -1.61,0.874 -1.61,0.874l-0.864,0.411l-1.146,-0.935l-0.485,-0.953l-0.818,-0.492l-2.617,-0.212l-3.014,-0.374c0,0 -0.989,-0.425 -1.149,-0.482c-0.159,-0.056 -1.222,-0.571 -1.222,-0.571c0,0 -0.108,-1.866 -0.289,-2.13c-0.18,-0.265 0.087,-0.898 0.099,-1.021c0.012,-0.123 -0.703,-0.398 -0.855,-0.536c-0.151,-0.138 -0.633,-0.267 -0.633,-0.267c0,0 -0.403,-0.946 -0.473,-1.076c-0.07,-0.131 -0.497,-0.831 -0.6,-1.047c-0.102,-0.217 -0.767,-0.157 -0.98,-0.095c-0.212,0.061 -1.087,-0.683 -1.087,-0.683l-1.219,-0.612l-0.49,-0.048l-0.938,0.322l-1.757,0.695l-1.137,0.673l-1.39,-0.73l0.24,-0.164l0.58,-1.304l0.477,-1.52c0,0 0.064,-1.519 -0.006,-1.649c-0.07,-0.13 -0.43,-0.66 -0.656,-0.887c-0.225,-0.228 -0.715,-0.275 -0.715,-0.275l-1.498,0.143c0,0 -1.206,0.543 -1.369,0.527c-0.164,-0.016 -1.056,-0.597 -1.178,-0.609c-0.122,-0.011 -1.634,-0.158 -1.634,-0.158l-1.167,0.135l-1.197,-0.405l-0.042,-1.693l0.094,-0.98l0.533,-0.814l0.197,-2.043c0,0 -0.305,-1.1 -0.494,-1.283c-0.188,-0.183 0.174,-1.797 0.174,-1.797l-0.785,-0.406c0,0 -0.749,-0.773 -0.819,-0.903c-0.07,-0.13 -0.36,-1.395 -0.36,-1.395l-0.559,-1.043l-1.402,0.441l-1.216,0.212l-0.051,-0.746l0.266,-1.046l0.311,-1.083c0,0 0.165,-1.715 0.185,-1.919c0.02,-0.204 -0.312,-0.607 -0.312,-0.607l-0.722,0.218l-1.13,1.457l0.072,2.233l0.207,0.844l-0.681,1.501l-0.949,1.721l-1.531,1.335c0,0 -2.258,-0.095 -2.38,-0.106c-0.123,-0.012 -1.8,0.279 -1.8,0.279l0.107,1.453c0,0 -0.705,3.022 -0.61,3.32c0.095,0.298 -0.095,0.98 -0.095,0.98l-0.434,0.659l-0.817,-0.079c0,0 -0.48,-0.582 -0.582,-0.798c-0.103,-0.216 -0.52,-0.587 -0.683,-0.602c-0.164,-0.016 -0.429,0.164 -0.6,0.23c-0.171,0.066 -0.851,0.701 -1.014,0.685c-0.164,-0.016 -0.475,-0.211 -0.475,-0.211l-0.405,-0.492l-0.583,-0.799l-1.084,-0.723c0,0 -0.877,0.122 -1.003,0.151c-0.127,0.028 -0.904,0.819 -0.904,0.819c0,0 -1.109,0.387 -1.44,0.396c-0.33,0.01 -0.732,-0.523 -0.851,-0.577c-0.118,-0.052 -0.725,-1.017 -0.725,-1.017l-0.593,-0.264c0,0 -1.222,0.706 -1.345,0.694c-0.122,-0.012 -1.372,-0.298 -1.528,-0.395c-0.155,-0.097 -0.607,-0.965 -0.607,-0.965l-1.254,-1.523l-0.923,-0.687c0,0 -1.187,0.771 -1.318,0.841c-0.13,0.07 -0.889,0.244 -0.889,0.244l0.478,-4.941l0.001,-2.143l-0.188,-1.46l-0.825,-1.275l-0.778,-0.9l-0.98,-0.095l-0.858,-0.083l-1.162,0.506l-0.798,0.582l-0.886,1.069l-0.353,0.666l-0.083,0.857l-0.445,1.193l-0.202,-1.029l0.018,-0.059l-0.285,-1.305l-4.016,-3.645c0,0 -0.89,-1.034 -1.172,-1.102c-0.281,-0.069 -1.316,-0.458 -1.316,-0.458c0,0 -0.774,0.338 -0.99,0.44c-0.216,0.103 -1.257,0.209 -1.257,0.209l-0.848,-1.031l0.076,-1.641l0.593,-1.013l1.205,-0.956c0,0 1.485,-0.433 1.689,-0.414c0.204,0.021 1.338,-0.2 1.338,-0.2l4.011,-3.114l1.42,-0.193l0.692,-0.758l0.392,-1.074l1.225,-1.159c0,0 1.493,-0.515 1.627,-0.626c0.134,-0.111 0.296,-0.507 0.296,-0.507l0.637,-1.463l1.225,-1.16l1.867,-0.56l2.095,0.078l1.362,-0.445l0.213,-0.927l0.233,-2.409l0.577,-0.851l1.008,-0.191l1.14,0.564l1.701,0.742l2.414,-1.951l2.241,-1.432l1.676,-0.704l1.669,-0.209l0.559,-1.1c0,0 0.278,-1.168 0.294,-1.331c0.016,-0.163 -0.275,-0.563 -0.275,-0.563l-1.129,-0.686l-0.46,-0.787l-1.2,-1.228c0,0 -1.858,-0.386 -1.977,-0.439c-0.118,-0.052 -0.839,-0.699 -0.839,-0.699l-0.928,0.66l-0.754,0.537l-1.371,0.114l-1.559,1.622l-1.994,0.59l-1.205,-0.322l-1.618,0.956l-1.611,1.74l-1.18,1.122c0,0 -0.491,2.096 -0.503,2.218c-0.012,0.123 -0.808,1.117 -1.024,1.22c-0.217,0.102 -1.213,0.171 -1.368,0.074c-0.156,-0.098 -0.992,-1.25 -0.992,-1.25l-0.665,-2.496l-1.266,-0.123l-1.552,-0.15l-1.969,0.757l-0.939,1.187l-0.6,2.786l-1.938,1.296l-2.087,1.117l-0.504,1.806l-1.952,1.006l-1.954,0.594l-1.082,0.967l-1.039,-0.348l-1.027,1.673l-2.017,1.247c0,0 -1.327,-0.334 -1.528,-0.395c-0.2,-0.06 -1.674,-0.162 -1.674,-0.162l-2.642,0.898l-2.146,0.453l-3,2.47l-1.245,1.363c0,0 -0.667,0.925 -0.952,0.897c-0.286,-0.027 -0.549,-0.3 -0.663,-0.393c-0.115,-0.093 -0.55,-0.713 -0.55,-0.713l-0.717,0.178c0,0 -0.797,0.995 -0.85,1.113c-0.052,0.119 -0.573,0.81 -0.573,0.81c0,0 0.487,0.501 0.684,0.602c0.196,0.101 0.458,0.374 0.458,0.374l0.446,0.497l-0.062,0.653l-1.716,-0.166l-1.803,0.32l-1.633,-0.158c0,0 -1.47,-0.142 -1.715,-0.166c-0.245,-0.024 -1,0.109 -1,0.109c0,0 -0.754,0.546 -0.851,0.701c-0.097,0.156 -1.058,1.134 -1.058,1.134l-1.385,0.69l-1.349,0.736l-0.572,1.222l-0.586,1.798l-0.198,2.041l-0.757,0.586l-2.103,0.868l-2.308,0.848l-2.037,1.452l-1.211,1.449l-1.502,1.462l0.46,0.786l0.391,1.068l-0.573,0.811l-2.287,1.056l-0.298,0.56c-0.199,-0.265 -0.441,-0.59 -0.441,-0.59c0,0 -0.114,-1.371 -0.095,-1.576c0.02,-0.204 -0.125,-0.836 -0.125,-0.836c0,0 -0.819,-0.904 -0.942,-0.915c-0.122,-0.013 -0.653,-0.064 -0.653,-0.064c0,0 -1.485,0.434 -1.611,0.463c-0.126,0.028 -0.871,0.904 -0.871,0.904c0,0 -0.662,0.884 -0.715,1.003c-0.053,0.118 0.843,0.658 0.843,0.658l0.899,0.087l0.831,0.781c0,0 0.101,1.082 0.09,1.204c-0.012,0.123 -0.147,1.511 -0.147,1.511l-0.853,1.154l-0.05,0.943l1.302,2.722l0.668,2.043l-0.023,1.523l-0.074,1.188c0,0 0.745,0.814 0.864,0.867c0.118,0.052 -0.103,1.061 -0.103,1.061l-0.827,0.456l-2.491,-0.241l-0.859,-0.495l-2.422,-0.523l-1.294,-1.114l-4.668,-3.296l-0.386,-0.279l0.001,-0.005l-4.896,-4.987l-1.63,-0.405l-1.697,-0.35l0.346,-1.017l1.938,-0.864l2.043,-0.667l0.29,-1.085l0.475,-1.067l-0.06,-1.304l-0.409,-1.523l0.36,-0.522l1.199,-0.254l0.06,-0.613l0.053,-0.551l-0.933,-0.585l-1.381,0.855l-1.32,0.862l-0.407,-0.905c0,0 -0.069,-2.479 -0.04,-2.785c0.03,-0.307 -0.5,-1.223 -0.5,-1.223l-1.531,-0.149l-1.138,0.261c0,0 -1.055,-0.597 -1.276,-0.866c-0.221,-0.268 -1.83,-1.536 -1.83,-1.536l-0.98,-0.095l-4.303,0.387l-4.07,0.533l-2.792,0.101l-14.643,-1.72l-0.391,-0.383l-4.831,-0.251l-1.939,-16.591l-0.975,-13.777l-15.615,-3.901l1.398,-17.009l3.185,0.308l2.371,-24.499l-8.172,2.672l-7.493,-19.683c0,0 -5.076,-4.613 -5.306,-4.8c-0.229,-0.187 -3.899,-4.004 -3.899,-4.004l-3.087,-5.574l-1.784,-3.7168l-1.13,-1.0985l-1.47,-0.1419l-12.63,5.2902l-14.497,-1.815l-23.489,-5.1576l-24.426,2.8296l-12.838,0.0413l-1.852,0l-23.201,-33.1334l-0.423,-5.8515l-4.608,-4.7733l-25.749,-25.2411l-15.1,-11.3521l-25.7412,-18.93429l-81.1593,18.35929l-15.04954,152.9691l15.87814,2.031l7.9032,1.383l5.3469,2.248l2.0112,0.937l0.893,-0.285l-0.6085,-2.655l1.9084,-0.557l1.7745,-0.447l0.229,-1.09l-1.1141,0.015l-1.2767,-0.865l-0.7943,-3.291l0.3837,-2.684l-0.0436,-2.105l-1.3322,-2.85l-0.4387,-3.133l0.8182,-4.619l0.4346,-1.936l2.6913,-0.976l2.8845,-1.699l1.8653,-2.663l1.679,-3.3l1.6006,-1.206l3.9674,-0.109l4.9871,0.853l2.4738,-0.009l3.0112,-0.45l2.1929,0.335l0.0712,-0.734l-0.2368,-1.383l0.5727,-0.81l0.909,0.83l0.4268,-0.577l1.7781,-3.043l0.6915,-2.035l-0.4937,-1.284l-0.7393,-1.308l1.0513,-0.64l1.1619,-0.506l1.7942,-1.928l1.0389,-0.518l1.6795,0.534l0.4942,1.284l0.2487,1.26l1.0274,-0.395l2.94,0.284l1.976,1.305l0.9132,2.066l-0.2689,4.055l3.7976,0.367l0.2409,-1.213l-0.7746,-0.94l-1.8809,-2.284l-1.2449,-2.471l-0.8416,-2.801l-1.6359,-2.26l-2.4899,-1.106l-1.0944,-1.466l3.1534,-1.921l1.7626,-0.324l2.169,0.581l2.3674,1.094l3.7972,0.368l0.7315,-1.166l0.7429,-1.288l1.0389,-0.518l-0.8613,-1.319l0.5217,-1.557l10.1045,11.858l5.8092,1.303l1.881,2.284l0.031,2.229l0.325,1.763l2.343,1.339l2.324,2.821l3.173,0.431l1.284,-0.494l3.809,0.245l2.024,0.813l1.798,-0.691l1.383,-0.237l2.679,2.979l0.961,1.577l-1.21,0.996l-0.731,1.165l0.396,1.028l1.434,0.509l1.09,0.23l-0.446,2.058l-1.023,1.632l-0.905,0.407l-1.091,-0.229l-1.64,0.336l1.648,2.138l1.359,0.008l0.506,1.161l0.909,0.83l0.905,-0.407l0.301,0.548l-0.164,0.166l0.435,0.619l0.935,1.409l0.959,1.164l1.496,0.722l0.959,1.165l0.967,1.082l-0.063,0.653l-0.056,0.572c0,0 -0.448,0.369 -0.692,0.345c-0.245,-0.023 -1.17,-0.69 -1.17,-0.69l-1.686,-1.317l-1.473,-0.967l-1.038,-0.348l-0.872,0.493l-0.95,1.309l-0.08,0.817l1.117,2.086l1.246,1.604l0.725,1.884l-0.624,1.341l-0.87,1.317l-1.138,1.539l-0.532,2.091l0.34,1.599l1.76,1.407l2.326,2.368l1.904,0.761l1.307,0.127c0,0 1.068,1.751 1.452,2.036c0.384,0.284 1.958,1.92 1.958,1.92l1.912,0.679l2.042,0.198l2.502,-1.159l2.695,0.261l4.508,0.271l1.136,0.193l1.391,0.958l1.101,-0.306l0.593,-1.014l0.787,1.231l1.157,1.677c0,0 1.604,1.31 1.841,1.415c0.238,0.105 1.808,0.917 2.298,0.964c0.49,0.048 2.17,-0.284 2.17,-0.284l1.165,-0.959l0.932,-1.97l0.598,-1.921l0.667,-0.924l1.225,0.117l1.243,0.78l2.413,1.471l3.702,3.49l1.728,1.733l2.198,2.85l1.377,1.947l1.075,1.67l0.193,1.42l-0.316,3.266l0.197,3.07l0.714,1.14c0,0 0.216,1.175 0.192,1.42c-0.023,0.245 0.145,1.91 0.145,1.91l0.738,0.895l0.648,0.97l-0.119,1.224l0.507,2.44l-0.056,0.572l0.248,-0.194l0.248,0.488l-0.256,0.202l1.305,1.858l4.145,1.885l-0.166,3.631l1.841,1.415l-0.029,13.72l35.269,32.283l0.325,1.762l13.246,11.976l2.153,-0.533l1.135,-0.188l2.296,0.247l0.908,1.103l3.172,3.645l4.011,3.911l3.181,2.905l1.6,0.71l1.455,0.945l2.347,2.576l1.618,0.528l1.545,0.644l0.739,1.307l1.354,1.986l4.771,4.356l3.47,3.118l5.112,3.4l2.851,1.203l2.732,0.512l1.016,-0.273l0.99,-0.646l2.059,0.446l0.64,1.052l1.844,0.425l1.609,1.578l1.69,1.709l3.442,0.209l0.01,1.176l1.482,1.936l1.493,1.813l1.913,0.68l2.351,-0.02l1.715,0.166l1.417,1.061l1.935,1.47l-0.061,0.096c0,0 0.254,0.354 0.372,0.406c0.119,0.054 0.526,0.958 0.526,0.958l-0.098,1.021l-1.089,0.595l-1.927,1.174l-1.163,1.371l-0.79,1.778l-1.37,5.637l-0.366,1.654l-0.131,1.348l0.784,1.271l0.302,1.142l-0.275,1.993l-0.656,1.668l-0.123,1.265l0.906,0.006l0.966,0.67l0.366,0.901l1.149,0.481l1.243,-0.497l1.431,-0.727l1.229,0.077l1.332,0.294l2.712,-0.767l1.027,-0.396l1.768,0.047l1.102,0.107l0.825,1.275l2.048,2.259l0.622,1.668l0.548,1.577l4.201,1.324c0,0 1.783,-0.127 2.036,-0.184c0.253,-0.059 1.83,-1.019 1.83,-1.019l0.899,-0.778l0.775,-0.337l0.667,0.353l0.223,1.093l0.632,0.72l1.952,0.272l1.621,0.28l1.194,0.445l0.582,0.799l0.892,0.58l0.578,-0.438c0,0 1.442,-2.128 1.495,-2.246c0.053,-0.119 0.516,-0.651 0.532,-0.813c0.008,-0.086 0.022,-0.462 0.029,-0.82c0.007,-0.329 0.009,-0.643 -0.005,-0.704c-0.029,-0.126 -0.381,-1.602 -0.381,-1.602c0,0 -0.414,-1.689 -0.39,-1.934c0.024,-0.245 0.329,-1.699 0.386,-1.858c0.056,-0.16 0.835,-1.815 0.835,-1.815c0,0 1.01,-1.922 1.144,-2.033c0.135,-0.111 1.484,-2.123 1.663,-2.271c0.179,-0.147 1.603,-1.658 1.603,-1.658c0,0 1.885,-1.59 2.015,-1.659c0.131,-0.07 1.446,-2.168 1.446,-2.168c0,0 1.332,-2.262 1.495,-2.246c0.164,0.015 0.33,-1.699 0.33,-1.699l0.208,-1.299l0.802,-0.623l0.902,0.046l1.046,0.266l0.754,0.733l1.173,0.649l0.444,-0.328l-0.039,-0.87l-0.294,-1.223l0.534,-0.835l2.469,-2.089l1.038,-0.93l0.451,-0.822c0,0 0.116,-2.049 0.016,-2.306c-0.098,-0.257 0.103,-1.062 0.103,-1.062l-0.407,-0.905l-0.113,-0.959l-0.98,-0.095l-0.834,-0.327c0,0 -0.23,-0.599 -0.623,-0.802c-0.392,-0.203 0.059,-0.613 0.059,-0.613l0.111,-1.143l-0.365,-0.489l-1.499,-0.268l-0.611,-0.925l-0.391,-1.068l-0.378,-0.778c0,0 -1.005,-0.262 -1.291,-0.29c-0.286,-0.028 -0.972,-0.177 -1.295,-0.249c-0.323,-0.073 -0.312,-0.607 -0.312,-0.607c0,0 0.415,-0.455 0.512,-0.611c0.098,-0.155 0.68,-0.634 0.68,-0.634c0,0 0.27,-1.087 0.305,-1.454c0.036,-0.368 -0.232,-1.012 -0.272,-1.015c-0.041,-0.004 -0.656,-0.889 -0.656,-0.889l-0.335,-1.227l0.539,-1.308l0.357,-0.707l0.122,-1.266l-0.272,-1.016l-0.367,-0.901l0.272,-0.674c0,0 1.122,-0.097 1.248,-0.126c0.127,-0.029 0.686,-0.264 0.686,-0.264l0.034,-0.78l-0.468,-0.704l-0.872,-0.785l-0.166,-0.84l0.713,-0.55l1.313,-0.367l1.469,-0.27l0.745,-0.464l0.099,-1.02l0.13,-1.348l-0.428,-1.113l-1.354,-0.914l-0.531,-1.329l-0.125,-0.836l-0.516,-0.628l-0.824,0.416l-0.595,0.189l-0.748,-0.361l-1.018,-0.551l-1.249,0.126l-1.301,0.245l-1.287,-0.331l-1.47,-0.142l-1.461,0.188l-1.649,0.006l-1.496,-0.31l-0.208,-0.376c0.219,-0.003 0.601,-0.06 0.601,-0.06l0.012,-3.955l-0.858,-0.083l-0.272,-1.015l-0.769,-1.002l-1.152,-0.235l-1.974,-0.685l-2.122,-1.072l-1.974,-0.685l-0.243,-1.322l0.48,-1.128l-0.235,-0.765l0.202,-0.401l0.685,0.178l2.737,-0.168l0.701,-0.859l0.469,-1.006l-0.343,-1.578l-0.329,-1.702l-0.619,-1.914l-0.794,-1.375l1.456,-0.353l0.622,-0.948l1.344,-0.84l0.768,-0.173l0.206,0.328l0.362,0.097l0.753,-0.113l1.576,-0.96l2.134,-0.968l1.488,-0.041l2.505,0.304l1.399,0.877l1.21,0.921l2.254,0.341l1.031,0.842l2.253,1.64l3.663,0.478l2.316,0.348l1.46,0.883l3.643,0.043l2.266,0.22l-0.12,-1.311l0.585,-0.932l1.282,-1.112l0.512,-0.816l0.296,-1.146l-0.375,-0.593l-0.066,-1.243l0.959,-0.958l0.407,-1.012l-0.089,-0.997l0.197,-1.403l1.921,-0.679l1.958,-0.429l1.543,0.025l0.47,-0.387l0.352,-1.078l0.5,-0.694l0.773,0.322l0.029,1.61l1.041,0.101l0.404,-0.332l0.193,-0.723l-0.168,-0.82l-0.751,-1.186l-0.458,-1.651l-0.17,-1.438l0.235,-1.152l0.612,0.059c0,0 1.978,0.006 2.205,0.213c0.228,0.208 1.089,-0.389 1.089,-0.389l1.35,-1.168l0.113,-1.163l-2.573,-0.249l-1.848,0.563l-2.329,1.072l-1.861,0.068l-2.296,0.087l-2.391,-0.849l-1.233,-0.676l-0.486,-0.727l0.64,-0.866l2.049,-0.729l1.053,-0.234l0.082,0.221l0.363,0.076l0.926,-0.199l1.051,-0.64l1.144,0.11l0.656,0.888l1.349,0.543l1.466,-1.095l1.288,-0.534l2.551,0.04l1.9,0.39l2.716,0.469l0.016,-0.164l0.507,0.297l1.149,0.483l2.709,0.962l0.19,-0.682l-0.082,-1.286l0.062,-1.065c0,0 0.659,-0.843 0.838,-0.991c0.179,-0.147 0.765,-0.668 0.765,-0.668l0.053,-1.396c0,0 -0.341,-0.734 -0.46,-0.786c-0.119,-0.052 -0.481,-0.995 -0.481,-0.995l-0.033,-1.363l0.073,-2.878l-0.526,-0.957l-0.755,-1.144l0.153,-0.728c0,0 0.754,-0.545 0.921,-0.57c0.167,-0.025 1.461,-0.189 1.624,-0.173c0.163,0.016 0.627,-0.516 0.627,-0.516c0,0 0.547,-3.945 0.578,-4.271c0.032,-0.327 0.415,-1.733 0.594,-1.88c0.179,-0.147 0.955,-1.35 0.955,-1.35c0,0 1.331,-0.119 1.494,-0.103c0.163,0.016 1.184,0.114 1.184,0.114l1.51,1.012l3.341,4.651l0.654,1.34l1.503,0.228l1.038,-0.929l1.552,-1.128l1.487,-0.887l1.591,-0.258l2.376,0.148l2.043,-0.668l2.152,-0.946l1.033,-1.301c0,0 1.893,-0.394 2.02,-0.423c0.126,-0.029 1.662,-0.992 1.662,-0.992c0,0 2.131,-1.155 2.474,-1.286c0.342,-0.132 1.266,-0.743 1.266,-0.743c0,0 0.28,-0.757 0.292,-0.879c0.012,-0.122 0.122,-1.266 0.122,-1.266l0.505,-1.805l1.116,-0.882c0,0 1.203,-0.089 1.497,-0.143c0.294,-0.054 0.874,-0.081 0.874,-0.081l0.043,-0.126l0.491,0.137l-0.719,1.043l0.54,0.383c0,0 1.095,0.187 1.217,0.199c0.123,0.013 1.034,0.389 1.034,0.389l0.04,0.869c0,0 -0.425,0.99 -0.442,1.152c-0.015,0.164 0.677,1.097 0.677,1.097l2.599,3.383l0.024,1.033c0,0 -0.603,0.271 -0.701,0.427c-0.097,0.155 0.149,0.591 0.149,0.591l1.194,0.445l0.954,0.793l0.959,1.164c0,0 0.337,-0.141 0.675,-0.265l0.244,0.56l-1.154,0.425l-1.116,0.881c0,0 -0.672,0.553 -0.985,0.811c-0.314,0.258 -0.57,0.357 -0.786,0.46c-0.216,0.102 -1.207,0.542 -1.207,0.542c0,0 -0.892,0.697 -0.989,0.853c-0.098,0.155 -1.079,0.926 -1.091,1.048c-0.012,0.122 -0.394,0.663 -0.532,0.814c-0.138,0.152 -0.856,0.329 -0.856,0.329c0,0 -1.33,0.119 -1.584,0.177c-0.253,0.057 -0.462,0.944 -0.462,0.944l-0.573,0.81c0,0 -0.977,0.73 -1.141,0.714c-0.163,-0.016 -1.839,0.275 -2.378,0.305c-0.539,0.031 -0.82,0.375 -0.82,0.375l-0.361,0.748c0,0 0.335,1.228 0.364,1.354c0.029,0.126 0.547,1.165 0.547,1.165l1.443,0.841c0,0 1.627,0.652 1.909,0.72c0.282,0.069 1.394,0.506 1.394,0.506l0.37,0.86l0.108,1.865c0,0 0.333,1.456 0.477,1.977c0.026,0.094 0.046,0.157 0.056,0.177c0.07,0.13 0.433,1.072 0.433,1.072c0,0 0.85,0.577 1.006,0.674c0.155,0.098 1.413,0.302 1.413,0.302l1.856,-0.439l1.51,-0.266l1.488,-0.474c0,0 3.59,0.389 3.835,0.412c0.245,0.023 0.583,-0.068 0.595,-0.19c0.012,-0.122 -0.361,-0.529 -0.361,-0.529c0,0 -0.501,-0.79 -0.444,-0.95c0.057,-0.16 0.235,-0.719 0.235,-0.719c0,0 1.66,-0.128 1.865,-0.108c0.204,0.02 1.478,0.061 1.82,-0.071c0.343,-0.131 0.692,-0.757 0.842,-1.031c0.15,-0.274 1.514,-0.307 1.644,-0.377c0.13,-0.07 1.481,-0.393 1.481,-0.393l2.251,0.589l0.684,1.015c0,0 1.083,0.31 1.246,0.326c0.164,0.016 1.022,0.099 1.181,0.155c0.159,0.057 0.418,0.783 0.418,0.783c0,0 0.875,0.331 1.161,0.359c0.286,0.028 1.47,0.142 1.593,0.154c0.122,0.012 0.267,0.644 0.337,0.775c0.07,0.13 0.285,0.893 0.399,0.986c0.114,0.094 0.668,0.765 0.668,0.765c0,0 0.495,0.419 0.655,0.476c0.159,0.057 0.804,0.201 1.143,0.111c0.338,-0.091 0.084,-0.446 0.1,-0.609c0.016,-0.163 0.095,-0.98 0.111,-1.143c0.016,-0.164 0.782,-0.419 0.909,-0.448c0.126,-0.029 0.698,0.026 0.857,0.083c0.16,0.056 0.489,0.913 0.489,0.913c0,0 -0.161,2.086 -0.184,2.331c-0.024,0.245 0.354,1.023 0.354,1.023l0.81,0.573l0.415,-0.454l0.786,-0.458c0,0 0.698,0.024 0.817,0.077c0.118,0.053 0.847,-0.66 0.981,-0.77c0.135,-0.111 0.622,-0.888 0.622,-0.888l0.479,-0.696c0,0 0.571,-0.357 0.734,-0.341c0.163,0.016 0.594,0.676 0.786,0.818c0.193,0.142 1.144,0.11 1.266,0.123c0.123,0.012 1.004,-0.151 1.004,-0.151c0,0 1.648,-0.417 1.77,-0.405c0.123,0.011 0.338,-0.504 0.338,-0.504l-0.243,-0.477l-0.589,-0.303c0,0 -1.002,-0.716 -1.125,-0.727c-0.122,-0.012 -0.255,-0.767 -0.255,-0.767l0.496,-0.446l0.787,-0.46l1.255,-0.62l0.851,-0.701l0.009,-0.947l0.482,-1.148l1.003,-0.563c0,0 1.382,-0.65 1.508,-0.679c0.126,-0.029 0.705,-0.467 0.705,-0.467l0,-0.005l0.484,-0.325l0.014,0.509l0.005,0.158l1.128,0.274l1.335,1.53l1.254,1.523c0,0 1.672,0.615 1.966,0.561c0.293,-0.054 0.66,-0.43 0.66,-0.43l0.322,-1.206l0.277,-1.58c0,0 -0.289,-0.853 -0.359,-0.983c-0.07,-0.13 -0.467,-0.705 -0.467,-0.705l0.716,-0.589l-0.337,-0.775c0,0 -0.37,-0.861 -0.526,-0.958c-0.155,-0.097 0.36,-1.16 0.36,-1.16l0.759,-0.174l0.987,1.291l1.225,0.984l1.132,0.645l1.24,0.82c0,0 0.806,0.614 0.929,0.626c0.122,0.012 1.441,0.016 1.441,0.016c0,0 0.528,-0.773 0.54,-0.896c0.012,-0.122 0.25,-0.882 0.38,-0.952c0.13,-0.07 0.914,-0.076 0.914,-0.076l1.359,-0.405l0.816,-1.199l-0.065,-1.036l-0.133,-0.755l0.763,-0.214l0.866,0.001l1.144,-0.755l1.043,-0.558c0,0 1.448,-0.478 1.582,-0.589c0.135,-0.111 1.104,-0.758 1.238,-0.869c0.135,-0.111 1.164,-0.094 1.327,-0.078c0.163,0.016 2.59,0.065 2.59,0.065l1.397,-0.38l0.469,-1.438l-0.142,-1.086zm-78.11,14.291c0.115,-0.311 0.353,-0.569 0.675,-0.788l-0.675,0.788z" clip-rule="evenodd" fill-rule="evenodd"/>
  </svg>
  <svg y="150.523145" x="411.325469" id="svg_kg" viewBox="0 0 322 149" height="149" width="322">
   <path id="map_kg" fill="#E2F4FE" d="m321.348,44.1246c-1.303,-2.5275 -4.46,-3.2111 -7.546,-5.1332c-3.086,-1.9225 -10.454,-5.4322 -13.138,-5.5499c-2.684,-0.1179 -5.583,-5.9643 -6.953,-9.102c-1.37,-3.1375 -3.308,-3.9516 -4.929,-5.6229c-1.622,-1.672 -6.833,-0.4874 -13.913,-1.3579c-7.08,-0.8709 -9.989,-1.1686 -12.267,-1.3308c-2.277,-0.1628 -12.989,-0.4311 -16.057,-0.3019c-3.068,0.1289 -7.848,-0.3762 -11.071,-1.6679c-3.223,-1.2905 -3.064,-1.7195 -5.678,-3.077c-2.613,-1.35831 -7.49,1.0226 -8.867,1.5841c-1.376,0.5598 -7.918,0.8636 -11.233,0.609c-3.314,-0.2546 -6.652,-0.7115 -13.868,-0.9511c-7.216,-0.2393 -5.054,0.757 -7.896,1.067c-2.842,0.3107 -10.576,-0.8995 -13.998,-4.01761c-3.423,-3.11767 -3.965,-2.44241 -6.512,-3.19158c-2.547,-0.74917 -5.751,0.01058 -9.72,-0.58274c-3.969,-0.59406 -3.492,-1.87874 -5.316,-3.52787c-1.824,-1.65047 -4.168,-2.4208 -8.792,-1.5052c-4.626,0.91501 -6.299,2.53598 -8.487,3.18607c-2.189,0.64934 -4.854,2.58291 -6.866,4.85606c-2.011,2.27287 -2.539,6.85027 -4.333,13.00277c-1.794,6.1521 -5.036,2.8102 -5.036,2.8102l-6.939,-3.352c0,0 -6.084,-3.032 -10.049,-5.4753c-3.9647,-2.4442 -11.4071,-2.8627 -15.3716,-5.3061c-3.9644,-2.44379 -9.1551,-1.05377 -12.8542,-1.06271c-3.6995,-0.00715 -8.5266,0.93111 -13.8054,1.50701c-5.2786,0.5759 -3.3443,3.2418 -3.8016,6.5776c-0.3899,2.845 -1.4358,5.1639 -2.271,7.8834c1.6071,0.9345 4.09,1.9011 7.8709,2.234c1.014,0.0895 2.6346,0.9026 4.3074,2.0852l0.9313,-0.6632c0,0 0.7232,0.6495 0.842,0.7021c0.1191,0.0526 1.9838,0.4396 1.9838,0.4396l1.2043,1.2331l0.4611,0.7885l1.1328,0.6887c0,0 0.2921,0.4002 0.2763,0.5642c-0.0161,0.1638 -0.295,1.3357 -0.295,1.3357l-0.5615,1.1036l-1.6744,0.21l-1.6815,0.7056l-2.2482,1.4365l-2.4224,1.9569l-1.7063,-0.7442l-1.1447,-0.565l-1.0111,0.1911l-0.579,0.8542l-0.2337,2.4166l-0.2141,0.9301l-1.3666,0.4467l-2.1014,-0.0796l-1.8744,0.5632l-1.229,1.1631l-0.6382,1.468c0,0 -0.1626,0.3973 -0.2976,0.5085c-0.1346,0.1107 -1.6322,0.6279 -1.6322,0.6279l-1.2291,1.1623l-0.3938,1.0783l-0.6939,0.7602l-1.4248,0.1932l-4.0244,3.1245c0,0 -1.1379,0.2211 -1.3427,0.201c-0.2051,-0.0198 -1.6947,0.4148 -1.6947,0.4148l-1.2091,0.9584l-0.5947,1.0167l-0.0767,1.6468l0.8511,1.0336c0,0 1.0442,-0.1064 1.2609,-0.2092c0.2167,-0.103 0.9937,-0.4412 0.9937,-0.4412c0,0 1.0378,0.3895 1.3205,0.4586c0.2831,0.0687 1.175,1.1056 1.175,1.1056l4.0298,3.6562l0.2869,1.3097l-0.0186,0.0594l0.2025,1.0332l0.4466,-1.1972l0.0834,-0.8603l0.3542,-0.6686l0.8894,-1.0715l0.8008,-0.584l1.166,-0.5075l0.8603,0.0833l0.9831,0.095l0.7812,0.9027l0.8275,1.279l0.189,1.4651l-0.0013,2.1498l-0.4797,4.9566c0,0 0.7612,-0.1743 0.8922,-0.2444c0.1308,-0.0704 1.3225,-0.8439 1.3225,-0.8439l0.9257,0.689l1.2581,1.5278c0,0 0.4534,0.8705 0.6095,0.9687c0.1559,0.0977 1.4101,0.3841 1.5331,0.3963c0.123,0.0116 1.3495,-0.6969 1.3495,-0.6969l0.5947,0.2647c0,0 0.6092,0.9685 0.7284,1.0215c0.1188,0.0526 0.5219,0.5875 0.8536,0.5783c0.3317,-0.0093 1.4445,-0.3976 1.4445,-0.3976c0,0 0.7799,-0.7932 0.9067,-0.8218c0.1269,-0.0291 1.0073,-0.1505 1.0073,-0.1505l1.0877,0.7253l0.5841,0.8004l0.4073,0.4943c0,0 0.3117,0.1958 0.4756,0.2119c0.1639,0.0157 0.8459,-0.6217 1.0178,-0.6877c0.1717,-0.0663 0.4373,-0.247 0.6012,-0.2311c0.1639,0.0158 0.5828,0.3873 0.6862,0.6041c0.103,0.2166 0.5841,0.8004 0.5841,0.8004l0.8195,0.0793l0.436,-0.6604c0,0 0.1903,-0.6845 0.0953,-0.9833c-0.0953,-0.2987 0.6118,-3.3313 0.6118,-3.3313l-0.1069,-1.4571c0,0 1.6824,-0.2922 1.8051,-0.2802c0.123,0.0116 2.3883,0.1069 2.3883,0.1069l1.5359,-1.3401l0.9528,-1.7266l0.6833,-1.5052l-0.2073,-0.8469l-0.0728,-2.2398l1.1341,-1.4618l0.7241,-0.219c0,0 0.333,0.4044 0.3134,0.6091c-0.02,0.205 -0.1865,1.9255 -0.1865,1.9255l-0.312,1.0862l-0.2669,1.0485l0.0518,0.7497l1.2197,-0.213l1.4075,-0.4426l0.5606,1.0465c0,0 0.2908,1.2688 0.3606,1.3993c0.0702,0.1305 0.8224,0.9064 0.8224,0.9064l0.7876,0.4073c0,0 -0.3635,1.6185 -0.1745,1.8019c0.189,0.184 0.4959,1.2885 0.4959,1.2885l-0.1984,2.048l-0.5338,0.8166l-0.0954,0.9832l0.0422,1.6991l1.2017,0.4057l1.1711,-0.1347c0,0 1.516,0.1466 1.6387,0.1582c0.123,0.0122 1.0179,0.5947 1.1818,0.6108c0.1639,0.0156 1.3746,-0.5288 1.3746,-0.5288l1.5024,-0.1438c0,0 0.4917,0.0475 0.7178,0.2761c0.226,0.2283 0.5883,0.7597 0.6581,0.8904c0.0702,0.1311 0.0055,1.6542 0.0055,1.6542l-0.4785,1.525l-0.5815,1.3084l-0.2412,0.164l1.3952,0.7331l1.1405,-0.6754l1.7634,-0.6975l0.941,-0.3223l0.492,0.0474l1.222,0.6142c0,0 0.879,0.7468 1.092,0.6847c0.213,-0.0626 0.88,-0.1221 0.983,0.095c0.103,0.2167 0.531,0.9194 0.601,1.0506c0.07,0.1305 0.475,1.0797 0.475,1.0797c0,0 0.484,0.1289 0.636,0.2679c0.152,0.1388 0.869,0.4149 0.857,0.538c-0.012,0.1226 -0.28,0.7581 -0.099,1.0239c0.181,0.2657 0.29,2.1366 0.29,2.1366c0,0 1.066,0.5164 1.226,0.5735c0.16,0.0567 1.153,0.4836 1.153,0.4836l3.024,0.3749l2.626,0.2126l0.821,0.4929l0.486,0.9566l1.15,0.9385l0.867,-0.4121c0,0 1.394,-0.7338 1.615,-0.8778c0.221,-0.1439 0.866,-0.826 0.866,-0.826c0,0 1.323,0.004 1.569,0.0277c0.246,0.0243 1.155,0.0294 1.155,0.0294l0.269,1.0595l0.143,1.0892l-0.47,1.4427l-1.402,0.381c0,0 -2.435,-0.0494 -2.599,-0.0652c-0.164,-0.0161 -1.196,-0.0328 -1.331,0.0776c-0.135,0.1115 -1.107,0.7614 -1.242,0.8726c-0.135,0.1107 -1.588,0.5909 -1.588,0.5909l-1.046,0.5598l-1.149,0.7575l-0.868,-0.002l-0.765,0.216l0.133,0.757l0.065,1.04l-0.82,1.202l-1.362,0.406c0,0 -0.787,0.007 -0.917,0.077c-0.131,0.07 -0.371,0.832 -0.383,0.955c-0.011,0.123 -0.541,0.899 -0.541,0.899c0,0 -1.323,-0.004 -1.446,-0.016c-0.123,-0.012 -0.932,-0.628 -0.932,-0.628l-1.244,-0.823l-1.136,-0.648l-1.228,-0.987l-0.992,-1.294l-0.761,0.174c0,0 -0.517,1.066 -0.361,1.164c0.156,0.098 0.528,0.961 0.528,0.961l0.338,0.777l-0.719,0.591c0,0 0.399,0.577 0.469,0.707c0.07,0.131 0.36,0.986 0.36,0.986l-0.278,1.586l-0.324,1.209c0,0 -0.367,0.378 -0.662,0.432c-0.295,0.054 -1.9715,-0.563 -1.9715,-0.563l-1.2584,-1.527l-1.3402,-1.536l-1.1315,-0.274l-0.0045,-0.159l-0.0141,-0.51l-0.4856,0.326l-0.0007,0.005c0,0 -0.5799,0.439 -0.7071,0.468c-0.1268,0.03 -1.5131,0.681 -1.5131,0.681l-1.0059,0.564l-0.4836,1.152l-0.0094,0.951l-0.8536,0.702l-1.2597,0.623l-0.7889,0.461l-0.4984,0.448c0,0 0.1336,0.757 0.2566,0.769c0.1227,0.012 1.1286,0.729 1.1286,0.729l0.5909,0.305l0.2431,0.479c0,0 -0.2154,0.516 -0.3384,0.504c-0.123,-0.011 -1.7762,0.407 -1.7762,0.407c0,0 -0.8845,0.163 -1.0072,0.151c-0.123,-0.012 -1.0771,0.02 -1.2703,-0.123c-0.1928,-0.143 -0.625,-0.805 -0.7889,-0.82c-0.1639,-0.016 -0.7364,0.342 -0.7364,0.342l-0.481,0.698c0,0 -0.4888,0.779 -0.6238,0.89c-0.1349,0.111 -0.8655,0.826 -0.9846,0.773c-0.1189,-0.052 -0.8195,-0.078 -0.8195,-0.078l-0.7889,0.46l-0.4164,0.456l-0.8127,-0.575c0,0 -0.3793,-0.78 -0.3558,-1.027c0.0238,-0.245 0.1851,-2.338 0.1851,-2.338c0,0 -0.3303,-0.859 -0.4904,-0.916c-0.1597,-0.057 -0.7335,-0.112 -0.8604,-0.083c-0.1268,0.029 -0.8961,0.285 -0.9119,0.449c-0.0157,0.164 -0.0949,0.983 -0.111,1.147c-0.0158,0.164 0.2392,0.52 -0.1005,0.611c-0.3397,0.091 -0.9873,-0.054 -1.147,-0.112c-0.16,-0.056 -0.6569,-0.476 -0.6569,-0.476c0,0 -0.5551,-0.674 -0.6704,-0.768c-0.1149,-0.094 -0.3303,-0.859 -0.4002,-0.99c-0.0702,-0.13 -0.2154,-0.765 -0.3384,-0.777c-0.123,-0.011 -1.3112,-0.126 -1.5981,-0.154c-0.2866,-0.028 -1.1644,-0.361 -1.1644,-0.361c0,0 -0.2601,-0.728 -0.4202,-0.785c-0.16,-0.057 -1.0204,-0.14 -1.1843,-0.156c-0.1639,-0.015 -1.2503,-0.328 -1.2503,-0.328l-0.6872,-1.017l-2.2588,-0.59c0,0 -1.3546,0.323 -1.4857,0.393c-0.1307,0.07 -1.4986,0.103 -1.6493,0.378c-0.1507,0.275 -0.501,0.903 -0.8446,1.035c-0.3436,0.132 -1.6216,0.091 -1.8267,0.071c-0.2048,-0.02 -1.8715,0.109 -1.8715,0.109c0,0 -0.1783,0.561 -0.235,0.721c-0.057,0.16 0.4453,0.953 0.4453,0.953c0,0 0.3742,0.408 0.3623,0.531c-0.012,0.123 -0.3517,0.214 -0.5977,0.19c-0.2457,-0.023 -3.8472,-0.413 -3.8472,-0.413l-1.4935,0.475l-1.5147,0.267l-1.8621,0.44c0,0 -1.2622,-0.204 -1.4184,-0.302c-0.1558,-0.098 -1.0098,-0.677 -1.0098,-0.677c0,0 -0.3632,-0.944 -0.4334,-1.075c-0.0106,-0.02 -0.0306,-0.084 -0.0564,-0.177c-0.6678,0.631 -1.4332,1.218 -2.1895,1.706c-1.7276,1.113 -3.8257,1.649 -5.3266,2.018c-1.5005,0.37 -1.9194,1.237 -5.4041,1.309c-3.485,0.071 -5.8759,0.745 -7.8478,-0.376c-1.9716,-1.119 -2.9389,-2.452 -4.9581,-2.129c-2.0193,0.323 -2.1207,0.335 -5.4834,1.524c-3.3629,1.188 -9.30996,3.173 -10.24924,4.918c-0.93895,1.745 -4.16764,3.227 -2.92118,6.172c1.24646,2.945 1.10961,3.576 2.95725,4.504c1.84763,0.928 4.14542,2.218 7.92377,2.011c3.778,-0.207 13.0925,0.42 17.5013,0.35c4.4092,-0.07 8.6139,0.805 9.4462,1.844c0.8327,1.039 -2.2723,2.712 4.3577,3.221c6.6303,0.509 12.3074,-1.137 16.0984,-2.167c3.7905,-1.031 9.5234,-3.094 10.9599,0.652c1.4361,3.746 1.1994,9.112 4.0166,10.448c2.8172,1.336 5.501,1.453 9.4027,1.438c3.9017,-0.015 8.8621,0.265 12.7899,-1.396c3.9287,-1.66 5.08,-2.401 11.348,-1.443c6.269,0.958 6.915,4.996 10.192,1.147c3.278,-3.849 1.524,-6.74 9.099,-5.101c0.833,0.18 1.619,0.33 2.371,0.456c0.919,-0.746 1.097,-3.493 1.156,-6.501c0.064,-3.191 0.991,-5.038 4.139,-11.953c3.149,-6.916 8.935,-7.549 14.171,-9.455c5.235,-1.908 6.766,-5.77 10.265,-7.59c3.499,-1.819 4.403,-2.945 6.615,-3.392c2.211,-0.448 6.201,0.35 10.081,0.133c3.88,-0.218 4.215,0.977 5.183,2.309c0.968,1.332 3.153,2.531 7.21,3.937c4.056,1.406 10.734,0.472 10.734,0.472c0,0 13.857,-4.799 15.574,-6.012c1.716,-1.215 1.997,-6.1754 5.116,-9.5966c3.119,-3.4216 6.071,-2.7171 10.652,-4.0379c4.581,-1.3209 9.454,-1.8537 14.529,-2.4074c5.076,-0.5541 9.997,-2.5295 12.887,-4.2818c2.89,-1.7534 6.98,-5.6913 9.849,-7.6474c2.868,-1.9571 8.15,-4.3806 14.244,-6.8948c6.094,-2.5141 11.757,-3.3375 16.135,-4.6366c4.378,-1.2992 15.758,-8.0871 19.302,-9.5001c3.544,-1.414 6.039,-8.6706 4.736,-11.1968z" clip-rule="evenodd" fill-rule="evenodd"/>
  </svg>
  <svg y="228.266667" x="353.666667" id="svg_tj" viewBox="0 0 235 164" height="164" width="235">
   <path id="map_tj" fill="#72B2DC" d="m174.601,69.4463c-3.259,3.8686 -3.901,-0.1889 -10.134,-1.1529c-6.231,-0.9627 -7.376,-0.2178 -11.282,1.4508c-3.905,1.6688 -8.837,1.3879 -12.715,1.4027c-3.879,0.016 -6.548,-0.1024 -9.349,-1.4457c-2.801,-1.3425 -2.565,-6.7355 -3.993,-10.5001c-1.428,-3.7646 -7.128,-1.6913 -10.897,-0.6555c-3.769,1.0355 -9.413,2.6902 -16.005,2.1784c-6.5913,-0.5125 -3.5043,-2.1935 -4.3322,-3.2379c-0.8275,-1.0433 -5.0079,-1.9238 -9.3913,-1.8533c-4.3832,0.071 -13.6437,-0.5594 -17.3999,-0.3518c-3.7565,0.2081 -6.0411,-1.0881 -7.8779,-2.0208c-1.837,-0.9327 -1.7009,-1.5672 -2.9401,-4.5269c-1.2391,-2.9597 1.9705,-4.4496 2.9041,-6.2038c0.9339,-1.7533 6.8465,-3.7484 10.1901,-4.9428c3.3431,-1.1946 3.4439,-1.2065 5.4515,-1.5309c2.0076,-0.3246 2.969,1.0145 4.9294,2.1403c1.9606,1.1257 4.3376,0.4497 7.8022,0.3769c3.4646,-0.0722 3.8811,-0.9433 5.3731,-1.3148c1.492,-0.3713 3.5781,-0.9103 5.295,-2.029c0.752,-0.4902 1.513,-1.0801 2.178,-1.7146c-0.144,-0.5256 -0.477,-1.9933 -0.477,-1.9933l-0.108,-1.8809l-0.369,-0.8667c0,0 -1.109,-0.4415 -1.39,-0.5106c-0.2812,-0.0687 -1.9041,-0.7258 -1.9041,-0.7258l-1.4403,-0.8472c0,0 -0.5163,-1.0482 -0.5452,-1.1753c-0.0289,-0.1277 -0.3629,-1.3653 -0.3629,-1.3653l0.3603,-0.7544c0,0 0.2796,-0.3465 0.8171,-0.3775c0.5374,-0.0302 2.2104,-0.3239 2.3732,-0.3078c0.1629,0.0159 1.1379,-0.72 1.1379,-0.72l0.572,-0.8164c0,0 0.208,-0.8938 0.461,-0.9525c0.252,-0.0585 1.579,-0.1776 1.579,-0.1776c0,0 0.717,-0.1794 0.854,-0.3323c0.138,-0.1525 0.519,-0.6975 0.531,-0.8211c0.012,-0.123 0.991,-0.9 1.088,-1.0567c0.097,-0.1566 0.987,-0.8595 0.987,-0.8595c0,0 0.988,-0.4436 1.204,-0.5469c0.215,-0.1035 0.471,-0.2034 0.784,-0.4635c0.313,-0.2608 0.983,-0.8184 0.983,-0.8184l1.113,-0.8883l1.151,-0.4274l-0.243,-0.5662c-0.337,0.1258 -0.674,0.2684 -0.674,0.2684l-0.957,-1.174l-0.951,-0.7995l-1.191,-0.4485c0,0 -0.245,-0.4398 -0.148,-0.5965c0.097,-0.1569 0.699,-0.4305 0.699,-0.4305l-0.024,-1.0412l-2.592,-3.41137c0,0 -0.692,-0.94037 -0.676,-1.10519c0.016,-0.16417 0.44,-1.16194 0.44,-1.16194l-0.039,-0.87626c0,0 -0.909,-0.37998 -1.032,-0.39212c-0.122,-0.01164 -1.214,-0.20156 -1.214,-0.20156l-0.539,-0.3854l0.718,-1.05173l-0.49,-0.13776l-0.044,0.1271c0,0 -0.578,0.0269 -0.871,0.08151c-0.293,0.05461 -1.494,0.14465 -1.494,0.14465l-1.1128,0.88839l-0.5031,1.82072c0,0 -0.1104,1.1526 -0.1222,1.27625c-0.012,0.12382 -0.2904,0.88577 -0.2904,0.88577c0,0 -0.9224,0.61598 -1.2641,0.74882c-0.3417,0.133 -2.4677,1.29626 -2.4677,1.29626c0,0 -1.5322,0.97219 -1.6582,1.00171c-0.1264,0.02886 -2.0144,0.42607 -2.0144,0.42607l-1.0303,1.31198l-2.1472,0.954l-2.0379,0.6731l-2.3707,-0.1485l-1.5872,0.2601l-1.4835,0.8938l-1.5479,1.1369l-1.0355,0.9379l-1.4993,-0.2299l-0.6519,-1.3522l-3.3337,-4.68908l-1.5058,-1.01992c0,0 -1.0183,-0.09955 -1.1814,-0.11578c-0.1628,-0.01575 -1.4901,0.10414 -1.4901,0.10414c0,0 -0.7739,1.21228 -0.9527,1.36103c-0.1786,0.14875 -0.561,1.56551 -0.5924,1.89531c-0.0315,0.3289 -0.577,4.3067 -0.577,4.3067c0,0 -0.4625,0.5366 -0.6253,0.5202c-0.1629,-0.0158 -1.4532,0.1487 -1.6203,0.1742c-0.1669,0.025 -0.9184,0.5751 -0.9184,0.5751l-0.1525,0.7331l0.7531,1.1539l0.5241,0.9658l-0.0722,2.9018l0.033,1.3746c0,0 0.3614,0.9491 0.4796,1.0021c0.1184,0.0536 0.4587,0.7933 0.4587,0.7933l-0.0526,1.4071c0,0 -0.5847,0.5249 -0.7635,0.6737c-0.1786,0.1487 -0.8357,0.9987 -0.8357,0.9987l-0.0618,1.0742l0.0815,1.2963l-0.1891,0.688l-2.703,-0.9707l-1.1459,-0.4863l-0.5057,-0.2995l-0.016,0.1655l-2.7093,-0.4726l-1.895,-0.393l-2.5453,-0.0413l-1.285,0.5394l-1.4624,1.1036l-1.3456,-0.5473l-0.6545,-0.895l-1.1407,-0.1113l-1.0485,0.6452l-0.9238,0.2002l-0.3626,-0.0766l-0.0821,-0.2229l-1.0499,0.2367l-2.0441,0.7349l-0.6385,0.8728l0.4848,0.7332l1.23,0.6813l2.3851,0.8564l2.2903,-0.0876l1.8567,-0.068l2.3239,-1.0815l1.8429,-0.5679l2.5662,0.2511l-0.1123,1.1732l-1.3461,1.1774c0,0 -0.8594,0.6016 -1.0862,0.3923c-0.2265,-0.2093 -2.1996,-0.2153 -2.1996,-0.2153l-0.611,-0.0592l-0.2345,1.1607l0.1694,1.4503l0.4573,1.6654l0.7492,1.1956l0.1676,0.8265l-0.1932,0.729l-0.4021,0.3351l-1.0387,-0.1019l-0.0296,-1.6234l-0.7708,-0.3247l-0.4987,0.6991l-0.3508,1.088l-0.4691,0.3903l-1.5395,-0.0262l-1.9533,0.4326l-1.9157,0.6853l-0.1972,1.4144l0.0888,1.0056l-0.406,1.0203l-0.956,0.9661l0.0651,1.2531l0.3746,0.5971l-0.2957,1.1558l-0.5104,0.8224l-1.2793,1.1216l-0.5835,0.9407l0.1203,1.3202l-2.2607,-0.2209l-3.6345,-0.0436l-1.4568,-0.8905l-2.31,-0.3503l-3.6543,-0.482l-2.2471,-1.6535l-1.0288,-0.849l-2.2489,-0.3442l-1.2063,-0.9283l-1.3956,-0.8846l-2.4993,-0.3064l-1.4842,0.0415l-2.1287,0.9768l-1.57282,0.9681l-0.75106,0.1133l-0.36073,-0.0979l-0.20562,-0.3301l-0.7661,0.1732l-1.34115,0.8479l-0.61993,0.9549l-1.45253,0.3562l0.79218,1.3867l0.61711,1.9299l0.32924,1.7154l0.34098,1.592l-0.46718,1.0135l-0.69983,0.8668l-2.72976,0.1692l-0.68361,-0.1796l-0.2014,0.4046l0.23454,0.771l-0.47893,1.1372l0.24252,1.3329l1.96906,0.6911l2.11688,1.0798l1.96907,0.6913l1.14914,0.2366l0.76681,1.0101l0.27189,1.0245l0.8554,0.0835l-0.01151,3.9878c0,0 -0.3807,0.0577 -0.59972,0.0605l0.20797,0.3795l1.49159,0.312l1.645,-0.0058l1.4572,-0.1901l1.4664,0.144l1.284,0.333l1.2982,-0.247l1.2457,-0.1271l1.0157,0.5561l0.7463,0.3637l0.5941,-0.1909l0.8213,-0.4185l0.5149,0.6322l0.1251,0.843l0.5294,1.3402l1.3508,0.9214l0.4272,1.122l-0.1302,1.3591l-0.0984,1.029l-0.7438,0.4675l-1.465,0.2724l-1.3101,0.3703l-0.7109,0.5539l0.1657,0.8475l0.8697,0.7915l0.4665,0.7101l-0.0341,0.7867c0,0 -0.5572,0.2363 -0.6834,0.2652c-0.1259,0.0292 -1.2455,0.1274 -1.2455,0.1274l-0.2707,0.6806l0.3652,0.9084l0.2721,1.0237l-0.1222,1.2762l-0.356,0.7126l-0.5374,1.3192l0.3337,1.2378c0,0 0.6135,0.8911 0.6544,0.8952c0.0407,0.0035 0.3074,0.6527 0.2719,1.0239c-0.0355,0.3703 -0.3048,1.4661 -0.3048,1.4661c0,0 -0.5807,0.4832 -0.6779,0.6401c-0.0973,0.1567 -0.5112,0.615 -0.5112,0.615c0,0 -0.0105,0.5389 0.3114,0.6118c0.322,0.0733 1.0065,0.2233 1.2916,0.2512c0.2853,0.0277 1.2878,0.2919 1.2878,0.2919l0.3771,0.7846l0.3904,1.078l0.6098,0.932l1.4953,0.271l0.364,0.493l-0.1104,1.152c0,0 -0.4508,0.413 -0.059,0.617c0.3915,0.205 0.6213,0.809 0.6213,0.809l0.8319,0.331l0.9776,0.096l0.1131,0.966l0.406,0.913c0,0 -0.2011,0.811 -0.1024,1.071c0.0984,0.258 -0.0169,2.325 -0.0169,2.325l-0.4496,0.828l-1.0354,0.938l-2.4633,2.107l-0.5327,0.841l0.293,1.234l0.0395,0.876l-0.4427,0.331l-1.1708,-0.654l-0.7518,-0.739l-1.0434,-0.268l-0.9,-0.047l-0.8002,0.629l-0.2075,1.309c0,0 -0.1657,1.729 -0.3285,1.713c-0.1631,-0.016 -1.4916,2.264 -1.4916,2.264c0,0 -1.3125,2.116 -1.4426,2.187c-0.1302,0.07 -2.0105,1.673 -2.0105,1.673c0,0 -1.4203,1.523 -1.5991,1.672c-0.1786,0.148 -1.5243,2.178 -1.6582,2.289c-0.13419,0.112 -1.14187,2.049 -1.14187,2.049c0,0 -0.77667,1.67 -0.83307,1.83c-0.05664,0.161 -0.36143,1.627 -0.38493,1.874c-0.02374,0.247 0.38892,1.95 0.38892,1.95c0,0 0.35086,1.489 0.37976,1.616c0.01387,0.061 0.01246,0.378 0.00588,0.71c2.26961,0.21 4.59401,0.401 6.77571,-0.02c2.5016,-0.483 3.0149,0.493 5.3016,0.86c2.2868,0.366 4.0333,1.413 6.0499,2.119c2.0163,0.706 4.4354,2.298 5.6466,2.164c1.2116,-0.133 5.013,-0.863 5.6888,-2.175c0.6757,-1.313 -1.3949,-3.459 -2.5241,-5.398c-1.1287,-1.94 -0.0385,-3.196 0.8493,-4.43c0.8883,-1.234 5.4447,-3.491 7.0615,-4.598c1.6166,-1.106 2.813,0.515 3.3835,1.072c0.5704,0.557 3.0341,0.695 7.0014,1.496c3.9675,0.801 2.5324,0.753 5.4692,1.461c2.9368,0.708 5.3173,-1.824 7.8092,-3.338c2.492,-1.515 1.8894,-3.306 0.6597,-5.234c-1.2293,-1.928 -2.4363,-3.653 -2.2309,-5.534c0.2052,-1.88 7.0973,-6.151 9.9048,-8.524c2.8076,-2.375 8.4696,-8.573 10.2202,-9.385c1.7505,-0.812 3.4977,0.233 5.6954,-0.216c2.1982,-0.448 1.347,-0.768 3.2994,-1.6028c1.9529,-0.8348 6.2295,2.8228 9.8155,3.8728c3.586,1.049 0.841,5.894 -1.137,8.382c-1.979,2.488 0.506,4.693 7.499,7.018c6.992,2.325 1.314,4.602 0.973,7.117c-0.342,2.515 -0.147,6.21 -0.715,10.4c-0.569,4.191 -2.951,6.726 -3.516,9.059c-0.565,2.334 2.857,7.529 3.994,10.5c1.138,2.971 5.168,6.242 12.699,7.889c7.531,1.646 7.226,-3.068 10.526,-4.671c3.299,-1.603 11.67,-5.416 17.997,-7.352c6.326,-1.936 4.378,-2.961 7.431,-4.949c3.053,-1.989 10.298,-2.994 14.067,-4.029c3.768,-1.035 11.557,-4.578 14.786,-4.934c3.23,-0.357 2.668,0.118 5.825,2.866c3.156,2.748 0.378,1.61 4.162,4.496c3.783,2.885 4.015,-0.65 8.547,-2.182c4.533,-1.533 7.674,-2.704 13.796,-2.761c6.122,-0.056 3.608,1.254 8.338,1.558c4.73,0.303 2.966,-2.805 4.452,-6.065c1.486,-3.261 -0.103,-4.736 -0.948,-8.772c-0.844,-4.036 -0.408,-9.451 -0.76,-12.715c-0.353,-3.263 -1.377,-7.073 -2.133,-10.293c-0.756,-3.219 -5.308,-3.7494 -8.016,-6.1343c-2.709,-2.3852 -7.733,-1.6236 -12.064,-0.1137c-4.331,1.5098 -3.971,1.0578 -5.717,0.0113c-1.747,-1.0465 -3.223,-3.3602 -4.988,-6.4689c-1.766,-3.1092 -4.901,-5.652 -5.704,-7.4209c-0.803,-1.7695 -8.993,-18.0031 -7.927,-18.5331c0.061,-0.031 0.119,-0.0692 0.176,-0.1155c-0.748,-0.1264 -1.531,-0.2776 -2.358,-0.4584c-7.531,-1.6462 -5.788,1.2581 -9.046,5.1268z" clip-rule="evenodd" fill-rule="evenodd"/>
  </svg>
 </g>
</svg>