<svg width="322" height="149" viewBox="0 0 322 149" fill="none" xmlns="http://www.w3.org/2000/svg">
<path fill-rule="evenodd" clip-rule="evenodd" d="M321.348 44.1246C320.045 41.5971 316.888 40.9135 313.802 38.9914C310.716 37.0689 303.348 33.5592 300.664 33.4415C297.979 33.3236 295.081 27.4772 293.711 24.3395C292.341 21.202 290.403 20.3879 288.782 18.7166C287.16 17.0446 281.949 18.2292 274.869 17.3587C267.789 16.4878 264.88 16.1901 262.602 16.0279C260.325 15.8651 249.613 15.5968 246.545 15.726C243.477 15.8549 238.697 15.3498 235.474 14.0581C232.251 12.7676 232.41 12.3386 229.796 10.9811C227.183 9.62279 222.306 12.0037 220.929 12.5652C219.553 13.125 213.011 13.4288 209.696 13.1742C206.382 12.9196 203.044 12.4627 195.828 12.2231C188.612 11.9838 190.774 12.9801 187.932 13.2901C185.09 13.6008 177.356 12.3906 173.934 9.27249C170.511 6.15482 169.969 6.83008 167.422 6.08091C164.875 5.33174 161.671 6.09149 157.702 5.49817C153.733 4.90411 154.21 3.61943 152.386 1.9703C150.562 0.319827 148.218 -0.450503 143.594 0.465102C138.968 1.38011 137.295 3.00108 135.107 3.65117C132.918 4.30051 130.253 6.23408 128.241 8.50723C126.23 10.7801 125.702 15.3575 123.908 21.51C122.114 27.6621 118.872 24.3202 118.872 24.3202L111.933 20.9682C111.933 20.9682 105.849 17.9362 101.884 15.4929C97.9193 13.0487 90.4769 12.6302 86.5124 10.1868C82.548 7.74301 77.3573 9.13303 73.6582 9.12409C69.9587 9.11694 65.1316 10.0552 59.8528 10.6311C54.5742 11.207 56.5085 13.8729 56.0512 17.2087C55.6613 20.0537 54.6154 22.3726 53.7802 25.0921C55.3873 26.0266 57.8702 26.9932 61.6511 27.3261C62.6651 27.4156 64.2857 28.2287 65.9585 29.4113L66.8898 28.7481C66.8898 28.7481 67.613 29.3976 67.7318 29.4502C67.8509 29.5028 69.7156 29.8898 69.7156 29.8898L70.9199 31.1229L71.381 31.9114L72.5138 32.6001C72.5138 32.6001 72.8059 33.0003 72.7901 33.1643C72.774 33.3281 72.4951 34.5 72.4951 34.5L71.9336 35.6036L70.2592 35.8136L68.5777 36.5192L66.3295 37.9557L63.9071 39.9126L62.2008 39.1684L61.0561 38.6034L60.045 38.7945L59.466 39.6487L59.2323 42.0653L59.0182 42.9954L57.6516 43.4421L55.5502 43.3625L53.6758 43.9257L52.4468 45.0888L51.8086 46.5568C51.8086 46.5568 51.646 46.9541 51.511 47.0653C51.3764 47.176 49.8788 47.6932 49.8788 47.6932L48.6497 48.8555L48.2559 49.9338L47.562 50.694L46.1372 50.8872L42.1128 54.0117C42.1128 54.0117 40.9749 54.2328 40.7701 54.2127C40.565 54.1929 39.0754 54.6275 39.0754 54.6275L37.8663 55.5859L37.2716 56.6026L37.1949 58.2494L38.046 59.283C38.046 59.283 39.0902 59.1766 39.3069 59.0738C39.5236 58.9708 40.3006 58.6326 40.3006 58.6326C40.3006 58.6326 41.3384 59.0221 41.6211 59.0912C41.9042 59.1599 42.7961 60.1968 42.7961 60.1968L46.8259 63.853L47.1128 65.1627L47.0942 65.2221L47.2967 66.2553L47.7433 65.0581L47.8267 64.1978L48.1809 63.5292L49.0703 62.4577L49.8711 61.8737L51.0371 61.3662L51.8974 61.4495L52.8805 61.5445L53.6617 62.4472L54.4892 63.7262L54.6782 65.1913L54.6769 67.3411L54.1972 72.2977C54.1972 72.2977 54.9584 72.1234 55.0894 72.0533C55.2202 71.9829 56.4119 71.2094 56.4119 71.2094L57.3376 71.8984L58.5957 73.4262C58.5957 73.4262 59.0491 74.2967 59.2052 74.3949C59.3611 74.4926 60.6153 74.779 60.7383 74.7912C60.8613 74.8028 62.0878 74.0943 62.0878 74.0943L62.6825 74.359C62.6825 74.359 63.2917 75.3275 63.4109 75.3805C63.5297 75.4331 63.9328 75.968 64.2645 75.9588C64.5962 75.9495 65.709 75.5612 65.709 75.5612C65.709 75.5612 66.4889 74.768 66.6157 74.7394C66.7426 74.7103 67.623 74.5889 67.623 74.5889L68.7107 75.3142L69.2948 76.1146L69.7021 76.6089C69.7021 76.6089 70.0138 76.8047 70.1777 76.8208C70.3416 76.8365 71.0236 76.1991 71.1955 76.1331C71.3672 76.0668 71.6328 75.8861 71.7967 75.902C71.9606 75.9178 72.3795 76.2893 72.4829 76.5061C72.5859 76.7227 73.067 77.3065 73.067 77.3065L73.8865 77.3858L74.3225 76.7254C74.3225 76.7254 74.5128 76.0409 74.4178 75.7421C74.3225 75.4434 75.0296 72.4108 75.0296 72.4108L74.9227 70.9537C74.9227 70.9537 76.6051 70.6615 76.7278 70.6735C76.8508 70.6851 79.1161 70.7804 79.1161 70.7804L80.652 69.4403L81.6048 67.7137L82.2881 66.2085L82.0808 65.3616L82.008 63.1218L83.1421 61.66L83.8662 61.441C83.8662 61.441 84.1992 61.8454 84.1796 62.0501C84.1596 62.2551 83.9931 63.9756 83.9931 63.9756L83.6811 65.0618L83.4142 66.1103L83.466 66.86L84.6857 66.647L86.0932 66.2044L86.6538 67.2509C86.6538 67.2509 86.9446 68.5197 87.0144 68.6502C87.0846 68.7807 87.8368 69.5566 87.8368 69.5566L88.6244 69.9639C88.6244 69.9639 88.2609 71.5824 88.4499 71.7658C88.6389 71.9498 88.9458 73.0543 88.9458 73.0543L88.7474 75.1023L88.2136 75.9189L88.1182 76.9021L88.1604 78.6012L89.3621 79.0069L90.5332 78.8722C90.5332 78.8722 92.0492 79.0188 92.1719 79.0304C92.2949 79.0426 93.1898 79.6251 93.3537 79.6412C93.5176 79.6568 94.7283 79.1124 94.7283 79.1124L96.2307 78.9686C96.2307 78.9686 96.7224 79.0161 96.9485 79.2447C97.1745 79.473 97.5368 80.0044 97.6066 80.1351C97.6768 80.2662 97.6121 81.7893 97.6121 81.7893L97.1336 83.3143L96.5521 84.6227L96.3109 84.7867L97.7061 85.5198L98.8466 84.8444L100.61 84.1469L101.551 83.8246L102.043 83.872L103.265 84.4862C103.265 84.4862 104.144 85.233 104.357 85.1709C104.57 85.1083 105.237 85.0488 105.34 85.2659C105.443 85.4826 105.871 86.1852 105.941 86.3165C106.011 86.447 106.416 87.3962 106.416 87.3962C106.416 87.3962 106.9 87.5251 107.052 87.6641C107.204 87.8029 107.921 88.079 107.909 88.2021C107.897 88.3247 107.629 88.9602 107.81 89.226C107.991 89.4917 108.1 91.3626 108.1 91.3626C108.1 91.3626 109.166 91.879 109.326 91.9361C109.486 91.9928 110.479 92.4197 110.479 92.4197L113.503 92.7946L116.129 93.0072L116.95 93.5001L117.436 94.4567L118.586 95.3952L119.453 94.9831C119.453 94.9831 120.847 94.2493 121.068 94.1053C121.289 93.9614 121.934 93.2793 121.934 93.2793C121.934 93.2793 123.257 93.2833 123.503 93.307C123.749 93.3313 124.658 93.3364 124.658 93.3364L124.927 94.3959L125.07 95.4851L124.6 96.9278L123.198 97.3088C123.198 97.3088 120.763 97.2594 120.599 97.2436C120.435 97.2275 119.403 97.2108 119.268 97.3212C119.133 97.4327 118.161 98.0826 118.026 98.1938C117.891 98.3045 116.438 98.7847 116.438 98.7847L115.392 99.3445L114.243 100.102L113.375 100.1L112.61 100.316L112.743 101.073L112.808 102.113L111.988 103.315L110.626 103.721C110.626 103.721 109.839 103.728 109.709 103.798C109.578 103.868 109.338 104.63 109.326 104.753C109.315 104.876 108.785 105.652 108.785 105.652C108.785 105.652 107.462 105.648 107.339 105.636C107.216 105.624 106.407 105.008 106.407 105.008L105.163 104.185L104.027 103.537L102.799 102.55L101.807 101.256L101.046 101.43C101.046 101.43 100.529 102.496 100.685 102.594C100.841 102.692 101.213 103.555 101.213 103.555L101.551 104.332L100.832 104.923C100.832 104.923 101.231 105.5 101.301 105.63C101.371 105.761 101.661 106.616 101.661 106.616L101.383 108.202L101.059 109.411C101.059 109.411 100.692 109.789 100.397 109.843C100.102 109.897 98.4255 109.28 98.4255 109.28L97.1671 107.753L95.8269 106.217L94.6954 105.943L94.6909 105.784L94.6768 105.274L94.1912 105.6L94.1905 105.605C94.1905 105.605 93.6106 106.044 93.4834 106.073C93.3566 106.103 91.9703 106.754 91.9703 106.754L90.9644 107.318L90.4808 108.47L90.4714 109.421L89.6178 110.123L88.3581 110.746L87.5692 111.207L87.0708 111.655C87.0708 111.655 87.2044 112.412 87.3274 112.424C87.4501 112.436 88.456 113.153 88.456 113.153L89.0469 113.458L89.29 113.937C89.29 113.937 89.0746 114.453 88.9516 114.441C88.8286 114.43 87.1754 114.848 87.1754 114.848C87.1754 114.848 86.2909 115.011 86.1682 114.999C86.0452 114.987 85.0911 115.019 84.8979 114.876C84.7051 114.733 84.2729 114.072 84.109 114.056C83.9451 114.04 83.3726 114.398 83.3726 114.398L82.8916 115.096C82.8916 115.096 82.4028 115.875 82.2678 115.986C82.1329 116.097 81.4023 116.812 81.2832 116.759C81.1643 116.707 80.4637 116.681 80.4637 116.681L79.6748 117.141L79.2584 117.597L78.4457 117.022C78.4457 117.022 78.0664 116.242 78.0899 115.995C78.1137 115.75 78.275 113.657 78.275 113.657C78.275 113.657 77.9447 112.798 77.7846 112.741C77.6249 112.684 77.0511 112.629 76.9242 112.658C76.7974 112.687 76.0281 112.943 76.0123 113.107C75.9966 113.271 75.9174 114.09 75.9013 114.254C75.8855 114.418 76.1405 114.774 75.8008 114.865C75.4611 114.956 74.8135 114.811 74.6538 114.753C74.4938 114.697 73.9969 114.277 73.9969 114.277C73.9969 114.277 73.4418 113.603 73.3265 113.509C73.2116 113.415 72.9962 112.65 72.9263 112.519C72.8561 112.389 72.7109 111.754 72.5879 111.742C72.4649 111.731 71.2767 111.616 70.9898 111.588C70.7032 111.56 69.8254 111.227 69.8254 111.227C69.8254 111.227 69.5653 110.499 69.4052 110.442C69.2452 110.385 68.3848 110.302 68.2209 110.286C68.057 110.271 66.9706 109.958 66.9706 109.958L66.2834 108.941L64.0246 108.351C64.0246 108.351 62.67 108.674 62.5389 108.744C62.4082 108.814 61.0403 108.847 60.8896 109.122C60.7389 109.397 60.3886 110.025 60.045 110.157C59.7014 110.289 58.4234 110.248 58.2183 110.228C58.0135 110.208 56.3468 110.337 56.3468 110.337C56.3468 110.337 56.1684 110.898 56.1118 111.058C56.0548 111.218 56.5571 112.011 56.5571 112.011C56.5571 112.011 56.9313 112.419 56.9194 112.542C56.9074 112.665 56.5677 112.756 56.3217 112.732C56.076 112.709 52.4745 112.319 52.4745 112.319L50.981 112.794L49.4663 113.061L47.6042 113.501C47.6042 113.501 46.342 113.297 46.1858 113.199C46.03 113.101 45.176 112.522 45.176 112.522C45.176 112.522 44.8128 111.578 44.7426 111.447C44.732 111.427 44.712 111.363 44.6862 111.27C44.0184 111.901 43.253 112.488 42.4967 112.976C40.7691 114.089 38.671 114.625 37.1701 114.994C35.6696 115.364 35.2507 116.231 31.766 116.303C28.281 116.374 25.8901 117.048 23.9182 115.927C21.9466 114.808 20.9793 113.475 18.9601 113.798C16.9408 114.121 16.8394 114.133 13.4767 115.322C10.1138 116.51 4.16674 118.495 3.22746 120.24C2.28851 121.985 -0.940183 123.467 0.306279 126.412C1.55274 129.357 1.41589 129.988 3.26353 130.916C5.11116 131.844 7.40895 133.134 11.1873 132.927C14.9653 132.72 24.2798 133.347 28.6886 133.277C33.0978 133.207 37.3025 134.082 38.1348 135.121C38.9675 136.16 35.8625 137.833 42.4925 138.342C49.1228 138.851 54.7999 137.205 58.5909 136.175C62.3814 135.144 68.1143 133.081 69.5508 136.827C70.9869 140.573 70.7502 145.939 73.5674 147.275C76.3846 148.611 79.0684 148.728 82.9701 148.713C86.8718 148.698 91.8322 148.978 95.76 147.317C99.6887 145.657 100.84 144.916 107.108 145.874C113.377 146.832 114.023 150.87 117.3 147.021C120.578 143.172 118.824 140.281 126.399 141.92C127.232 142.1 128.018 142.25 128.77 142.376C129.689 141.63 129.867 138.883 129.926 135.875C129.99 132.684 130.917 130.837 134.065 123.922C137.214 117.006 143 116.373 148.236 114.467C153.471 112.559 155.002 108.697 158.501 106.877C162 105.058 162.904 103.932 165.116 103.485C167.327 103.037 171.317 103.835 175.197 103.618C179.077 103.4 179.412 104.595 180.38 105.927C181.348 107.259 183.533 108.458 187.59 109.864C191.646 111.27 198.324 110.336 198.324 110.336C198.324 110.336 212.181 105.537 213.898 104.324C215.614 103.109 215.895 98.1486 219.014 94.7274C222.133 91.3058 225.085 92.0103 229.666 90.6895C234.247 89.3686 239.12 88.8358 244.195 88.2821C249.271 87.728 254.192 85.7526 257.082 84.0003C259.972 82.2469 264.062 78.309 266.931 76.3529C269.799 74.3958 275.081 71.9723 281.175 69.4581C287.269 66.944 292.932 66.1206 297.31 64.8215C301.688 63.5224 313.068 56.7344 316.612 55.3214C320.156 53.9074 322.651 46.6508 321.348 44.1246Z" fill="#E2F4FE"/>
</svg>
