<svg width="235" height="164" viewBox="0 0 235 164" fill="none" xmlns="http://www.w3.org/2000/svg">
<path fill-rule="evenodd" clip-rule="evenodd" d="M174.601 69.4463C171.342 73.3149 170.7 69.2574 164.467 68.2934C158.236 67.3307 157.091 68.0756 153.185 69.7442C149.28 71.413 144.348 71.1321 140.47 71.1469C136.591 71.1629 133.922 71.0445 131.121 69.7012C128.32 68.3587 128.556 62.9657 127.128 59.2011C125.7 55.4365 120 57.5098 116.231 58.5456C112.462 59.5811 106.818 61.2358 100.226 60.724C93.6347 60.2115 96.7217 58.5305 95.8938 57.4861C95.0663 56.4428 90.8859 55.5623 86.5025 55.6328C82.1193 55.7038 72.8588 55.0734 69.1026 55.281C65.3461 55.4891 63.0615 54.1929 61.2247 53.2602C59.3877 52.3275 59.5238 51.693 58.2846 48.7333C57.0455 45.7736 60.2551 44.2836 61.1887 42.5295C62.1226 40.7762 68.0352 38.7811 71.3788 37.5867C74.7219 36.3921 74.8227 36.3802 76.8303 36.0558C78.8379 35.7312 79.7993 37.0703 81.7597 38.1961C83.7203 39.3218 86.0973 38.6458 89.5619 38.573C93.0265 38.5008 93.443 37.6297 94.935 37.2582C96.427 36.8869 98.5131 36.3479 100.23 35.2292C100.982 34.739 101.743 34.1491 102.408 33.5146C102.264 32.989 101.931 31.5213 101.931 31.5213L101.823 29.6404L101.454 28.7737C101.454 28.7737 100.345 28.3322 100.064 28.2631C99.7828 28.1944 98.1599 27.5373 98.1599 27.5373L96.7196 26.6901C96.7196 26.6901 96.2033 25.6419 96.1744 25.5148C96.1455 25.3871 95.8115 24.1495 95.8115 24.1495L96.1718 23.3951C96.1718 23.3951 96.4514 23.0486 96.9889 23.0176C97.5263 22.9874 99.1993 22.6937 99.3621 22.7098C99.525 22.7257 100.5 21.9898 100.5 21.9898L101.072 21.1734C101.072 21.1734 101.28 20.2796 101.533 20.2209C101.785 20.1624 103.112 20.0433 103.112 20.0433C103.112 20.0433 103.829 19.8639 103.966 19.711C104.104 19.5585 104.485 19.0135 104.497 18.8899C104.509 18.7669 105.488 17.9899 105.585 17.8332C105.682 17.6766 106.572 16.9737 106.572 16.9737C106.572 16.9737 107.56 16.5301 107.776 16.4268C107.991 16.3233 108.247 16.2234 108.56 15.9633C108.873 15.7025 109.543 15.1449 109.543 15.1449L110.656 14.2566L111.807 13.8292L111.564 13.263C111.227 13.3888 110.89 13.5314 110.89 13.5314L109.933 12.3574L108.982 11.5579L107.791 11.1094C107.791 11.1094 107.546 10.6696 107.643 10.5129C107.74 10.356 108.342 10.0824 108.342 10.0824L108.318 9.0412L105.726 5.62983C105.726 5.62983 105.034 4.68946 105.05 4.52464C105.066 4.36047 105.49 3.3627 105.49 3.3627L105.451 2.48644C105.451 2.48644 104.542 2.10646 104.419 2.09432C104.297 2.08268 103.205 1.89276 103.205 1.89276L102.666 1.50736L103.384 0.455631L102.894 0.317871L102.85 0.444971C102.85 0.444971 102.272 0.471867 101.979 0.526479C101.686 0.581091 100.485 0.671127 100.485 0.671127L99.3722 1.55952L98.8691 3.38024C98.8691 3.38024 98.7587 4.53284 98.7469 4.65649C98.7349 4.78031 98.4565 5.54226 98.4565 5.54226C98.4565 5.54226 97.5341 6.15824 97.1924 6.29108C96.8507 6.42408 94.7247 7.58734 94.7247 7.58734C94.7247 7.58734 93.1925 8.55953 93.0665 8.58905C92.9401 8.61791 91.0521 9.01512 91.0521 9.01512L90.0218 10.3271L87.8746 11.2811L85.8367 11.9542L83.466 11.8057L81.8788 12.0658L80.3953 12.9596L78.8474 14.0965L77.8119 15.0344L76.3126 14.8045L75.6607 13.4523L72.327 8.76322L70.8212 7.7433C70.8212 7.7433 69.8029 7.64375 69.6398 7.62752C69.477 7.61177 68.1497 7.73166 68.1497 7.73166C68.1497 7.73166 67.3758 8.94394 67.197 9.09269C67.0184 9.24144 66.636 10.6582 66.6046 10.988C66.5731 11.3169 66.0276 15.2947 66.0276 15.2947C66.0276 15.2947 65.5651 15.8313 65.4023 15.8149C65.2394 15.7991 63.9491 15.9636 63.782 15.9891C63.6151 16.0141 62.8636 16.5642 62.8636 16.5642L62.7111 17.2973L63.4642 18.4512L63.9883 19.417L63.9161 22.3188L63.9491 23.6934C63.9491 23.6934 64.3105 24.6425 64.4287 24.6955C64.5471 24.7491 64.8874 25.4888 64.8874 25.4888L64.8348 26.8959C64.8348 26.8959 64.2501 27.4208 64.0713 27.5696C63.8927 27.7183 63.2356 28.5683 63.2356 28.5683L63.1738 29.6425L63.2553 30.9388L63.0662 31.6268L60.3632 30.6561L59.2173 30.1698L58.7116 29.8703L58.6956 30.0358L55.9863 29.5632L54.0913 29.1702L51.546 29.1289L50.261 29.6683L48.7986 30.7719L47.453 30.2246L46.7985 29.3296L45.6578 29.2183L44.6093 29.8635L43.6855 30.0637L43.3229 29.9871L43.2408 29.7642L42.1909 30.0009L40.1468 30.7358L39.5083 31.6086L39.9931 32.3418L41.2231 33.0231L43.6082 33.8795L45.8985 33.7919L47.7552 33.7239L50.0791 32.6424L51.922 32.0745L54.4882 32.3256L54.3759 33.4988L53.0298 34.6762C53.0298 34.6762 52.1704 35.2778 51.9436 35.0685C51.7171 34.8592 49.744 34.8532 49.744 34.8532L49.133 34.794L48.8985 35.9547L49.0679 37.405L49.5252 39.0704L50.2744 40.266L50.442 41.0925L50.2488 41.8215L49.8467 42.1566L48.808 42.0547L48.7784 40.4313L48.0076 40.1066L47.5089 40.8057L47.1581 41.8937L46.689 42.284L45.1495 42.2578L43.1962 42.6904L41.2805 43.3757L41.0833 44.7901L41.1721 45.7957L40.7661 46.816L39.8101 47.7821L39.8752 49.0352L40.2498 49.6323L39.9541 50.7881L39.4437 51.6105L38.1644 52.7321L37.5809 53.6728L37.7012 54.993L35.4405 54.7721L31.806 54.7285L30.3492 53.838L28.0392 53.4877L24.3849 53.0057L22.1378 51.3522L21.109 50.5032L18.8601 50.159L17.6538 49.2307L16.2582 48.3461L13.7589 48.0397L12.2747 48.0812L10.146 49.058L8.57318 50.0261L7.82212 50.1394L7.46139 50.0415L7.25577 49.7114L6.48967 49.8846L5.14852 50.7325L4.52859 51.6874L3.07606 52.0436L3.86824 53.4303L4.48535 55.3602L4.81459 57.0756L5.15557 58.6676L4.68839 59.6811L3.98856 60.5479L1.2588 60.7171L0.57519 60.5375L0.373795 60.9421L0.608325 61.7131L0.129395 62.8503L0.371915 64.1832L2.34098 64.8743L4.45786 65.9541L6.42693 66.6454L7.57607 66.882L8.34288 67.8921L8.61477 68.9166L9.47017 69.0001L9.45866 72.9879C9.45866 72.9879 9.07796 73.0456 8.85894 73.0484L9.06691 73.4279L10.5585 73.7399L12.2035 73.7341L13.6607 73.544L15.1271 73.688L16.4111 74.021L17.7093 73.774L18.955 73.6469L19.9707 74.203L20.717 74.5667L21.3111 74.3758L22.1324 73.9573L22.6473 74.5895L22.7724 75.4325L23.3018 76.7727L24.6526 77.6941L25.0798 78.8161L24.9496 80.1752L24.8512 81.2042L24.1074 81.6717L22.6424 81.9441L21.3323 82.3144L20.6214 82.8683L20.7871 83.7158L21.6568 84.5073L22.1233 85.2174L22.0892 86.0041C22.0892 86.0041 21.532 86.2404 21.4058 86.2693C21.2799 86.2985 20.1603 86.3967 20.1603 86.3967L19.8896 87.0773L20.2548 87.9857L20.5269 89.0094L20.4047 90.2856L20.0487 90.9982L19.5113 92.3174L19.845 93.5552C19.845 93.5552 20.4585 94.4463 20.4994 94.4504C20.5401 94.4539 20.8068 95.1031 20.7713 95.4743C20.7358 95.8446 20.4665 96.9404 20.4665 96.9404C20.4665 96.9404 19.8858 97.4236 19.7886 97.5805C19.6913 97.7372 19.2774 98.1955 19.2774 98.1955C19.2774 98.1955 19.2669 98.7344 19.5888 98.8073C19.9108 98.8806 20.5953 99.0306 20.8804 99.0585C21.1657 99.0862 22.1682 99.3504 22.1682 99.3504L22.5453 100.135L22.9357 101.213L23.5455 102.145L25.0408 102.416L25.4048 102.909L25.2944 104.061C25.2944 104.061 24.8436 104.474 25.2354 104.678C25.6269 104.883 25.8567 105.487 25.8567 105.487L26.6886 105.818L27.6662 105.914L27.7793 106.88L28.1853 107.793C28.1853 107.793 27.9842 108.604 28.0829 108.864C28.1813 109.122 28.066 111.189 28.066 111.189L27.6164 112.017L26.581 112.955L24.1177 115.062L23.585 115.903L23.878 117.137L23.9175 118.013L23.4748 118.344L22.304 117.69L21.5522 116.951L20.5088 116.683L19.6088 116.636L18.8086 117.265L18.6011 118.574C18.6011 118.574 18.4354 120.303 18.2726 120.287C18.1095 120.271 16.781 122.551 16.781 122.551C16.781 122.551 15.4685 124.667 15.3384 124.738C15.2082 124.808 13.3279 126.411 13.3279 126.411C13.3279 126.411 11.9076 127.934 11.7288 128.083C11.5502 128.231 10.2045 130.261 10.0706 130.372C9.93641 130.484 8.92873 132.421 8.92873 132.421C8.92873 132.421 8.15206 134.091 8.09566 134.251C8.03902 134.412 7.73423 135.878 7.71073 136.125C7.68699 136.372 8.09965 138.075 8.09965 138.075C8.09965 138.075 8.45051 139.564 8.47941 139.691C8.49328 139.752 8.49187 140.069 8.48529 140.401C10.7549 140.611 13.0793 140.802 15.261 140.381C17.7626 139.898 18.2759 140.874 20.5626 141.241C22.8494 141.607 24.5959 142.654 26.6125 143.36C28.6288 144.066 31.0479 145.658 32.2591 145.524C33.4707 145.391 37.2721 144.661 37.9479 143.349C38.6236 142.036 36.553 139.89 35.4238 137.951C34.2951 136.011 35.3853 134.755 36.2731 133.521C37.1614 132.287 41.7178 130.03 43.3346 128.923C44.9512 127.817 46.1476 129.438 46.7181 129.995C47.2885 130.552 49.7522 130.69 53.7195 131.491C57.687 132.292 56.2519 132.244 59.1887 132.952C62.1255 133.66 64.506 131.128 66.9979 129.614C69.4899 128.099 68.8873 126.308 67.6576 124.38C66.4283 122.452 65.2213 120.727 65.4267 118.846C65.6319 116.966 72.524 112.695 75.3315 110.322C78.1391 107.947 83.8011 101.749 85.5517 100.937C87.3022 100.125 89.0494 101.17 91.2471 100.721C93.4453 100.273 92.5941 99.953 94.5465 99.1182C96.4994 98.2834 100.776 101.941 104.362 102.991C107.948 104.04 105.203 108.885 103.225 111.373C101.246 113.861 103.731 116.066 110.724 118.391C117.716 120.716 112.038 122.993 111.697 125.508C111.355 128.023 111.55 131.718 110.982 135.908C110.413 140.099 108.031 142.634 107.466 144.967C106.901 147.301 110.323 152.496 111.46 155.467C112.598 158.438 116.628 161.709 124.159 163.356C131.69 165.002 131.385 160.288 134.685 158.685C137.984 157.082 146.355 153.269 152.682 151.333C159.008 149.397 157.06 148.372 160.113 146.384C163.166 144.395 170.411 143.39 174.18 142.355C177.948 141.32 185.737 137.777 188.966 137.421C192.196 137.064 191.634 137.539 194.791 140.287C197.947 143.035 195.169 141.897 198.953 144.783C202.736 147.668 202.968 144.133 207.5 142.601C212.033 141.068 215.174 139.897 221.296 139.84C227.418 139.784 224.904 141.094 229.634 141.398C234.364 141.701 232.6 138.593 234.086 135.333C235.572 132.072 233.983 130.597 233.138 126.561C232.294 122.525 232.73 117.11 232.378 113.846C232.025 110.583 231.001 106.773 230.245 103.553C229.489 100.334 224.937 99.8036 222.229 97.4187C219.52 95.0335 214.496 95.7951 210.165 97.305C205.834 98.8148 206.194 98.3628 204.448 97.3163C202.701 96.2698 201.225 93.9561 199.46 90.8474C197.694 87.7382 194.559 85.1954 193.756 83.4265C192.953 81.657 184.763 65.4234 185.829 64.8934C185.89 64.8624 185.948 64.8242 186.005 64.7779C185.257 64.6515 184.474 64.5003 183.647 64.3195C176.116 62.6733 177.859 65.5776 174.601 69.4463Z" fill="#72B2DC"/>
</svg>
