<svg width="520" height="369" viewBox="0 0 520 369" fill="none" xmlns="http://www.w3.org/2000/svg">
<path fill-rule="evenodd" clip-rule="evenodd" d="M519.73 241.467L519.461 240.411C519.461 240.411 518.555 240.406 518.31 240.382C518.065 240.359 516.746 240.355 516.746 240.355C516.746 240.355 516.104 241.034 515.884 241.178C515.663 241.321 514.274 242.052 514.274 242.052L513.41 242.463L512.264 241.528L511.779 240.575L510.961 240.083L508.344 239.871L505.33 239.497C505.33 239.497 504.341 239.072 504.181 239.015C504.022 238.959 502.959 238.444 502.959 238.444C502.959 238.444 502.851 236.578 502.67 236.314C502.49 236.049 502.757 235.416 502.769 235.293C502.781 235.17 502.066 234.895 501.914 234.757C501.763 234.619 501.281 234.49 501.281 234.49C501.281 234.49 500.878 233.544 500.808 233.414C500.738 233.283 500.311 232.583 500.208 232.367C500.106 232.15 499.441 232.21 499.228 232.272C499.016 232.333 498.141 231.589 498.141 231.589L496.922 230.977L496.432 230.929L495.494 231.251L493.737 231.946L492.6 232.619L491.21 231.889L491.45 231.725L492.03 230.421L492.507 228.901C492.507 228.901 492.571 227.382 492.501 227.252C492.431 227.122 492.071 226.592 491.845 226.365C491.62 226.137 491.13 226.09 491.13 226.09L489.632 226.233C489.632 226.233 488.426 226.776 488.263 226.76C488.099 226.744 487.207 226.163 487.085 226.151C486.963 226.14 485.451 225.993 485.451 225.993L484.284 226.128L483.087 225.723L483.045 224.03L483.139 223.05L483.672 222.236L483.869 220.193C483.869 220.193 483.564 219.093 483.375 218.91C483.187 218.727 483.549 217.113 483.549 217.113L482.764 216.707C482.764 216.707 482.015 215.934 481.945 215.804C481.875 215.674 481.585 214.409 481.585 214.409L481.026 213.366L479.624 213.807L478.408 214.019L478.357 213.273L478.623 212.227L478.934 211.144C478.934 211.144 479.099 209.429 479.119 209.225C479.139 209.021 478.807 208.618 478.807 208.618L478.085 208.836L476.955 210.293L477.027 212.526L477.234 213.37L476.553 214.871L475.604 216.592L474.073 217.927C474.073 217.927 471.815 217.832 471.693 217.821C471.57 217.809 469.893 218.1 469.893 218.1L470 219.553C470 219.553 469.295 222.575 469.39 222.873C469.485 223.171 469.295 223.853 469.295 223.853L468.861 224.512L468.044 224.433C468.044 224.433 467.564 223.851 467.462 223.635C467.359 223.419 466.942 223.048 466.779 223.033C466.615 223.017 466.35 223.197 466.179 223.263C466.008 223.329 465.328 223.964 465.165 223.948C465.001 223.932 464.69 223.737 464.69 223.737L464.285 223.245L463.702 222.446L462.618 221.723C462.618 221.723 461.741 221.845 461.615 221.874C461.488 221.902 460.711 222.693 460.711 222.693C460.711 222.693 459.602 223.08 459.271 223.089C458.941 223.099 458.539 222.566 458.42 222.512C458.302 222.46 457.695 221.495 457.695 221.495L457.102 221.231C457.102 221.231 455.88 221.937 455.757 221.925C455.635 221.913 454.385 221.627 454.229 221.53C454.074 221.433 453.622 220.565 453.622 220.565L452.368 219.042L451.445 218.355C451.445 218.355 450.258 219.126 450.127 219.196C449.997 219.266 449.238 219.44 449.238 219.44L449.716 214.499L449.717 212.356L449.529 210.896L448.704 209.621L447.926 208.721L446.946 208.626L446.088 208.543L444.926 209.049L444.128 209.631L443.242 210.7L442.889 211.366L442.806 212.223L442.361 213.416L442.159 212.387L442.177 212.328L441.892 211.023L437.876 207.378C437.876 207.378 436.986 206.344 436.704 206.276C436.423 206.207 435.388 205.818 435.388 205.818C435.388 205.818 434.614 206.156 434.398 206.258C434.182 206.361 433.141 206.467 433.141 206.467L432.293 205.436L432.369 203.795L432.962 202.782L434.167 201.826C434.167 201.826 435.652 201.393 435.856 201.412C436.06 201.433 437.194 201.212 437.194 201.212L441.205 198.098L442.625 197.905L443.317 197.147L443.709 196.073L444.934 194.914C444.934 194.914 446.427 194.399 446.561 194.288C446.695 194.177 446.857 193.781 446.857 193.781L447.494 192.318L448.719 191.158L450.586 190.598L452.681 190.676L454.043 190.231L454.256 189.304L454.489 186.895L455.066 186.044L456.074 185.853L457.214 186.417L458.915 187.159L461.329 185.208L463.57 183.776L465.246 183.072L466.915 182.863L467.474 181.763C467.474 181.763 467.752 180.595 467.768 180.432C467.784 180.269 467.493 179.869 467.493 179.869L466.364 179.183L465.904 178.396L464.704 177.168C464.704 177.168 462.846 176.782 462.727 176.729C462.609 176.677 461.888 176.03 461.888 176.03L460.96 176.69L460.206 177.227L458.835 177.341L457.276 178.963L455.282 179.553L454.077 179.231L452.459 180.187L450.848 181.927L449.668 183.049C449.668 183.049 449.177 185.145 449.165 185.267C449.153 185.39 448.357 186.384 448.141 186.487C447.924 186.589 446.928 186.658 446.773 186.561C446.617 186.463 445.781 185.311 445.781 185.311L445.116 182.815L443.85 182.692L442.298 182.542L440.329 183.299L439.39 184.486L438.79 187.272L436.852 188.568L434.765 189.685L434.261 191.491L432.309 192.497L430.355 193.091L429.273 194.058L428.234 193.71L427.207 195.383L425.19 196.63C425.19 196.63 423.863 196.296 423.662 196.235C423.462 196.175 421.988 196.073 421.988 196.073L419.346 196.971L417.2 197.424L414.2 199.894L412.955 201.257C412.955 201.257 412.288 202.182 412.003 202.154C411.717 202.127 411.454 201.854 411.34 201.761C411.225 201.668 410.79 201.048 410.79 201.048L410.073 201.226C410.073 201.226 409.276 202.221 409.223 202.339C409.171 202.458 408.65 203.149 408.65 203.149C408.65 203.149 409.137 203.65 409.334 203.751C409.53 203.852 409.792 204.125 409.792 204.125L410.238 204.622L410.176 205.275L408.46 205.109L406.657 205.429L405.024 205.271C405.024 205.271 403.554 205.129 403.309 205.105C403.064 205.081 402.309 205.214 402.309 205.214C402.309 205.214 401.555 205.76 401.458 205.915C401.361 206.071 400.4 207.049 400.4 207.049L399.015 207.739L397.666 208.475L397.094 209.697L396.508 211.495L396.31 213.536L395.553 214.122L393.45 214.99L391.142 215.838L389.105 217.29L387.894 218.739L386.392 220.201L386.852 220.987L387.243 222.055L386.67 222.866L384.383 223.922L384.085 224.482C383.886 224.217 383.644 223.892 383.644 223.892C383.644 223.892 383.53 222.521 383.549 222.316C383.569 222.112 383.424 221.48 383.424 221.48C383.424 221.48 382.605 220.576 382.482 220.565C382.36 220.552 381.829 220.501 381.829 220.501C381.829 220.501 380.344 220.935 380.218 220.964C380.092 220.992 379.347 221.868 379.347 221.868C379.347 221.868 378.685 222.752 378.632 222.871C378.579 222.989 379.475 223.529 379.475 223.529L380.374 223.616L381.205 224.397C381.205 224.397 381.306 225.479 381.295 225.601C381.283 225.724 381.148 227.112 381.148 227.112L380.295 228.266L380.245 229.209L381.547 231.931L382.215 233.974L382.192 235.497L382.118 236.685C382.118 236.685 382.863 237.499 382.982 237.552C383.1 237.604 382.879 238.613 382.879 238.613L382.052 239.069L379.561 238.828L378.702 238.333L376.28 237.81L374.986 236.696L370.318 233.4L369.932 233.121L369.933 233.116L365.037 228.129L363.407 227.724L361.71 227.374L362.056 226.357L363.994 225.493L366.037 224.826L366.327 223.741L366.802 222.674L366.742 221.37L366.333 219.847L366.693 219.325L367.892 219.071L367.952 218.458L368.005 217.907L367.072 217.322L365.691 218.177L364.371 219.039L363.964 218.134C363.964 218.134 363.895 215.655 363.924 215.349C363.954 215.042 363.424 214.126 363.424 214.126L361.893 213.977L360.755 214.238C360.755 214.238 359.7 213.641 359.479 213.372C359.258 213.104 357.649 211.836 357.649 211.836L356.669 211.741L352.366 212.128L348.296 212.661L345.504 212.762L330.861 211.042L330.47 210.659L325.639 210.408L323.7 193.817L322.725 180.04L307.11 176.139L308.508 159.13L311.693 159.438L314.064 134.939L305.892 137.611L298.399 117.928C298.399 117.928 293.323 113.315 293.093 113.128C292.864 112.941 289.194 109.124 289.194 109.124L286.107 103.55L284.323 99.8332L283.193 98.7347L281.723 98.5928L269.093 103.883L254.596 102.068L231.107 96.9104L206.681 99.74L193.843 99.7813H191.991L168.79 66.6479L168.367 60.7964L163.759 56.0231L138.01 30.782L122.91 19.4299L97.1688 0.495605L16.0095 18.8549L0.959961 171.824L16.8381 173.855L24.7413 175.238L30.0882 177.486L32.0994 178.423L32.9924 178.138L32.3839 175.483L34.2923 174.926L36.0668 174.479L36.2958 173.389L35.1817 173.404L33.905 172.539L33.1107 169.248L33.4944 166.564L33.4508 164.459L32.1186 161.609L31.6799 158.476L32.4981 153.857L32.9327 151.921L35.624 150.945L38.5085 149.246L40.3738 146.583L42.0528 143.283L43.6534 142.077L47.6208 141.968L52.6079 142.821L55.0817 142.812L58.0929 142.362L60.2858 142.697L60.357 141.963L60.1202 140.58L60.6929 139.77L61.6019 140.6L62.0287 140.023L63.8068 136.98L64.4983 134.945L64.0046 133.661L63.2653 132.353L64.3166 131.713L65.4785 131.207L67.2727 129.279L68.3116 128.761L69.9911 129.295L70.4853 130.579L70.734 131.839L71.7614 131.444L74.7014 131.728L76.6774 133.033L77.5906 135.099L77.3217 139.154L81.1193 139.521L81.3602 138.308L80.5856 137.368L78.7047 135.084L77.4598 132.613L76.6182 129.812L74.9823 127.552L72.4924 126.446L71.398 124.98L74.5514 123.059L76.314 122.735L78.483 123.316L80.8504 124.41L84.6476 124.778L85.3791 123.612L86.122 122.324L87.1609 121.806L86.2996 120.487L86.8213 118.93L96.9258 130.788L102.735 132.091L104.616 134.375L104.647 136.604L104.972 138.367L107.315 139.706L109.639 142.527L112.812 142.958L114.096 142.464L117.905 142.709L119.929 143.522L121.727 142.831L123.11 142.594L125.789 145.573L126.75 147.15L125.54 148.146L124.809 149.311L125.205 150.339L126.639 150.848L127.729 151.078L127.283 153.136L126.26 154.768L125.355 155.175L124.264 154.946L122.624 155.282L124.272 157.42L125.631 157.428L126.137 158.589L127.046 159.419L127.951 159.012L128.252 159.56L128.088 159.726L128.523 160.345L129.458 161.754L130.417 162.918L131.913 163.64L132.872 164.805L133.839 165.887L133.776 166.54L133.72 167.112C133.72 167.112 133.272 167.481 133.028 167.457C132.783 167.434 131.858 166.767 131.858 166.767L130.172 165.45L128.699 164.483L127.661 164.135L126.789 164.628L125.839 165.937L125.759 166.754L126.876 168.84L128.122 170.444L128.847 172.328L128.223 173.669L127.353 174.986L126.215 176.525L125.683 178.616L126.023 180.215L127.783 181.622L130.109 183.99L132.013 184.751L133.32 184.878C133.32 184.878 134.388 186.629 134.772 186.914C135.156 187.198 136.73 188.834 136.73 188.834L138.642 189.513L140.684 189.711L143.186 188.552L145.881 188.813L150.389 189.084L151.525 189.277L152.916 190.235L154.017 189.929L154.61 188.915L155.397 190.146L156.554 191.823C156.554 191.823 158.158 193.133 158.395 193.238C158.633 193.343 160.203 194.155 160.693 194.202C161.183 194.25 162.863 193.918 162.863 193.918L164.028 192.959L164.96 190.989L165.558 189.068L166.225 188.144L167.45 188.261L168.693 189.041L171.106 190.512L174.808 194.002L176.536 195.735L178.734 198.585L180.111 200.532L181.186 202.202L181.379 203.622L181.063 206.888L181.26 209.958L181.974 211.098C181.974 211.098 182.19 212.273 182.166 212.518C182.143 212.763 182.311 214.428 182.311 214.428L183.049 215.323L183.697 216.293L183.578 217.517L184.085 219.957L184.029 220.529L184.277 220.335L184.525 220.823L184.269 221.025L185.574 222.883L189.719 224.768L189.553 228.399L191.394 229.814L191.365 243.534L226.634 275.817L226.959 277.579L240.205 289.555L242.358 289.022L243.493 288.834L245.789 289.081L246.697 290.184L249.869 293.829L253.88 297.74L257.061 300.645L258.661 301.355L260.116 302.3L262.463 304.876L264.081 305.404L265.626 306.048L266.365 307.355L267.719 309.341L272.49 313.697L275.96 316.815L281.072 320.215L283.923 321.418L286.655 321.93L287.671 321.657L288.661 321.011L290.72 321.457L291.36 322.509L293.204 322.934L294.813 324.512L296.503 326.221L299.945 326.43L299.955 327.606L301.437 329.542L302.93 331.355L304.843 332.035L307.194 332.015L308.909 332.181L310.326 333.242L312.261 334.712L312.2 334.808C312.2 334.808 312.454 335.162 312.572 335.214C312.691 335.268 313.098 336.172 313.098 336.172L313 337.193L311.911 337.788L309.984 338.962L308.821 340.333L308.031 342.111L306.661 347.748L306.295 349.402L306.164 350.75L306.948 352.021L307.25 353.163L306.975 355.156L306.319 356.824L306.196 358.089L307.102 358.095L308.068 358.765L308.434 359.666L309.583 360.147L310.826 359.65L312.257 358.923L313.486 359L314.818 359.294L317.53 358.527L318.557 358.131L320.325 358.178L321.427 358.285L322.252 359.56L324.3 361.819L324.922 363.487L325.47 365.064L329.671 366.388C329.671 366.388 331.454 366.261 331.707 366.204C331.96 366.145 333.537 365.185 333.537 365.185L334.436 364.407L335.211 364.07L335.878 364.423L336.101 365.516L336.733 366.236L338.685 366.508L340.306 366.788L341.5 367.233L342.082 368.032L342.974 368.612L343.552 368.174C343.552 368.174 344.994 366.046 345.047 365.928C345.1 365.809 345.563 365.277 345.579 365.115C345.587 365.029 345.601 364.653 345.608 364.295C345.615 363.966 345.617 363.652 345.603 363.591C345.574 363.465 345.222 361.989 345.222 361.989C345.222 361.989 344.808 360.3 344.832 360.055C344.856 359.81 345.161 358.356 345.218 358.197C345.274 358.037 346.053 356.382 346.053 356.382C346.053 356.382 347.063 354.46 347.197 354.349C347.332 354.238 348.681 352.226 348.86 352.078C349.039 351.931 350.463 350.42 350.463 350.42C350.463 350.42 352.348 348.83 352.478 348.761C352.609 348.691 353.924 346.593 353.924 346.593C353.924 346.593 355.256 344.331 355.419 344.347C355.583 344.362 355.749 342.648 355.749 342.648L355.957 341.349L356.759 340.726L357.661 340.772L358.707 341.038L359.461 341.771L360.634 342.42L361.078 342.092L361.039 341.222L360.745 339.999L361.279 339.164L363.748 337.075L364.786 336.145L365.237 335.323C365.237 335.323 365.353 333.274 365.253 333.017C365.155 332.76 365.356 331.955 365.356 331.955L364.949 331.05L364.836 330.091L363.856 329.996L363.022 329.669C363.022 329.669 362.792 329.07 362.399 328.867C362.007 328.664 362.458 328.254 362.458 328.254L362.569 327.111L362.204 326.622L360.705 326.354L360.094 325.429L359.703 324.361L359.325 323.583C359.325 323.583 358.32 323.321 358.034 323.293C357.748 323.265 357.062 323.116 356.739 323.044C356.416 322.971 356.427 322.437 356.427 322.437C356.427 322.437 356.842 321.982 356.939 321.826C357.037 321.671 357.619 321.192 357.619 321.192C357.619 321.192 357.889 320.105 357.924 319.738C357.96 319.37 357.692 318.726 357.652 318.723C357.611 318.719 356.996 317.834 356.996 317.834L356.661 316.607L357.2 315.299L357.557 314.592L357.679 313.326L357.407 312.31L357.04 311.409L357.312 310.735C357.312 310.735 358.434 310.638 358.56 310.609C358.687 310.58 359.246 310.345 359.246 310.345L359.28 309.565L358.812 308.861L357.94 308.076L357.774 307.236L358.487 306.686L359.8 306.319L361.269 306.049L362.014 305.585L362.113 304.565L362.243 303.217L361.815 302.104L360.461 301.19L359.93 299.861L359.805 299.025L359.289 298.397L358.465 298.813L357.87 299.002L357.122 298.641L356.104 298.09L354.855 298.216L353.554 298.461L352.267 298.13L350.797 297.988L349.336 298.176L347.687 298.182L346.191 297.872L345.983 297.496C346.202 297.493 346.584 297.436 346.584 297.436L346.596 293.481L345.738 293.398L345.466 292.383L344.697 291.381L343.545 291.146L341.571 290.461L339.449 289.389L337.475 288.704L337.232 287.382L337.712 286.254L337.477 285.489L337.679 285.088L338.364 285.266L341.101 285.098L341.802 284.239L342.271 283.233L341.928 281.655L341.599 279.953L340.98 278.039L340.186 276.664L341.642 276.311L342.264 275.363L343.608 274.523L344.376 274.35L344.582 274.678L344.944 274.775L345.697 274.662L347.273 273.702L349.407 272.734L350.895 272.693L353.4 272.997L354.799 273.874L356.009 274.795L358.263 275.136L359.294 275.978L361.547 277.618L365.21 278.096L367.526 278.444L368.986 279.327L372.629 279.37L374.895 279.59L374.775 278.279L375.36 277.347L376.642 276.235L377.154 275.419L377.45 274.273L377.075 273.68L377.009 272.437L377.968 271.479L378.375 270.467L378.286 269.47L378.483 268.067L380.404 267.388L382.362 266.959L383.905 266.984L384.375 266.597L384.727 265.519L385.227 264.825L386 265.147L386.029 266.757L387.07 266.858L387.474 266.526L387.667 265.803L387.499 264.983L386.748 263.797L386.29 262.146L386.12 260.708L386.355 259.556L386.967 259.615C386.967 259.615 388.945 259.621 389.172 259.828C389.4 260.036 390.261 259.439 390.261 259.439L391.611 258.271L391.724 257.108L389.151 256.859L387.303 257.422L384.974 258.494L383.113 258.562L380.817 258.649L378.426 257.8L377.193 257.124L376.707 256.397L377.347 255.531L379.396 254.802L380.449 254.568L380.531 254.789L380.894 254.865L381.82 254.666L382.871 254.026L384.015 254.136L384.671 255.024L386.02 255.567L387.486 254.472L388.774 253.938L391.325 253.978L393.225 254.368L395.941 254.837L395.957 254.673L396.464 254.97L397.613 255.453L400.322 256.415L400.512 255.733L400.43 254.447L400.492 253.382C400.492 253.382 401.151 252.539 401.33 252.391C401.509 252.244 402.095 251.723 402.095 251.723L402.148 250.327C402.148 250.327 401.807 249.593 401.688 249.541C401.569 249.489 401.207 248.546 401.207 248.546L401.174 247.183L401.247 244.305L400.721 243.348L399.966 242.204L400.119 241.476C400.119 241.476 400.873 240.931 401.04 240.906C401.207 240.881 402.501 240.717 402.664 240.733C402.827 240.749 403.291 240.217 403.291 240.217C403.291 240.217 403.838 236.272 403.869 235.946C403.901 235.619 404.284 234.213 404.463 234.066C404.642 233.919 405.418 232.716 405.418 232.716C405.418 232.716 406.749 232.597 406.912 232.613C407.075 232.629 408.096 232.727 408.096 232.727L409.606 233.739L412.947 238.39L413.601 239.73L415.104 239.958L416.142 239.029L417.694 237.901L419.181 237.014L420.772 236.756L423.148 236.904L425.191 236.236L427.343 235.29L428.376 233.989C428.376 233.989 430.269 233.595 430.396 233.566C430.522 233.537 432.058 232.574 432.058 232.574C432.058 232.574 434.189 231.419 434.532 231.288C434.874 231.156 435.798 230.545 435.798 230.545C435.798 230.545 436.078 229.788 436.09 229.666C436.102 229.544 436.212 228.4 436.212 228.4L436.717 226.595L437.833 225.713C437.833 225.713 439.036 225.624 439.33 225.57C439.624 225.516 440.204 225.489 440.204 225.489L440.247 225.363L440.738 225.5L440.019 226.543L440.559 226.926C440.559 226.926 441.654 227.113 441.776 227.125C441.899 227.138 442.81 227.514 442.81 227.514L442.85 228.383C442.85 228.383 442.425 229.373 442.408 229.535C442.393 229.699 443.085 230.632 443.085 230.632L445.684 234.015L445.708 235.048C445.708 235.048 445.105 235.319 445.007 235.475C444.91 235.63 445.156 236.066 445.156 236.066L446.35 236.511L447.304 237.304L448.263 238.468C448.263 238.468 448.6 238.327 448.938 238.203L449.182 238.763L448.028 239.188L446.912 240.069C446.912 240.069 446.24 240.622 445.927 240.88C445.613 241.138 445.357 241.237 445.141 241.34C444.925 241.442 443.934 241.882 443.934 241.882C443.934 241.882 443.042 242.579 442.945 242.735C442.847 242.89 441.866 243.661 441.854 243.783C441.842 243.905 441.46 244.446 441.322 244.597C441.184 244.749 440.466 244.926 440.466 244.926C440.466 244.926 439.136 245.045 438.882 245.103C438.629 245.16 438.42 246.047 438.42 246.047L437.847 246.857C437.847 246.857 436.87 247.587 436.706 247.571C436.543 247.555 434.867 247.846 434.328 247.876C433.789 247.907 433.508 248.251 433.508 248.251L433.147 248.999C433.147 248.999 433.482 250.227 433.511 250.353C433.54 250.479 434.058 251.518 434.058 251.518L435.501 252.359C435.501 252.359 437.128 253.011 437.41 253.079C437.692 253.148 438.804 253.585 438.804 253.585L439.174 254.445L439.282 256.31C439.282 256.31 439.615 257.766 439.759 258.287C439.785 258.381 439.805 258.444 439.815 258.464C439.885 258.594 440.248 259.536 440.248 259.536C440.248 259.536 441.098 260.113 441.254 260.21C441.409 260.308 442.667 260.512 442.667 260.512L444.523 260.073L446.033 259.807L447.521 259.333C447.521 259.333 451.111 259.722 451.356 259.745C451.601 259.768 451.939 259.677 451.951 259.555C451.963 259.433 451.59 259.026 451.59 259.026C451.59 259.026 451.089 258.236 451.146 258.076C451.203 257.916 451.381 257.357 451.381 257.357C451.381 257.357 453.041 257.229 453.246 257.249C453.45 257.269 454.724 257.31 455.066 257.178C455.409 257.047 455.758 256.421 455.908 256.147C456.058 255.873 457.422 255.84 457.552 255.77C457.682 255.7 459.033 255.377 459.033 255.377L461.284 255.966L461.968 256.981C461.968 256.981 463.051 257.291 463.214 257.307C463.378 257.323 464.236 257.406 464.395 257.462C464.554 257.519 464.813 258.245 464.813 258.245C464.813 258.245 465.688 258.576 465.974 258.604C466.26 258.632 467.444 258.746 467.567 258.758C467.689 258.77 467.834 259.402 467.904 259.533C467.974 259.663 468.189 260.426 468.303 260.519C468.417 260.613 468.971 261.284 468.971 261.284C468.971 261.284 469.466 261.703 469.626 261.76C469.785 261.817 470.43 261.961 470.769 261.871C471.107 261.78 470.853 261.425 470.869 261.262C470.885 261.099 470.964 260.282 470.98 260.119C470.996 259.955 471.762 259.7 471.889 259.671C472.015 259.642 472.587 259.697 472.746 259.754C472.906 259.81 473.235 260.667 473.235 260.667C473.235 260.667 473.074 262.753 473.051 262.998C473.027 263.243 473.405 264.021 473.405 264.021L474.215 264.594L474.63 264.14L475.416 263.682C475.416 263.682 476.114 263.706 476.233 263.759C476.351 263.812 477.08 263.099 477.214 262.989C477.349 262.878 477.836 262.101 477.836 262.101L478.315 261.405C478.315 261.405 478.886 261.048 479.049 261.064C479.212 261.08 479.643 261.74 479.835 261.882C480.028 262.024 480.979 261.992 481.101 262.005C481.224 262.017 482.105 261.854 482.105 261.854C482.105 261.854 483.753 261.437 483.875 261.449C483.998 261.46 484.213 260.945 484.213 260.945L483.97 260.468L483.381 260.165C483.381 260.165 482.379 259.449 482.256 259.438C482.134 259.426 482.001 258.671 482.001 258.671L482.497 258.225L483.284 257.765L484.539 257.145L485.39 256.444L485.399 255.497L485.881 254.349L486.884 253.786C486.884 253.786 488.266 253.136 488.392 253.107C488.518 253.078 489.097 252.64 489.097 252.64V252.635L489.581 252.31L489.595 252.819L489.6 252.977L490.728 253.251L492.063 254.781L493.317 256.304C493.317 256.304 494.989 256.919 495.283 256.865C495.576 256.811 495.943 256.435 495.943 256.435L496.265 255.229L496.542 253.649C496.542 253.649 496.253 252.796 496.183 252.666C496.113 252.536 495.716 251.961 495.716 251.961L496.432 251.372L496.095 250.597C496.095 250.597 495.725 249.736 495.569 249.639C495.414 249.542 495.929 248.479 495.929 248.479L496.688 248.305L497.675 249.596L498.9 250.58L500.032 251.225L501.272 252.045C501.272 252.045 502.078 252.659 502.201 252.671C502.323 252.683 503.642 252.687 503.642 252.687C503.642 252.687 504.17 251.914 504.182 251.791C504.194 251.669 504.432 250.909 504.562 250.839C504.692 250.769 505.476 250.763 505.476 250.763L506.835 250.358L507.651 249.159L507.586 248.123L507.453 247.368L508.216 247.154L509.082 247.155L510.226 246.4L511.269 245.842C511.269 245.842 512.717 245.364 512.851 245.253C512.986 245.142 513.955 244.495 514.089 244.384C514.224 244.273 515.253 244.29 515.416 244.306C515.579 244.322 518.006 244.371 518.006 244.371L519.403 243.991L519.872 242.553L519.73 241.467ZM441.62 255.758C441.735 255.447 441.973 255.189 442.295 254.97L441.62 255.758Z" fill="#00B0AD"/>
</svg>
